<?xml version="1.0" encoding="UTF-8" standalone="no"?>
<svg
   width="142.24mm"
   height="128.5mm"
   viewBox="0 0 142.24 128.5"
   version="1.1"
   id="svg137"
   xmlns="http://www.w3.org/2000/svg"
   xmlns:svg="http://www.w3.org/2000/svg">
  <defs
     id="defs137" />
  <!-- Panel background - 28 HP wide (142.24mm) -->
  <rect
     width="142.24"
     height="128.5"
     fill="#1a1a1a"
     id="rect1" />
  <!-- ========== CLOCK COLUMN (left side) ========== -->
  <rect
     x="1"
     y="11"
     width="18"
     height="114.98025"
     fill="#222222"
     rx="2"
     id="rect2"
     style="stroke-width:1.04644" />
  <path
     d="m 9.0570068,16.892578 q -0.2026367,0.140381 -0.4699707,0.140381 -0.3344726,0 -0.5090332,-0.229492 -0.1733398,-0.229492 -0.1733398,-0.664063 0,-0.419922 0.168457,-0.656738 0.168457,-0.238037 0.513916,-0.238037 0.1245118,0 0.2465821,0.03174 0.1220703,0.03174 0.1965332,0.08423 l -0.065918,0.15747 q -0.1721191,-0.09766 -0.3771973,-0.09766 -0.2380371,0 -0.3540039,0.17334 -0.1159668,0.172119 -0.1159668,0.545654 0,0.717774 0.4699707,0.717774 0.1989746,0 0.4077149,-0.122071 z M 10.499878,17 H 9.5623779 v -1.722412 h 0.2001953 v 1.547851 h 0.7373048 z m 1.722412,0 h -0.252686 l -0.582275,-0.844727 -0.181885,0.197754 V 17 h -0.200195 v -1.722412 h 0.200195 v 0.825195 l 0.76416,-0.825195 h 0.230713 l -0.672607,0.727539 z"
     id="text2"
     style="font-weight:bold;font-size:2.5px;font-family:monospace;text-anchor:middle;fill:#ff9900"
     aria-label="CLK" />
  <!-- BPM display area -->
  <rect
     x="3"
     y="20"
     width="14"
     height="8"
     fill="#000000"
     rx="1"
     id="rect3" />
  <!-- BPM knob -->
  <circle
     cx="10"
     cy="35"
     r="4"
     fill="#303030"
     stroke="#404040"
     stroke-width="0.5"
     id="circle3" />
  <line
     x1="10"
     y1="35"
     x2="10"
     y2="32"
     stroke="#cccccc"
     stroke-width="0.8"
     stroke-linecap="round"
     id="line3" />
  <path
     d="m 8.965332,41.244141 q 0.1376953,0.03223 0.2158203,0.125 0.078125,0.09277 0.078125,0.220703 0,0.1875 -0.1367187,0.298828 Q 8.9868164,42 8.7954102,42 H 8.4038086 v -1.37793 h 0.3818359 q 0.1992188,0 0.3115235,0.08789 0.1123047,0.08691 0.1123047,0.246094 0,0.09766 -0.06543,0.173828 -0.064453,0.07617 -0.178711,0.110351 z m -0.4013672,-0.07422 h 0.1875 q 0.2939454,0 0.2939454,-0.209961 0,-0.0957 -0.072266,-0.146484 -0.072266,-0.05176 -0.211914,-0.05176 H 8.5639648 Z m 0,0.69043 h 0.1816407 q 0.1591797,0 0.2519531,-0.07227 0.09375,-0.07227 0.09375,-0.198242 0,-0.133789 -0.091797,-0.207032 -0.091797,-0.07324 -0.265625,-0.07324 H 8.5639648 Z M 9.6499023,40.62207 h 0.3496094 q 0.1982423,0 0.3173833,0.09961 0.11914,0.09961 0.11914,0.274414 0,0.175781 -0.11914,0.28125 -0.118165,0.104492 -0.310547,0.104492 H 9.8100586 V 42 H 9.6499023 Z m 0.1601563,0.620117 h 0.1738281 q 0.2822263,0 0.2822263,-0.236328 0,-0.109375 -0.07715,-0.176757 -0.07617,-0.06738 -0.1972658,-0.06738 H 9.8100586 Z M 11.644043,42 h -0.154297 v -1.181641 l -0.208008,0.56543 h -0.151367 l -0.208008,-0.56543 V 42 h -0.154297 v -1.37793 h 0.208008 l 0.230469,0.62793 0.229492,-0.62793 h 0.208008 z"
     id="text3"
     style="font-size:2px;font-family:monospace;text-anchor:middle;fill:#888888"
     aria-label="BPM" />
  <!-- RUN button with LED -->
  <circle
     cx="10"
     cy="50"
     r="2.5"
     fill="#00ff00"
     opacity="0.8"
     id="circle4" />
  <circle
     cx="10"
     cy="50"
     r="3"
     fill="none"
     stroke="#333333"
     stroke-width="0.5"
     id="circle5" />
  <path
     d="M 9.3461914,57 H 9.1459961 L 8.7416992,56.374023 H 8.5639648 V 57 H 8.4038086 V 55.62207 H 8.793457 q 0.1962891,0 0.3095703,0.0957 0.1142579,0.09473 0.1142579,0.264649 0,0.125976 -0.083008,0.224609 -0.083008,0.09766 -0.2285156,0.132813 z M 8.5639648,56.234375 h 0.2021485 q 0.1269531,0 0.2060547,-0.06836 0.079102,-0.06934 0.079102,-0.173829 0,-0.230468 -0.28125,-0.230468 H 8.5639648 Z m 1.8320312,0.332031 q 0,0.239258 -0.09766,0.34961 -0.09668,0.110351 -0.294922,0.110351 -0.3994141,0 -0.3994141,-0.456055 V 55.62207 h 0.1601563 v 0.933594 q 0,0.330078 0.2392578,0.330078 0.120117,0 0.175781,-0.07813 0.05664,-0.07813 0.05664,-0.253906 V 55.62207 h 0.160156 z M 11.615723,57 h -0.177735 l -0.49414,-1.087891 V 57 h -0.160157 v -1.37793 h 0.178711 l 0.496094,1.078125 V 55.62207 h 0.157227 z"
     id="text5"
     style="font-size:2px;font-family:monospace;text-anchor:middle;fill:#888888"
     aria-label="RUN" />
  <!-- CLK IN jack -->
  <circle
     cx="10"
     cy="66"
     r="4"
     fill="#1a1a1a"
     stroke="#888888"
     stroke-width="1"
     id="circle6" />
  <circle
     cx="10"
     cy="66"
     r="1.5"
     fill="#333333"
     id="circle7" />
  <path
     d="M 9.7060547,74 H 9.0800781 V 73.860352 H 9.3173828 V 72.761719 H 9.0800781 V 72.62207 h 0.6259766 v 0.139649 H 9.4775391 v 1.098633 h 0.2285156 z m 1.3095703,0 H 10.837891 L 10.34375,72.912109 V 74 h -0.160156 v -1.37793 h 0.178711 l 0.496093,1.078125 V 72.62207 h 0.157227 z"
     id="text7"
     style="font-size:2px;font-family:monospace;text-anchor:middle;fill:#888888"
     aria-label="IN" />
  <!-- RST button with LED -->
  <circle
     cx="10"
     cy="84"
     r="2.5"
     fill="#444444"
     id="circle8" />
  <circle
     cx="10"
     cy="84"
     r="3"
     fill="none"
     stroke="#333333"
     stroke-width="0.5"
     id="circle9" />
  <path
     d="M 9.3461914,91 H 9.1459961 L 8.7416992,90.374023 H 8.5639648 V 91 H 8.4038086 V 89.62207 H 8.793457 q 0.1962891,0 0.3095703,0.0957 0.1142579,0.09473 0.1142579,0.264649 0,0.125976 -0.083008,0.224609 -0.083008,0.09766 -0.2285156,0.132813 z M 8.5639648,90.234375 h 0.2021485 q 0.1269531,0 0.2060547,-0.06836 0.079102,-0.06934 0.079102,-0.173829 0,-0.230468 -0.28125,-0.230468 H 8.5639648 Z m 1.7294922,-0.459961 q -0.123047,-0.04199 -0.233398,-0.04199 -0.1250004,0 -0.204102,0.05762 -0.078125,0.05664 -0.078125,0.162109 0,0.125 0.2060547,0.219727 0.1523433,0.07031 0.2011723,0.09766 0.0498,0.02734 0.100586,0.0752 0.05078,0.04785 0.08105,0.113281 0.03125,0.06445 0.03125,0.145508 0,0.201171 -0.135742,0.3125 -0.134766,0.110351 -0.3183593,0.110351 -0.1777344,0 -0.3115235,-0.07031 l 0.033203,-0.137696 q 0.1572266,0.07129 0.2744141,0.07129 0.1367186,0 0.2187496,-0.07031 0.08301,-0.07129 0.08301,-0.195313 0,-0.0918 -0.05371,-0.155273 -0.05371,-0.06445 -0.1982419,-0.130859 -0.1484375,-0.06836 -0.1923828,-0.09277 -0.042969,-0.02539 -0.085937,-0.06934 -0.042969,-0.04394 -0.066406,-0.09863 -0.023437,-0.05469 -0.023437,-0.11914 0,-0.170899 0.1230469,-0.266602 0.1230469,-0.0957 0.3115231,-0.0957 0.137696,0 0.273438,0.04199 z m 1.413086,-0.02246 H 11.281738 V 91 H 11.122559 V 89.751953 H 10.695801 V 89.62207 h 1.010742 z"
     id="text9"
     style="font-size:2px;font-family:monospace;text-anchor:middle;fill:#888888"
     aria-label="RST" />
  <!-- RST IN jack -->
  <circle
     cx="10"
     cy="100"
     r="4"
     fill="#1a1a1a"
     stroke="#888888"
     stroke-width="1"
     id="circle10" />
  <circle
     cx="10"
     cy="100"
     r="1.5"
     fill="#333333"
     id="circle11" />
  <path
     d="M 9.7060547,108 H 9.0800781 v -0.13965 h 0.2373047 v -1.09863 H 9.0800781 v -0.13965 h 0.6259766 v 0.13965 H 9.4775391 v 1.09863 h 0.2285156 z m 1.3095703,0 H 10.837891 L 10.34375,106.91211 V 108 h -0.160156 v -1.37793 h 0.178711 l 0.496093,1.07813 v -1.07813 h 0.157227 z"
     id="text11"
     style="font-size:2px;font-family:monospace;text-anchor:middle;fill:#888888"
     aria-label="IN" />
  <!-- ========== TITLE BAR ========== -->
  <rect
     x="45"
     y="2"
     width="52"
     height="7"
     fill="#333333"
     rx="1"
     id="rect11" />
  <path
     d="m 62.20874,4.2424316 q -0.276855,-0.094482 -0.525146,-0.094482 -0.28125,0 -0.459229,0.1296387 -0.175781,0.1274414 -0.175781,0.3647461 0,0.28125 0.463623,0.4943847 0.342773,0.1582032 0.452637,0.2197266 0.11206,0.061523 0.226318,0.1691895 0.114258,0.107666 0.182373,0.2548828 0.07031,0.1450195 0.07031,0.3273926 0,0.4526367 -0.30542,0.703125 -0.303223,0.248291 -0.716309,0.248291 -0.399902,0 -0.700928,-0.1582032 l 0.07471,-0.3098144 q 0.35376,0.1604004 0.617432,0.1604004 0.307617,0 0.492188,-0.1582031 0.186767,-0.1604004 0.186767,-0.4394532 0,-0.2065429 -0.120849,-0.3493652 Q 61.850586,5.659668 61.525391,5.5102539 61.191406,5.3564453 61.092529,5.3015137 60.99585,5.2443848 60.89917,5.1455078 60.80249,5.0466309 60.749756,4.923584 q -0.05273,-0.1230469 -0.05273,-0.2680664 0,-0.3845215 0.276856,-0.5998535 0.276855,-0.2153321 0.700928,-0.2153321 0.309814,0 0.615234,0.094482 z M 65.080566,7 H 63.461182 V 3.8996582 h 1.606201 v 0.314209 h -1.24585 v 0.9602051 h 1.19751 v 0.3142089 h -1.19751 V 6.685791 h 1.259033 z m 2.803711,0 H 67.484375 L 66.372559,4.5522461 V 7 H 66.012207 V 3.8996582 h 0.4021 l 1.116211,2.4257813 V 3.8996582 h 0.353759 z m 2.76416,-0.2197266 q -0.380126,0.2790528 -0.841552,0.2790528 -0.604248,0 -0.91626,-0.4086914 -0.312012,-0.4108887 -0.312012,-1.1997071 0,-0.7624511 0.301026,-1.1865234 0.303222,-0.4240723 0.927246,-0.4240723 0.224121,0 0.443847,0.057129 0.219727,0.057129 0.35376,0.1516114 L 70.48584,4.3325195 q -0.309815,-0.1757812 -0.678955,-0.1757812 -0.42627,0 -0.637207,0.3120117 -0.208741,0.3120117 -0.208741,0.9821777 0,1.2919922 0.845948,1.2919922 0.318603,0 0.481201,-0.1340332 V 5.8442383 H 69.72998 V 5.5322266 h 0.918457 z m 2.074219,-1.480957 q 0.309815,0.07251 0.485596,0.28125 0.175781,0.2087402 0.175781,0.496582 0,0.421875 -0.307617,0.6723633 Q 72.770996,7 72.340332,7 H 71.459229 V 3.8996582 h 0.85913 q 0.448243,0 0.700928,0.1977539 0.252686,0.1955566 0.252686,0.5537109 0,0.2197266 -0.147217,0.3911133 -0.14502,0.1713867 -0.4021,0.248291 z M 71.81958,5.1323242 h 0.421875 q 0.661377,0 0.661377,-0.4724121 0,-0.215332 -0.162598,-0.3295898 Q 72.577637,4.2138672 72.263428,4.2138672 H 71.81958 Z m 0,1.5534668 h 0.408691 q 0.358155,0 0.566895,-0.1625976 0.210938,-0.1625977 0.210938,-0.446045 0,-0.3010254 -0.206543,-0.4658203 Q 72.593018,5.4465332 72.201904,5.4465332 H 71.81958 Z M 76.284424,7 h -0.37793 L 75.563721,5.9145508 H 74.546387 L 74.199219,7 h -0.373535 l 1.012939,-3.1003418 h 0.432861 z M 75.460449,5.6003418 75.053955,4.3171387 74.649658,5.6003418 Z M 78.980469,7 h -0.45044 L 77.620361,5.5915527 H 77.220459 V 7 H 76.860107 V 3.8996582 h 0.876709 q 0.441651,0 0.696534,0.215332 0.25708,0.2131348 0.25708,0.595459 0,0.2834473 -0.186768,0.5053711 -0.186767,0.2197266 -0.51416,0.2988281 z m -1.76001,-1.7226563 h 0.454834 q 0.285644,0 0.463623,-0.1538085 0.177979,-0.1560059 0.177979,-0.3911133 0,-0.5185547 -0.632813,-0.5185547 h -0.463623 z m 2.340088,-1.3776855 h 0.61084 q 0.608642,0 0.975586,0.4152832 0.366943,0.4130859 0.366943,1.1359863 0,0.7382813 -0.373535,1.1447754 Q 80.769043,7 80.186768,7 h -0.626221 z m 0.360351,2.7861328 h 0.254883 q 0.441651,0 0.698731,-0.3273926 0.25708,-0.3273925 0.25708,-0.9074707 0,-0.5756836 -0.259278,-0.9052734 -0.25708,-0.3317871 -0.696533,-0.3317871 h -0.254883 z"
     id="text12"
     style="font-weight:bold;font-size:4.5px;font-family:monospace;text-anchor:middle;fill:#ffffff"
     aria-label="SENGBARD" />
  <!-- ========== TRACK 1 ========== -->
  <rect
     x="20"
     y="11"
     width="118.97661"
     height="27"
     fill="#222222"
     rx="2.2032704"
     id="rect12"
     style="stroke-width:1.04959" />
  <path
     d="M 27.383057,14.439941 H 26.852051 V 16 h -0.198975 v -1.560059 h -0.533447 v -0.162353 h 1.263428 z M 28.93335,16 H 28.683105 L 28.177734,15.217529 H 27.955566 V 16 h -0.200195 v -1.722412 h 0.487061 q 0.245361,0 0.386963,0.119629 0.142822,0.118408 0.142822,0.33081 0,0.157471 -0.10376,0.280762 -0.10376,0.12207 -0.285645,0.166016 z m -0.977784,-0.957031 h 0.252686 q 0.158691,0 0.257568,-0.08545 0.09888,-0.08667 0.09888,-0.217286 0,-0.288086 -0.351562,-0.288086 H 27.955566 Z M 30.472656,16 h -0.252685 l -0.582276,-0.844727 -0.181884,0.197754 V 16 h -0.200196 v -1.722412 h 0.200196 v 0.825195 l 0.76416,-0.825195 h 0.230713 l -0.672608,0.727539 z m 2.770996,0 h -0.905761 v -0.174561 h 0.36499 v -1.33789 l -0.344238,0.172119 v -0.200195 l 0.372314,-0.191651 h 0.172119 v 1.557617 h 0.340576 z"
     id="text13"
     style="font-weight:bold;font-size:2.5px;font-family:monospace;fill:#ff9900"
     aria-label="TRK 1" />
  <!-- Track 1 vertical controls (STP/DIV/DIR trimpots) -->
  <circle
     cx="26"
     cy="22"
     r="2"
     fill="#303030"
     stroke="#404040"
     stroke-width="0.3"
     id="circle13" />
  <circle
     cx="26"
     cy="28"
     r="2"
     fill="#303030"
     stroke="#404040"
     stroke-width="0.3"
     id="circle14" />
  <circle
     cx="26"
     cy="34"
     r="2"
     fill="#303030"
     stroke="#404040"
     stroke-width="0.3"
     id="circle15" />
  <path
     d="m 31.670166,22.080811 q -0.09228,-0.03149 -0.175049,-0.03149 -0.09375,0 -0.153076,0.04321 -0.05859,0.04248 -0.05859,0.121582 0,0.09375 0.154541,0.164795 0.114258,0.05273 0.150879,0.07324 0.03735,0.02051 0.07544,0.0564 0.03809,0.03589 0.06079,0.08496 0.02344,0.04834 0.02344,0.109131 0,0.150879 -0.101806,0.234375 -0.101075,0.08276 -0.23877,0.08276 -0.133301,0 -0.233643,-0.05273 l 0.0249,-0.103271 q 0.11792,0.05347 0.20581,0.05347 0.102539,0 0.164063,-0.05273 0.06226,-0.05347 0.06226,-0.146484 0,-0.06885 -0.04028,-0.116456 -0.04028,-0.04834 -0.148681,-0.09814 -0.111328,-0.05127 -0.144287,-0.06958 -0.03223,-0.01904 -0.06445,-0.052 -0.03223,-0.03296 -0.0498,-0.07398 -0.01758,-0.04101 -0.01758,-0.08935 0,-0.128174 0.09229,-0.199951 0.09228,-0.07178 0.233642,-0.07178 0.103272,0 0.205079,0.03149 z m 1.059814,-0.01685 H 32.411377 V 23 h -0.119385 v -0.936035 h -0.320068 v -0.09741 h 0.758056 z m 0.257813,-0.09741 H 33.25 q 0.148682,0 0.238037,0.07471 0.08936,0.07471 0.08936,0.20581 0,0.131836 -0.08936,0.210938 -0.08862,0.07837 -0.23291,0.07837 H 33.10791 V 23 h -0.120117 z m 0.120117,0.465088 h 0.130371 q 0.21167,0 0.21167,-0.177246 0,-0.08203 -0.05786,-0.132569 -0.05713,-0.05054 -0.147949,-0.05054 H 33.10791 Z"
     id="text15"
     style="font-size:1.5px;font-family:monospace;fill:#666666"
     aria-label="STP" />
  <path
     d="m 31.153076,27.966553 h 0.203613 q 0.202881,0 0.325196,0.138427 0.122314,0.137696 0.122314,0.378663 0,0.246093 -0.124512,0.381591 Q 31.555908,29 31.361816,29 h -0.20874 z m 0.120117,0.928711 h 0.08496 q 0.147217,0 0.23291,-0.109131 0.08569,-0.109131 0.08569,-0.30249 0,-0.191895 -0.08643,-0.301758 -0.08569,-0.110596 -0.232178,-0.110596 h -0.08496 z M 32.579834,29 h -0.469482 v -0.104736 h 0.177978 v -0.823975 h -0.177978 v -0.104736 h 0.469482 v 0.104736 h -0.171387 v 0.823975 h 0.171387 z M 33.657959,27.966553 33.321045,29 h -0.144287 l -0.337647,-1.033447 h 0.125977 l 0.283447,0.894287 0.284912,-0.894287 z"
     id="text16"
     style="font-size:1.5px;font-family:monospace;fill:#666666"
     aria-label="DIV" />
  <path
     d="m 31.153076,33.966553 h 0.203613 q 0.202881,0 0.325196,0.138427 0.122314,0.137696 0.122314,0.378663 0,0.246093 -0.124512,0.381591 Q 31.555908,35 31.361816,35 h -0.20874 z m 0.120117,0.928711 h 0.08496 q 0.147217,0 0.23291,-0.109131 0.08569,-0.109131 0.08569,-0.30249 0,-0.191895 -0.08643,-0.301758 -0.08569,-0.110596 -0.232178,-0.110596 h -0.08496 z M 32.579834,35 h -0.469482 v -0.104736 h 0.177978 v -0.823975 h -0.177978 v -0.104736 h 0.469482 v 0.104736 h -0.171387 v 0.823975 h 0.171387 z m 1.080322,0 H 33.51001 L 33.206787,34.530518 H 33.073486 V 35 h -0.120117 v -1.033447 h 0.292236 q 0.147217,0 0.232178,0.07178 0.08569,0.07104 0.08569,0.198486 0,0.09448 -0.06226,0.168457 -0.06226,0.07324 -0.171387,0.09961 z m -0.58667,-0.574219 h 0.151612 q 0.09521,0 0.154541,-0.05127 0.05933,-0.052 0.05933,-0.130371 0,-0.172852 -0.210938,-0.172852 h -0.154541 z"
     id="text17"
     style="font-size:1.5px;font-family:monospace;fill:#666666"
     aria-label="DIR" />
  <!-- Track 1 step numbers and pitch knobs -->
  <path
     d="M 42.354639,15 H 41.70249 v -0.125684 h 0.262793 v -0.963281 l -0.247851,0.123926 V 13.89082 l 0.268066,-0.137988 h 0.123926 v 1.121484 h 0.245215 z"
     id="text18"
     style="font-size:1.8px;font-family:monospace;text-anchor:middle;fill:#666666"
     aria-label="1" />
  <path
     d="m 51.322119,15 h -0.682031 v -0.10459 q 0.259277,-0.28916 0.336621,-0.387597 0.07734,-0.09844 0.125684,-0.206543 0.04834,-0.108106 0.04834,-0.215332 0,-0.103711 -0.06328,-0.163477 -0.0624,-0.05977 -0.175781,-0.05977 -0.08701,0 -0.233789,0.05361 l -0.02022,-0.123926 q 0.132715,-0.05625 0.277734,-0.05625 0.166114,0 0.267188,0.09404 0.101953,0.09316 0.101953,0.249609 0,0.111621 -0.05273,0.221485 -0.05186,0.109863 -0.133594,0.210937 -0.08174,0.101074 -0.318164,0.362109 h 0.52207 z"
     id="text19"
     style="font-size:1.8px;font-family:monospace;text-anchor:middle;fill:#666666"
     aria-label="2" />
  <path
     d="m 60.076904,14.333789 q 0.113379,0.03164 0.181934,0.116016 0.06856,0.0835 0.06856,0.188086 0,0.163476 -0.127442,0.275097 -0.127441,0.110742 -0.300586,0.110742 -0.147656,0 -0.264551,-0.06504 l 0.02813,-0.118652 q 0.122168,0.05713 0.2417,0.05713 0.1125,0 0.191601,-0.06943 0.07998,-0.07031 0.07998,-0.180175 0,-0.108106 -0.08525,-0.175782 -0.08525,-0.06767 -0.225879,-0.06767 h -0.03779 v -0.118653 h 0.01055 q 0.135351,0 0.223242,-0.06328 0.08789,-0.06416 0.08789,-0.172266 0,-0.08789 -0.06328,-0.137109 -0.06328,-0.0501 -0.174023,-0.0501 -0.0958,0 -0.214453,0.05186 l -0.01934,-0.123926 q 0.119531,-0.05449 0.24082,-0.05449 0.166113,0 0.27334,0.08789 0.108105,0.08701 0.108105,0.224122 0,0.09492 -0.06592,0.177539 -0.06504,0.08174 -0.157325,0.102832 z"
     id="text20"
     style="font-size:1.8px;font-family:monospace;text-anchor:middle;fill:#666666"
     aria-label="3" />
  <path
     d="m 69.402979,14.713477 h -0.15293 V 15 H 69.105908 V 14.713477 H 68.56626 v -0.109864 l 0.489551,-0.84375 h 0.194238 v 0.82793 h 0.15293 z m -0.297071,-0.125684 v -0.685547 l -0.39375,0.685547 z"
     id="text21"
     style="font-size:1.8px;font-family:monospace;text-anchor:middle;fill:#666666"
     aria-label="4" />
  <path
     d="m 77.841357,14.259961 q 0.05977,-0.01582 0.116895,-0.01582 0.175781,0 0.277734,0.108105 0.101953,0.107227 0.101953,0.268067 0,0.16875 -0.118652,0.286523 -0.118652,0.116894 -0.28916,0.116894 -0.162598,0 -0.272461,-0.05449 l 0.029,-0.122168 q 0.119531,0.0501 0.246973,0.0501 0.113378,0 0.182812,-0.07295 0.07031,-0.07295 0.07031,-0.203906 0,-0.123926 -0.06592,-0.190723 -0.06592,-0.0668 -0.169629,-0.0668 -0.07559,0 -0.149414,0.029 l -0.08613,-0.03955 v -0.592383 h 0.566894 v 0.125684 h -0.441211 z"
     id="text22"
     style="font-size:1.8px;font-family:monospace;text-anchor:middle;fill:#666666"
     aria-label="5" />
  <path
     d="m 86.778076,14.354004 q 0.116016,-0.09404 0.252246,-0.09404 0.157324,0 0.261914,0.101074 0.105469,0.100195 0.105469,0.259278 0,0.174902 -0.09316,0.28916 -0.09316,0.114257 -0.24873,0.114257 -0.198633,0 -0.314649,-0.181933 -0.116016,-0.182813 -0.116016,-0.446484 0,-0.28125 0.120411,-0.470215 0.121289,-0.188965 0.331347,-0.188965 0.14502,0 0.250489,0.04307 l -0.02285,0.128321 q -0.122168,-0.04482 -0.223242,-0.04482 -0.143262,0 -0.223242,0.13711 -0.07998,0.137109 -0.07998,0.354199 z m 0.0044,0.123926 q 0,0.159082 0.07471,0.28916 0.07471,0.130078 0.188086,0.130078 0.0958,0 0.147656,-0.07031 0.05186,-0.07031 0.05186,-0.194238 0,-0.114258 -0.05713,-0.180176 -0.05713,-0.06592 -0.160839,-0.06592 -0.134473,0 -0.244336,0.09141 z"
     id="text23"
     style="font-size:1.8px;font-family:monospace;text-anchor:middle;fill:#666666"
     aria-label="6" />
  <path
     d="M 96.370459,13.862695 95.87915,15 h -0.147656 l 0.484277,-1.114453 h -0.580957 v -0.125684 h 0.735645 z"
     id="text24"
     style="font-size:1.8px;font-family:monospace;text-anchor:middle;fill:#666666"
     aria-label="7" />
  <path
     d="m 105.12437,14.319727 q 0.12656,0.03691 0.19599,0.125683 0.0703,0.08877 0.0703,0.207422 0,0.170508 -0.11338,0.270703 -0.1125,0.100195 -0.27773,0.100195 -0.17314,0 -0.28477,-0.101074 -0.11074,-0.101074 -0.11074,-0.268066 0,-0.117774 0.0721,-0.207422 0.0721,-0.08965 0.20127,-0.127441 -0.10283,-0.02637 -0.16523,-0.101075 -0.0615,-0.07559 -0.0615,-0.16875 0,-0.119531 0.0949,-0.216211 0.0949,-0.09756 0.25048,-0.09756 0.15381,0 0.25401,0.09668 0.10107,0.09668 0.10107,0.217089 0,0.09053 -0.0633,0.166993 -0.0633,0.07559 -0.16347,0.102832 z m -0.12833,-0.05977 q 0.004,0 0.0422,-0.01055 0.0378,-0.01055 0.0642,-0.02549 0.0272,-0.01582 0.0501,-0.03955 0.0229,-0.02373 0.0369,-0.05537 0.0141,-0.03252 0.0141,-0.07207 0,-0.08437 -0.0606,-0.139746 -0.0606,-0.05625 -0.14678,-0.05625 -0.0835,0 -0.14326,0.05713 -0.0598,0.05713 -0.0598,0.138868 0,0.05185 0.0211,0.09053 0.022,0.03867 0.0536,0.0624 0.0325,0.02373 0.0738,0.03691 0.0422,0.01318 0.0545,0.01318 z m 0,0.123047 q -0.24082,0.07031 -0.24082,0.264551 0,0.113379 0.073,0.181933 0.073,0.06768 0.17139,0.06768 0.10195,0 0.17139,-0.0668 0.0703,-0.06768 0.0703,-0.182812 0,-0.08701 -0.0483,-0.155567 -0.0483,-0.06943 -0.19688,-0.108984 z"
     id="text25"
     style="font-size:1.8px;font-family:monospace;text-anchor:middle;fill:#666666"
     aria-label="8" />
  <!-- Track 1 pitch knobs (8x) -->
  <circle
     cx="42"
     cy="22"
     r="3"
     fill="#303030"
     stroke="#404040"
     stroke-width="0.4"
     id="circle25" />
  <circle
     cx="51"
     cy="22"
     r="3"
     fill="#303030"
     stroke="#404040"
     stroke-width="0.4"
     id="circle26" />
  <circle
     cx="60"
     cy="22"
     r="3"
     fill="#303030"
     stroke="#404040"
     stroke-width="0.4"
     id="circle27" />
  <circle
     cx="69"
     cy="22"
     r="3"
     fill="#303030"
     stroke="#404040"
     stroke-width="0.4"
     id="circle28" />
  <circle
     cx="78"
     cy="22"
     r="3"
     fill="#303030"
     stroke="#404040"
     stroke-width="0.4"
     id="circle29" />
  <circle
     cx="87"
     cy="22"
     r="3"
     fill="#303030"
     stroke="#404040"
     stroke-width="0.4"
     id="circle30" />
  <circle
     cx="96"
     cy="22"
     r="3"
     fill="#303030"
     stroke="#404040"
     stroke-width="0.4"
     id="circle31" />
  <circle
     cx="105"
     cy="22"
     r="3"
     fill="#303030"
     stroke="#404040"
     stroke-width="0.4"
     id="circle32" />
  <!-- Track 1 gate buttons with LEDs (8x) -->
  <circle
     cx="42"
     cy="31"
     r="2.5"
     fill="#cccc00"
     opacity="0.9"
     id="circle33" />
  <circle
     cx="51"
     cy="31"
     r="2.5"
     fill="#cccc00"
     opacity="0.9"
     id="circle34" />
  <circle
     cx="60"
     cy="31"
     r="2.5"
     fill="#cccc00"
     opacity="0.9"
     id="circle35" />
  <circle
     cx="69"
     cy="31"
     r="2.5"
     fill="#cccc00"
     opacity="0.9"
     id="circle36" />
  <circle
     cx="78"
     cy="31"
     r="2.5"
     fill="#cccc00"
     opacity="0.9"
     id="circle37" />
  <circle
     cx="87"
     cy="31"
     r="2.5"
     fill="#cccc00"
     opacity="0.9"
     id="circle38" />
  <circle
     cx="96"
     cy="31"
     r="2.5"
     fill="#cccc00"
     opacity="0.9"
     id="circle39" />
  <circle
     cx="105"
     cy="31"
     r="2.5"
     fill="#cccc00"
     opacity="0.9"
     id="circle40" />
  <!-- Track 1 step position LEDs -->
  <circle
     cx="42"
     cy="36"
     r="1"
     fill="#00ff00"
     opacity="0.8"
     id="circle41" />
  <circle
     cx="51"
     cy="36"
     r="1"
     fill="#333333"
     id="circle42" />
  <circle
     cx="60"
     cy="36"
     r="1"
     fill="#333333"
     id="circle43" />
  <circle
     cx="69"
     cy="36"
     r="1"
     fill="#333333"
     id="circle44" />
  <circle
     cx="78"
     cy="36"
     r="1"
     fill="#333333"
     id="circle45" />
  <circle
     cx="87"
     cy="36"
     r="1"
     fill="#333333"
     id="circle46" />
  <circle
     cx="96"
     cy="36"
     r="1"
     fill="#333333"
     id="circle47" />
  <circle
     cx="105"
     cy="36"
     r="1"
     fill="#333333"
     id="circle48" />
  <!-- Track 1 output jacks -->
  <circle
     cx="127.18198"
     cy="18.994524"
     r="4"
     fill="#1a1a1a"
     stroke="#888888"
     stroke-width="1"
     id="circle49" />
  <circle
     cx="127.18198"
     cy="18.994524"
     fill="#333333"
     id="circle50"
     r="1.5" />
  <path
     d="m 133.40698,18.754387 h 0.31464 q 0.17842,0 0.28565,0.08965 0.10723,0.08965 0.10723,0.246972 0,0.158204 -0.10723,0.253125 -0.10635,0.09404 -0.27949,0.09404 h -0.17666 v 0.556348 h -0.14414 z m 0.14414,0.558106 h 0.15644 q 0.25401,0 0.25401,-0.212696 0,-0.09844 -0.0694,-0.159082 -0.0686,-0.06064 -0.17754,-0.06064 h -0.16347 z m 1.52666,0.682031 H 134.5144 V 19.86884 h 0.21357 v -0.988769 h -0.21357 v -0.125684 h 0.56338 v 0.125684 h -0.20567 v 0.988769 h 0.20567 z m 1.26035,-1.123242 h -0.38233 v 1.123242 h -0.14326 v -1.123242 h -0.38408 v -0.116895 h 0.90967 z"
     id="text50"
     style="font-size:1.8px;font-family:monospace;fill:#888888"
     aria-label="PIT" />
  <circle
     cx="127.18198"
     cy="30.994524"
     r="4"
     fill="#1a1a1a"
     stroke="#888888"
     stroke-width="1"
     id="circle51" />
  <circle
     cx="127.18198"
     cy="30.994524"
     fill="#333333"
     id="circle52"
     r="1.5" />
  <path
     d="m 134.12153,31.906633 q -0.15205,0.111621 -0.33662,0.111621 -0.2417,0 -0.36651,-0.163476 -0.1248,-0.164356 -0.1248,-0.479883 0,-0.30498 0.12041,-0.474609 0.12129,-0.169629 0.3709,-0.169629 0.0896,0 0.17754,0.02285 0.0879,0.02285 0.1415,0.06065 l -0.0475,0.113379 q -0.12393,-0.07031 -0.27158,-0.07031 -0.17051,0 -0.25489,0.124805 -0.0835,0.124805 -0.0835,0.392871 0,0.516797 0.33838,0.516797 0.12744,0 0.19248,-0.05361 v -0.30586 h -0.22325 v -0.124804 h 0.36739 z m 1.17422,0.08789 h -0.15118 l -0.13711,-0.43418 h -0.40693 l -0.13887,0.43418 h -0.14941 l 0.40518,-1.240137 h 0.17314 z m -0.32959,-0.559863 -0.1626,-0.513282 -0.16172,0.513282 z m 1.37197,-0.563379 h -0.38233 v 1.123242 h -0.14326 v -1.123242 h -0.38408 v -0.116895 h 0.90967 z"
     id="text52"
     style="font-size:1.8px;font-family:monospace;fill:#888888"
     aria-label="GAT" />
  <!-- ========== TRACK 2 ========== -->
  <rect
     x="20"
     y="40"
     width="118.97661"
     height="27"
     fill="#222222"
     rx="2.2032704"
     id="rect52"
     style="stroke-width:1.04959" />
  <path
     d="M 27.383057,43.439941 H 26.852051 V 45 h -0.198975 v -1.560059 h -0.533447 v -0.162353 h 1.263428 z M 28.93335,45 H 28.683105 L 28.177734,44.217529 H 27.955566 V 45 h -0.200195 v -1.722412 h 0.487061 q 0.245361,0 0.386963,0.119629 0.142822,0.118408 0.142822,0.33081 0,0.157471 -0.10376,0.280762 -0.10376,0.12207 -0.285645,0.166016 z m -0.977784,-0.957031 h 0.252686 q 0.158691,0 0.257568,-0.08545 0.09888,-0.08667 0.09888,-0.217286 0,-0.288086 -0.351562,-0.288086 H 27.955566 Z M 30.472656,45 h -0.252685 l -0.582276,-0.844727 -0.181884,0.197754 V 45 h -0.200196 v -1.722412 h 0.200196 v 0.825195 l 0.76416,-0.825195 h 0.230713 l -0.672608,0.727539 z m 2.72583,0 h -0.947265 v -0.145264 q 0.360107,-0.401611 0.467529,-0.53833 0.107422,-0.136719 0.174561,-0.286865 0.06714,-0.150146 0.06714,-0.299072 0,-0.144043 -0.08789,-0.227051 -0.08667,-0.08301 -0.244141,-0.08301 -0.12085,0 -0.324707,0.07446 l -0.02808,-0.172119 q 0.184326,-0.07813 0.385742,-0.07813 0.230713,0 0.371094,0.130615 0.141601,0.129395 0.141601,0.34668 0,0.155029 -0.07324,0.307617 -0.07202,0.152588 -0.185547,0.292969 -0.113525,0.140381 -0.441894,0.502929 h 0.725097 z"
     id="text53"
     style="font-weight:bold;font-size:2.5px;font-family:monospace;fill:#ff9900"
     aria-label="TRK 2" />
  <!-- Track 2 vertical controls -->
  <circle
     cx="26"
     cy="51"
     r="2"
     fill="#303030"
     stroke="#404040"
     stroke-width="0.3"
     id="circle53" />
  <circle
     cx="26"
     cy="57"
     r="2"
     fill="#303030"
     stroke="#404040"
     stroke-width="0.3"
     id="circle54" />
  <circle
     cx="26"
     cy="63"
     r="2"
     fill="#303030"
     stroke="#404040"
     stroke-width="0.3"
     id="circle55" />
  <path
     d="m 31.670166,51.080811 q -0.09228,-0.03149 -0.175049,-0.03149 -0.09375,0 -0.153076,0.04321 -0.05859,0.04248 -0.05859,0.121582 0,0.09375 0.154541,0.164795 0.114258,0.05273 0.150879,0.07324 0.03735,0.02051 0.07544,0.0564 0.03809,0.03589 0.06079,0.08496 0.02344,0.04834 0.02344,0.109131 0,0.150879 -0.101806,0.234375 -0.101075,0.08276 -0.23877,0.08276 -0.133301,0 -0.233643,-0.05273 l 0.0249,-0.103271 q 0.11792,0.05347 0.20581,0.05347 0.102539,0 0.164063,-0.05273 0.06226,-0.05347 0.06226,-0.146484 0,-0.06885 -0.04028,-0.116456 -0.04028,-0.04834 -0.148681,-0.09814 -0.111328,-0.05127 -0.144287,-0.06958 -0.03223,-0.01904 -0.06445,-0.052 -0.03223,-0.03296 -0.0498,-0.07397 -0.01758,-0.04102 -0.01758,-0.08936 0,-0.128174 0.09229,-0.199951 0.09228,-0.07178 0.233642,-0.07178 0.103272,0 0.205079,0.03149 z m 1.059814,-0.01685 H 32.411377 V 52 h -0.119385 v -0.936035 h -0.320068 v -0.09741 h 0.758056 z m 0.257813,-0.09741 H 33.25 q 0.148682,0 0.238037,0.07471 0.08936,0.07471 0.08936,0.20581 0,0.131836 -0.08936,0.210938 -0.08862,0.07837 -0.23291,0.07837 H 33.10791 V 52 h -0.120117 z m 0.120117,0.465088 h 0.130371 q 0.21167,0 0.21167,-0.177246 0,-0.08203 -0.05786,-0.132569 -0.05713,-0.05054 -0.147949,-0.05054 H 33.10791 Z"
     id="text55"
     style="font-size:1.5px;font-family:monospace;fill:#666666"
     aria-label="STP" />
  <path
     d="m 31.153076,56.966553 h 0.203613 q 0.202881,0 0.325196,0.138427 0.122314,0.137696 0.122314,0.378663 0,0.246093 -0.124512,0.381591 Q 31.555908,58 31.361816,58 h -0.20874 z m 0.120117,0.928711 h 0.08496 q 0.147217,0 0.23291,-0.109131 0.08569,-0.109131 0.08569,-0.30249 0,-0.191895 -0.08643,-0.301758 -0.08569,-0.110596 -0.232178,-0.110596 h -0.08496 z M 32.579834,58 h -0.469482 v -0.104736 h 0.177978 v -0.823975 h -0.177978 v -0.104736 h 0.469482 v 0.104736 h -0.171387 v 0.823975 h 0.171387 z M 33.657959,56.966553 33.321045,58 h -0.144287 l -0.337647,-1.033447 h 0.125977 l 0.283447,0.894287 0.284912,-0.894287 z"
     id="text56"
     style="font-size:1.5px;font-family:monospace;fill:#666666"
     aria-label="DIV" />
  <path
     d="m 31.153076,62.966553 h 0.203613 q 0.202881,0 0.325196,0.138427 0.122314,0.137696 0.122314,0.378663 0,0.246093 -0.124512,0.381591 Q 31.555908,64 31.361816,64 h -0.20874 z m 0.120117,0.928711 h 0.08496 q 0.147217,0 0.23291,-0.109131 0.08569,-0.109131 0.08569,-0.30249 0,-0.191895 -0.08643,-0.301758 -0.08569,-0.110596 -0.232178,-0.110596 h -0.08496 z M 32.579834,64 h -0.469482 v -0.104736 h 0.177978 v -0.823975 h -0.177978 v -0.104736 h 0.469482 v 0.104736 h -0.171387 v 0.823975 h 0.171387 z m 1.080322,0 H 33.51001 L 33.206787,63.530518 H 33.073486 V 64 h -0.120117 v -1.033447 h 0.292236 q 0.147217,0 0.232178,0.07178 0.08569,0.07104 0.08569,0.198486 0,0.09448 -0.06226,0.168457 -0.06226,0.07324 -0.171387,0.09961 z m -0.58667,-0.574219 h 0.151612 q 0.09521,0 0.154541,-0.05127 0.05933,-0.052 0.05933,-0.130371 0,-0.172852 -0.210938,-0.172852 h -0.154541 z"
     id="text57"
     style="font-size:1.5px;font-family:monospace;fill:#666666"
     aria-label="DIR" />
  <!-- Track 2 pitch knobs -->
  <circle
     cx="42"
     cy="51"
     r="3"
     fill="#303030"
     stroke="#404040"
     stroke-width="0.4"
     id="circle57" />
  <circle
     cx="51"
     cy="51"
     r="3"
     fill="#303030"
     stroke="#404040"
     stroke-width="0.4"
     id="circle58" />
  <circle
     cx="60"
     cy="51"
     r="3"
     fill="#303030"
     stroke="#404040"
     stroke-width="0.4"
     id="circle59" />
  <circle
     cx="69"
     cy="51"
     r="3"
     fill="#303030"
     stroke="#404040"
     stroke-width="0.4"
     id="circle60" />
  <circle
     cx="78"
     cy="51"
     r="3"
     fill="#303030"
     stroke="#404040"
     stroke-width="0.4"
     id="circle61" />
  <circle
     cx="87"
     cy="51"
     r="3"
     fill="#303030"
     stroke="#404040"
     stroke-width="0.4"
     id="circle62" />
  <circle
     cx="96"
     cy="51"
     r="3"
     fill="#303030"
     stroke="#404040"
     stroke-width="0.4"
     id="circle63" />
  <circle
     cx="105"
     cy="51"
     r="3"
     fill="#303030"
     stroke="#404040"
     stroke-width="0.4"
     id="circle64" />
  <!-- Track 2 gate buttons -->
  <circle
     cx="42"
     cy="60"
     r="2.5"
     fill="#cccc00"
     opacity="0.9"
     id="circle65" />
  <circle
     cx="51"
     cy="60"
     r="2.5"
     fill="#cccc00"
     opacity="0.9"
     id="circle66" />
  <circle
     cx="60"
     cy="60"
     r="2.5"
     fill="#cccc00"
     opacity="0.9"
     id="circle67" />
  <circle
     cx="69"
     cy="60"
     r="2.5"
     fill="#cccc00"
     opacity="0.9"
     id="circle68" />
  <circle
     cx="78"
     cy="60"
     r="2.5"
     fill="#cccc00"
     opacity="0.9"
     id="circle69" />
  <circle
     cx="87"
     cy="60"
     r="2.5"
     fill="#cccc00"
     opacity="0.9"
     id="circle70" />
  <circle
     cx="96"
     cy="60"
     r="2.5"
     fill="#cccc00"
     opacity="0.9"
     id="circle71" />
  <circle
     cx="105"
     cy="60"
     r="2.5"
     fill="#cccc00"
     opacity="0.9"
     id="circle72" />
  <!-- Track 2 step LEDs -->
  <circle
     cx="42"
     cy="65"
     r="1"
     fill="#333333"
     id="circle73" />
  <circle
     cx="51"
     cy="65"
     r="1"
     fill="#333333"
     id="circle74" />
  <circle
     cx="60"
     cy="65"
     r="1"
     fill="#333333"
     id="circle75" />
  <circle
     cx="69"
     cy="65"
     r="1"
     fill="#00ff00"
     opacity="0.8"
     id="circle76" />
  <circle
     cx="78"
     cy="65"
     r="1"
     fill="#333333"
     id="circle77" />
  <circle
     cx="87"
     cy="65"
     r="1"
     fill="#333333"
     id="circle78" />
  <circle
     cx="96"
     cy="65"
     r="1"
     fill="#333333"
     id="circle79" />
  <circle
     cx="105"
     cy="65"
     r="1"
     fill="#333333"
     id="circle80" />
  <!-- Track 2 output jacks -->
  <circle
     cx="127.18198"
     cy="47.994522"
     fill="#1a1a1a"
     stroke="#888888"
     stroke-width="1"
     id="circle81"
     r="4" />
  <circle
     cx="127.18198"
     cy="47.994522"
     r="1.5"
     fill="#333333"
     id="circle82" />
  <path
     d="m 133.40698,47.754385 h 0.31464 q 0.17842,0 0.28565,0.08965 0.10723,0.08965 0.10723,0.246972 0,0.158204 -0.10723,0.253125 -0.10635,0.09404 -0.27949,0.09404 h -0.17666 v 0.556348 h -0.14414 z m 0.14414,0.558106 h 0.15644 q 0.25401,0 0.25401,-0.212695 0,-0.09844 -0.0694,-0.159082 -0.0686,-0.06065 -0.17754,-0.06065 h -0.16347 z m 1.52666,0.682031 h -0.56338 v -0.125683 h 0.21357 v -0.98877 h -0.21357 v -0.125684 h 0.56338 v 0.125684 h -0.20567 v 0.98877 h 0.20567 z m 1.26035,-1.123242 h -0.38233 v 1.123242 h -0.14326 V 47.87128 h -0.38408 v -0.116895 h 0.90967 z"
     id="text82"
     style="font-size:1.8px;font-family:monospace;fill:#888888"
     aria-label="PIT" />
  <circle
     cx="127.18198"
     cy="59.994522"
     r="4"
     fill="#1a1a1a"
     stroke="#888888"
     stroke-width="1"
     id="circle83" />
  <circle
     cx="127.18198"
     cy="59.994522"
     r="1.5"
     fill="#333333"
     id="circle84" />
  <path
     d="m 134.12153,60.906631 q -0.15205,0.111622 -0.33662,0.111622 -0.2417,0 -0.36651,-0.163477 -0.1248,-0.164355 -0.1248,-0.479883 0,-0.30498 0.12041,-0.474609 0.12129,-0.169629 0.3709,-0.169629 0.0896,0 0.17754,0.02285 0.0879,0.02285 0.1415,0.06064 l -0.0475,0.113379 q -0.12393,-0.07031 -0.27158,-0.07031 -0.17051,0 -0.25489,0.124805 -0.0835,0.124805 -0.0835,0.392871 0,0.516797 0.33838,0.516797 0.12744,0 0.19248,-0.05361 v -0.30586 h -0.22325 v -0.124804 h 0.36739 z m 1.17422,0.08789 h -0.15118 l -0.13711,-0.43418 h -0.40693 l -0.13887,0.43418 h -0.14941 l 0.40518,-1.240137 h 0.17314 z m -0.32959,-0.559863 -0.1626,-0.513281 -0.16172,0.513281 z m 1.37197,-0.563379 h -0.38233 v 1.123242 h -0.14326 V 59.87128 h -0.38408 v -0.116895 h 0.90967 z"
     id="text84"
     style="font-size:1.8px;font-family:monospace;fill:#888888"
     aria-label="GAT" />
  <!-- ========== TRACK 3 ========== -->
  <rect
     x="20"
     y="69"
     width="118.97661"
     height="27"
     fill="#222222"
     rx="2.2032704"
     id="rect84"
     style="stroke-width:1.04959" />
  <path
     d="M 27.383057,72.439941 H 26.852051 V 74 h -0.198975 v -1.560059 h -0.533447 v -0.162353 h 1.263428 z M 28.93335,74 H 28.683105 L 28.177734,73.217529 H 27.955566 V 74 h -0.200195 v -1.722412 h 0.487061 q 0.245361,0 0.386963,0.119629 0.142822,0.118408 0.142822,0.33081 0,0.157471 -0.10376,0.280762 -0.10376,0.12207 -0.285645,0.166016 z m -0.977784,-0.957031 h 0.252686 q 0.158691,0 0.257568,-0.08545 0.09888,-0.08667 0.09888,-0.217286 0,-0.288086 -0.351562,-0.288086 H 27.955566 Z M 30.472656,74 h -0.252685 l -0.582276,-0.844727 -0.181884,0.197754 V 74 h -0.200196 v -1.722412 h 0.200196 v 0.825195 l 0.76416,-0.825195 h 0.230713 l -0.672608,0.727539 z m 2.385254,-0.925293 q 0.157471,0.04394 0.252686,0.161133 0.09521,0.115967 0.09521,0.26123 0,0.227051 -0.177002,0.38208 -0.177002,0.153809 -0.417481,0.153809 -0.205078,0 -0.367432,-0.09033 l 0.03906,-0.164795 q 0.169678,0.07935 0.335693,0.07935 0.15625,0 0.266114,-0.09644 0.111084,-0.09766 0.111084,-0.250244 0,-0.150146 -0.118409,-0.244141 -0.118408,-0.09399 -0.31372,-0.09399 h -0.05249 v -0.164795 h 0.01465 q 0.187988,0 0.310058,-0.08789 0.122071,-0.08911 0.122071,-0.239258 0,-0.12207 -0.08789,-0.19043 -0.08789,-0.06958 -0.241699,-0.06958 -0.133057,0 -0.297852,0.07202 l -0.02685,-0.17212 q 0.166016,-0.07568 0.334473,-0.07568 0.230712,0 0.379638,0.12207 0.150147,0.12085 0.150147,0.31128 0,0.131835 -0.09155,0.246582 -0.09033,0.113525 -0.218506,0.142822 z"
     id="text85"
     style="font-weight:bold;font-size:2.5px;font-family:monospace;fill:#ff9900"
     aria-label="TRK 3" />
  <!-- Track 3 vertical controls -->
  <circle
     cx="26"
     cy="80"
     r="2"
     fill="#303030"
     stroke="#404040"
     stroke-width="0.3"
     id="circle85" />
  <circle
     cx="26"
     cy="86"
     r="2"
     fill="#303030"
     stroke="#404040"
     stroke-width="0.3"
     id="circle86" />
  <circle
     cx="26"
     cy="92"
     r="2"
     fill="#303030"
     stroke="#404040"
     stroke-width="0.3"
     id="circle87" />
  <path
     d="m 31.670166,80.080811 q -0.09228,-0.03149 -0.175049,-0.03149 -0.09375,0 -0.153076,0.04321 -0.05859,0.04248 -0.05859,0.121582 0,0.09375 0.154541,0.164795 0.114258,0.05273 0.150879,0.07324 0.03735,0.02051 0.07544,0.0564 0.03809,0.03589 0.06079,0.08496 0.02344,0.04834 0.02344,0.109131 0,0.150879 -0.101806,0.234375 -0.101075,0.08276 -0.23877,0.08276 -0.133301,0 -0.233643,-0.05273 l 0.0249,-0.103271 q 0.11792,0.05347 0.20581,0.05347 0.102539,0 0.164063,-0.05273 0.06226,-0.05347 0.06226,-0.146484 0,-0.06885 -0.04028,-0.116456 -0.04028,-0.04834 -0.148681,-0.09814 -0.111328,-0.05127 -0.144287,-0.06958 -0.03223,-0.01904 -0.06445,-0.052 -0.03223,-0.03296 -0.0498,-0.07398 -0.01758,-0.04102 -0.01758,-0.08935 0,-0.128174 0.09229,-0.199951 0.09228,-0.07178 0.233642,-0.07178 0.103272,0 0.205079,0.03149 z m 1.059814,-0.01685 H 32.411377 V 81 h -0.119385 v -0.936035 h -0.320068 v -0.09741 h 0.758056 z m 0.257813,-0.09741 H 33.25 q 0.148682,0 0.238037,0.07471 0.08936,0.07471 0.08936,0.20581 0,0.131836 -0.08936,0.210938 -0.08862,0.07837 -0.23291,0.07837 H 33.10791 V 81 h -0.120117 z m 0.120117,0.465088 h 0.130371 q 0.21167,0 0.21167,-0.177246 0,-0.08203 -0.05786,-0.132569 -0.05713,-0.05054 -0.147949,-0.05054 H 33.10791 Z"
     id="text87"
     style="font-size:1.5px;font-family:monospace;fill:#666666"
     aria-label="STP" />
  <path
     d="m 31.153076,85.966553 h 0.203613 q 0.202881,0 0.325196,0.138427 0.122314,0.137696 0.122314,0.378663 0,0.246093 -0.124512,0.381591 Q 31.555908,87 31.361816,87 h -0.20874 z m 0.120117,0.928711 h 0.08496 q 0.147217,0 0.23291,-0.109131 0.08569,-0.109131 0.08569,-0.30249 0,-0.191895 -0.08643,-0.301758 -0.08569,-0.110596 -0.232178,-0.110596 h -0.08496 z M 32.579834,87 h -0.469482 v -0.104736 h 0.177978 v -0.823975 h -0.177978 v -0.104736 h 0.469482 v 0.104736 h -0.171387 v 0.823975 h 0.171387 z M 33.657959,85.966553 33.321045,87 h -0.144287 l -0.337647,-1.033447 h 0.125977 l 0.283447,0.894287 0.284912,-0.894287 z"
     id="text88"
     style="font-size:1.5px;font-family:monospace;fill:#666666"
     aria-label="DIV" />
  <path
     d="m 31.153076,91.966553 h 0.203613 q 0.202881,0 0.325196,0.138427 0.122314,0.137696 0.122314,0.378663 0,0.246093 -0.124512,0.381591 Q 31.555908,93 31.361816,93 h -0.20874 z m 0.120117,0.928711 h 0.08496 q 0.147217,0 0.23291,-0.109131 0.08569,-0.109131 0.08569,-0.30249 0,-0.191895 -0.08643,-0.301758 -0.08569,-0.110596 -0.232178,-0.110596 h -0.08496 z M 32.579834,93 h -0.469482 v -0.104736 h 0.177978 v -0.823975 h -0.177978 v -0.104736 h 0.469482 v 0.104736 h -0.171387 v 0.823975 h 0.171387 z m 1.080322,0 H 33.51001 L 33.206787,92.530518 H 33.073486 V 93 h -0.120117 v -1.033447 h 0.292236 q 0.147217,0 0.232178,0.07178 0.08569,0.07104 0.08569,0.198486 0,0.09448 -0.06226,0.168457 -0.06226,0.07324 -0.171387,0.09961 z m -0.58667,-0.574219 h 0.151612 q 0.09521,0 0.154541,-0.05127 0.05933,-0.052 0.05933,-0.130371 0,-0.172852 -0.210938,-0.172852 h -0.154541 z"
     id="text89"
     style="font-size:1.5px;font-family:monospace;fill:#666666"
     aria-label="DIR" />
  <!-- Track 3 pitch knobs -->
  <circle
     cx="42"
     cy="80"
     r="3"
     fill="#303030"
     stroke="#404040"
     stroke-width="0.4"
     id="circle89" />
  <circle
     cx="51"
     cy="80"
     r="3"
     fill="#303030"
     stroke="#404040"
     stroke-width="0.4"
     id="circle90" />
  <circle
     cx="60"
     cy="80"
     r="3"
     fill="#303030"
     stroke="#404040"
     stroke-width="0.4"
     id="circle91" />
  <circle
     cx="69"
     cy="80"
     r="3"
     fill="#303030"
     stroke="#404040"
     stroke-width="0.4"
     id="circle92" />
  <circle
     cx="78"
     cy="80"
     r="3"
     fill="#303030"
     stroke="#404040"
     stroke-width="0.4"
     id="circle93" />
  <circle
     cx="87"
     cy="80"
     r="3"
     fill="#303030"
     stroke="#404040"
     stroke-width="0.4"
     id="circle94" />
  <circle
     cx="96"
     cy="80"
     r="3"
     fill="#303030"
     stroke="#404040"
     stroke-width="0.4"
     id="circle95" />
  <circle
     cx="105"
     cy="80"
     r="3"
     fill="#303030"
     stroke="#404040"
     stroke-width="0.4"
     id="circle96" />
  <!-- Track 3 gate buttons -->
  <circle
     cx="42"
     cy="89"
     r="2.5"
     fill="#cccc00"
     opacity="0.9"
     id="circle97" />
  <circle
     cx="51"
     cy="89"
     r="2.5"
     fill="#cccc00"
     opacity="0.9"
     id="circle98" />
  <circle
     cx="60"
     cy="89"
     r="2.5"
     fill="#cccc00"
     opacity="0.9"
     id="circle99" />
  <circle
     cx="69"
     cy="89"
     r="2.5"
     fill="#cccc00"
     opacity="0.9"
     id="circle100" />
  <circle
     cx="78"
     cy="89"
     r="2.5"
     fill="#cccc00"
     opacity="0.9"
     id="circle101" />
  <circle
     cx="87"
     cy="89"
     r="2.5"
     fill="#cccc00"
     opacity="0.9"
     id="circle102" />
  <circle
     cx="96"
     cy="89"
     r="2.5"
     fill="#cccc00"
     opacity="0.9"
     id="circle103" />
  <circle
     cx="105"
     cy="89"
     r="2.5"
     fill="#cccc00"
     opacity="0.9"
     id="circle104" />
  <!-- Track 3 step LEDs -->
  <circle
     cx="42"
     cy="94"
     r="1"
     fill="#333333"
     id="circle105" />
  <circle
     cx="51"
     cy="94"
     r="1"
     fill="#333333"
     id="circle106" />
  <circle
     cx="60"
     cy="94"
     r="1"
     fill="#333333"
     id="circle107" />
  <circle
     cx="69"
     cy="94"
     r="1"
     fill="#333333"
     id="circle108" />
  <circle
     cx="78"
     cy="94"
     r="1"
     fill="#333333"
     id="circle109" />
  <circle
     cx="87"
     cy="94"
     r="1"
     fill="#00ff00"
     opacity="0.8"
     id="circle110" />
  <circle
     cx="96"
     cy="94"
     r="1"
     fill="#333333"
     id="circle111" />
  <circle
     cx="105"
     cy="94"
     r="1"
     fill="#333333"
     id="circle112" />
  <!-- Track 3 output jacks -->
  <circle
     cx="127.18198"
     cy="76.994522"
     r="4"
     fill="#1a1a1a"
     stroke="#888888"
     stroke-width="1"
     id="circle113" />
  <circle
     cx="127.18198"
     cy="76.994522"
     r="1.5"
     fill="#333333"
     id="circle114" />
  <path
     d="m 133.40698,76.754385 h 0.31464 q 0.17842,0 0.28565,0.08965 0.10723,0.08965 0.10723,0.246972 0,0.158204 -0.10723,0.253125 -0.10635,0.09404 -0.27949,0.09404 h -0.17666 v 0.556348 h -0.14414 z m 0.14414,0.558106 h 0.15644 q 0.25401,0 0.25401,-0.212695 0,-0.09844 -0.0694,-0.159082 -0.0686,-0.06064 -0.17754,-0.06064 h -0.16347 z m 1.52666,0.682031 h -0.56338 v -0.125683 h 0.21357 v -0.98877 h -0.21357 v -0.125684 h 0.56338 v 0.125684 h -0.20567 v 0.98877 h 0.20567 z m 1.26035,-1.123242 h -0.38233 v 1.123242 h -0.14326 V 76.87128 h -0.38408 v -0.116895 h 0.90967 z"
     id="text114"
     style="font-size:1.8px;font-family:monospace;fill:#888888"
     aria-label="PIT" />
  <circle
     cx="127.18198"
     cy="88.994522"
     r="4"
     fill="#1a1a1a"
     stroke="#888888"
     stroke-width="1"
     id="circle115" />
  <circle
     cx="127.18198"
     cy="88.994522"
     r="1.5"
     fill="#333333"
     id="circle116" />
  <path
     d="m 134.12153,89.906631 q -0.15205,0.111622 -0.33662,0.111622 -0.2417,0 -0.36651,-0.163477 -0.1248,-0.164355 -0.1248,-0.479883 0,-0.30498 0.12041,-0.474609 0.12129,-0.169629 0.3709,-0.169629 0.0896,0 0.17754,0.02285 0.0879,0.02285 0.1415,0.06064 l -0.0475,0.113379 q -0.12393,-0.07031 -0.27158,-0.07031 -0.17051,0 -0.25489,0.124805 -0.0835,0.124805 -0.0835,0.392871 0,0.516797 0.33838,0.516797 0.12744,0 0.19248,-0.05361 v -0.30586 h -0.22325 v -0.124804 h 0.36739 z m 1.17422,0.08789 h -0.15118 l -0.13711,-0.43418 h -0.40693 l -0.13887,0.43418 h -0.14941 l 0.40518,-1.240137 h 0.17314 z m -0.32959,-0.559863 -0.1626,-0.513281 -0.16172,0.513281 z m 1.37197,-0.563379 h -0.38233 v 1.123242 h -0.14326 V 88.87128 h -0.38408 v -0.116895 h 0.90967 z"
     id="text116"
     style="font-size:1.8px;font-family:monospace;fill:#888888"
     aria-label="GAT" />
  <!-- ========== BOTTOM SECTION ========== -->
  <rect
     x="20"
     y="98"
     width="119.06508"
     height="28"
     fill="#222222"
     rx="2.0180521"
     id="rect116"
     style="stroke-width:1.0045" />
  <!-- GROOVE section -->
  <path
     d="m 29.443359,102.90234 q -0.168945,0.12403 -0.374023,0.12403 -0.268555,0 -0.407227,-0.18164 -0.138672,-0.18262 -0.138672,-0.53321 0,-0.33886 0.13379,-0.52734 0.134765,-0.18848 0.412109,-0.18848 0.09961,0 0.197266,0.0254 0.09766,0.0254 0.157226,0.0674 l -0.05273,0.12597 q -0.137696,-0.0781 -0.301758,-0.0781 -0.189453,0 -0.283203,0.13867 -0.09277,0.13867 -0.09277,0.43652 0,0.57422 0.375977,0.57422 0.141601,0 0.213867,-0.0596 v -0.33984 h -0.248047 v -0.13867 h 0.408203 z M 30.746094,103 h -0.200196 l -0.404296,-0.62598 H 29.963867 V 103 h -0.160156 v -1.37793 h 0.389648 q 0.196289,0 0.309571,0.0957 0.114257,0.0947 0.114257,0.26465 0,0.12598 -0.08301,0.22461 -0.08301,0.0977 -0.228516,0.13281 z m -0.782227,-0.76562 h 0.202149 q 0.126953,0 0.206054,-0.0684 0.0791,-0.0693 0.0791,-0.17383 0,-0.23047 -0.28125,-0.23047 h -0.206055 z m 1.433594,-0.63868 q 0.231445,0 0.352539,0.1836 0.12207,0.18261 0.12207,0.53222 0,0.34766 -0.121093,0.53125 -0.121094,0.1836 -0.353516,0.1836 -0.230469,0 -0.352539,-0.18262 -0.121094,-0.18359 -0.121094,-0.53223 0,-0.34863 0.121094,-0.53222 0.121094,-0.1836 0.352539,-0.1836 z m 0,1.29004 q 0.304687,0 0.304687,-0.57422 0,-0.57519 -0.304687,-0.57519 -0.148438,0 -0.226563,0.14941 -0.07715,0.14844 -0.07715,0.42578 0,0.28028 0.07715,0.42774 0.07715,0.14648 0.226563,0.14648 z m 1.200195,-1.29004 q 0.231446,0 0.352539,0.1836 0.122071,0.18261 0.122071,0.53222 0,0.34766 -0.121094,0.53125 -0.121094,0.1836 -0.353516,0.1836 -0.230469,0 -0.352539,-0.18262 -0.121094,-0.18359 -0.121094,-0.53223 0,-0.34863 0.121094,-0.53222 0.121094,-0.1836 0.352539,-0.1836 z m 0,1.29004 q 0.304688,0 0.304688,-0.57422 0,-0.57519 -0.304688,-0.57519 -0.148437,0 -0.226562,0.14941 -0.07715,0.14844 -0.07715,0.42578 0,0.28028 0.07715,0.42774 0.07715,0.14648 0.226562,0.14648 z M 34.34375,101.62207 33.894531,103 h -0.192383 l -0.450195,-1.37793 h 0.167969 l 0.37793,1.19238 0.379882,-1.19238 z M 35.370117,103 h -0.719726 v -1.37793 h 0.713867 v 0.13965 h -0.553711 v 0.42676 h 0.532226 v 0.13965 h -0.532226 v 0.53222 h 0.55957 z"
     id="text117"
     style="font-weight:bold;font-size:2px;font-family:monospace;text-anchor:middle;fill:#ff9900"
     aria-label="GROOVE" />
  <circle
     cx="27"
     cy="112"
     r="3"
     fill="#303030"
     stroke="#404040"
     stroke-width="0.4"
     id="circle117" />
  <circle
     cx="38"
     cy="112"
     r="3"
     fill="#303030"
     stroke="#404040"
     stroke-width="0.4"
     id="circle118" />
  <path
     d="m 26.319946,119.08081 q -0.09229,-0.0315 -0.175049,-0.0315 -0.09375,0 -0.153076,0.0432 -0.05859,0.0425 -0.05859,0.12158 0,0.0937 0.154541,0.1648 0.114257,0.0527 0.150878,0.0732 0.03735,0.0205 0.07544,0.0564 0.03809,0.0359 0.06079,0.085 0.02344,0.0483 0.02344,0.10913 0,0.15088 -0.101806,0.23437 -0.101074,0.0828 -0.23877,0.0828 -0.133301,0 -0.233642,-0.0527 l 0.0249,-0.10327 q 0.11792,0.0535 0.205811,0.0535 0.102539,0 0.164062,-0.0527 0.06226,-0.0535 0.06226,-0.14648 0,-0.0688 -0.04028,-0.11646 -0.04028,-0.0483 -0.148682,-0.0981 -0.111328,-0.0513 -0.144287,-0.0696 -0.03223,-0.0191 -0.06445,-0.052 -0.03223,-0.033 -0.0498,-0.074 -0.01758,-0.041 -0.01758,-0.0894 0,-0.12818 0.09229,-0.19996 0.09229,-0.0718 0.233643,-0.0718 0.103271,0 0.205078,0.0315 z M 27.418579,118.96655 27.286743,120 H 27.175415 L 26.999634,119.41772 26.824585,120 h -0.114258 l -0.128906,-1.03345 h 0.118652 l 0.08716,0.84009 0.152344,-0.5083 h 0.120117 l 0.153077,0.50977 0.08862,-0.84156 z m 0.814453,0.96021 q -0.126709,0.093 -0.280517,0.093 -0.201416,0 -0.30542,-0.13624 -0.104004,-0.13696 -0.104004,-0.3999 0,-0.25415 0.100342,-0.39551 0.101074,-0.14135 0.309082,-0.14135 0.07471,0 0.147949,0.019 0.07324,0.019 0.11792,0.0505 l -0.03955,0.0945 q -0.103271,-0.0586 -0.226318,-0.0586 -0.14209,0 -0.212403,0.104 -0.06958,0.104 -0.06958,0.32739 0,0.43067 0.281983,0.43067 0.106201,0 0.1604,-0.0447 v -0.25488 H 27.92688 v -0.10401 h 0.306152 z"
     id="text118"
     style="font-size:1.5px;font-family:monospace;text-anchor:middle;fill:#888888"
     aria-label="SWG" />
  <path
     d="m 37.287354,118.96655 h 0.262207 q 0.148681,0 0.238037,0.0747 0.08935,0.0747 0.08935,0.20581 0,0.13184 -0.08935,0.21094 -0.08862,0.0784 -0.232911,0.0784 H 37.407471 V 120 h -0.120117 z m 0.120117,0.46509 h 0.130371 q 0.21167,0 0.21167,-0.17725 0,-0.082 -0.05786,-0.13256 -0.05713,-0.0505 -0.147949,-0.0505 h -0.13623 z M 38.868652,118.96655 38.736816,120 H 38.625488 L 38.449707,119.41772 38.274658,120 H 38.1604 l -0.128906,-1.03345 h 0.118652 l 0.08716,0.84009 0.152343,-0.5083 h 0.120118 l 0.153076,0.50977 0.08862,-0.84156 z"
     id="text119"
     style="font-size:1.5px;font-family:monospace;text-anchor:middle;fill:#888888"
     aria-label="PW" />
  <!-- MOD section -->
  <path
     d="m 53.243652,103 h -0.154297 v -1.18164 l -0.208007,0.56543 H 52.72998 l -0.208007,-0.56543 V 103 h -0.154297 v -1.37793 h 0.208008 l 0.230468,0.62793 0.229493,-0.62793 h 0.208007 z m 0.753907,-1.4043 q 0.231445,0 0.352539,0.1836 0.12207,0.18261 0.12207,0.53222 0,0.34766 -0.121094,0.53125 -0.121094,0.1836 -0.353515,0.1836 -0.230469,0 -0.352539,-0.18262 -0.121094,-0.18359 -0.121094,-0.53223 0,-0.34863 0.121094,-0.53222 0.121093,-0.1836 0.352539,-0.1836 z m 0,1.29004 q 0.304687,0 0.304687,-0.57422 0,-0.57519 -0.304687,-0.57519 -0.148438,0 -0.226563,0.14941 -0.07715,0.14844 -0.07715,0.42578 0,0.28028 0.07715,0.42774 0.07715,0.14648 0.226563,0.14648 z m 0.80664,-1.26367 h 0.271485 q 0.270507,0 0.433593,0.18457 0.163086,0.18359 0.163086,0.50488 0,0.32813 -0.166015,0.50879 Q 55.341309,103 55.08252,103 h -0.278321 z m 0.160156,1.23828 h 0.113282 q 0.196289,0 0.310547,-0.14551 0.114257,-0.1455 0.114257,-0.40332 0,-0.25586 -0.115234,-0.40234 -0.114258,-0.14746 -0.30957,-0.14746 h -0.113282 z"
     id="text120"
     style="font-weight:bold;font-size:2px;font-family:monospace;text-anchor:middle;fill:#ff9900"
     aria-label="MOD" />
  <circle
     cx="50"
     cy="110"
     r="2.5"
     fill="#444444"
     id="circle120" />
  <circle
     cx="50"
     cy="118"
     r="2.5"
     fill="#444444"
     id="circle121" />
  <path
     d="m 55.784424,110.93555 q -0.121582,0.0842 -0.281983,0.0842 -0.200683,0 -0.30542,-0.1377 -0.104003,-0.1377 -0.104003,-0.39844 0,-0.25195 0.101074,-0.39404 0.101074,-0.14282 0.308349,-0.14282 0.07471,0 0.14795,0.019 0.07324,0.019 0.11792,0.0505 l -0.03955,0.0945 q -0.103272,-0.0586 -0.226319,-0.0586 -0.142822,0 -0.212402,0.104 -0.06958,0.10327 -0.06958,0.32739 0,0.43067 0.281982,0.43067 0.119385,0 0.244629,-0.0733 z m 0.303222,-0.969 h 0.262208 q 0.148681,0 0.238037,0.0747 0.08935,0.0747 0.08935,0.20581 0,0.13184 -0.08935,0.21094 -0.08862,0.0784 -0.232911,0.0784 H 56.207764 V 111 h -0.120118 z m 0.120118,0.46509 h 0.130371 q 0.21167,0 0.21167,-0.17725 0,-0.082 -0.05786,-0.13256 -0.05713,-0.0505 -0.147949,-0.0505 h -0.13623 z m 1.426757,-0.46509 -0.322998,0.59107 V 111 h -0.119384 v -0.44238 l -0.322998,-0.59107 h 0.135498 l 0.246826,0.46509 0.247558,-0.46509 z"
     id="text121"
     style="font-size:1.5px;font-family:monospace;fill:#888888"
     aria-label="CPY" />
  <path
     d="m 55.153076,117.96655 h 0.203613 q 0.202881,0 0.325196,0.13843 0.122314,0.1377 0.122314,0.37866 0,0.2461 -0.124512,0.38159 Q 55.555908,119 55.361816,119 h -0.20874 z m 0.120117,0.92871 h 0.08496 q 0.147217,0 0.23291,-0.10913 0.08569,-0.10913 0.08569,-0.30249 0,-0.19189 -0.08643,-0.30176 -0.08569,-0.11059 -0.232178,-0.11059 h -0.08496 z M 56.627441,119 h -0.539795 v -1.03345 h 0.535401 v 0.10474 h -0.415283 v 0.32007 h 0.39917 v 0.10473 h -0.39917 v 0.39917 h 0.419677 z m 0.922852,0 h -0.5625 v -1.03345 h 0.120117 v 0.92871 h 0.442383 z"
     id="text122"
     style="font-size:1.5px;font-family:monospace;fill:#888888"
     aria-label="DEL" />
  <!-- SCV IN jack -->
  <circle
     cx="64"
     cy="114"
     r="4"
     fill="#1a1a1a"
     stroke="#888888"
     stroke-width="1"
     id="circle122" />
  <circle
     cx="64"
     cy="114"
     r="1.5"
     fill="#333333"
     id="circle123" />
  <path
     d="m 63.779541,122 h -0.469482 v -0.10474 h 0.177978 v -0.82397 h -0.177978 v -0.10474 h 0.469482 v 0.10474 h -0.171387 v 0.82397 h 0.171387 z m 0.982178,0 h -0.133301 l -0.370606,-0.81592 V 122 h -0.120117 v -1.03345 h 0.134034 l 0.37207,0.8086 v -0.8086 h 0.11792 z"
     id="text123"
     style="font-size:1.5px;font-family:monospace;text-anchor:middle;fill:#888888"
     aria-label="IN" />
  <!-- SCENES section -->
  <path
     d="m 83.292969,101.77441 q -0.123047,-0.042 -0.233399,-0.042 -0.125,0 -0.204101,0.0576 -0.07813,0.0566 -0.07813,0.16211 0,0.125 0.206054,0.21973 0.152344,0.0703 0.201172,0.0977 0.04981,0.0273 0.100586,0.0752 0.05078,0.0478 0.08106,0.11328 0.03125,0.0644 0.03125,0.14551 0,0.20117 -0.135742,0.3125 -0.134766,0.11035 -0.31836,0.11035 -0.177734,0 -0.311523,-0.0703 l 0.0332,-0.13769 q 0.157227,0.0713 0.274414,0.0713 0.136719,0 0.21875,-0.0703 0.08301,-0.0713 0.08301,-0.19532 0,-0.0918 -0.05371,-0.15527 -0.05371,-0.0644 -0.198242,-0.13086 -0.148438,-0.0684 -0.192383,-0.0928 -0.04297,-0.0254 -0.08594,-0.0693 -0.04297,-0.0439 -0.06641,-0.0986 -0.02344,-0.0547 -0.02344,-0.11914 0,-0.1709 0.123047,-0.2666 0.123046,-0.0957 0.311523,-0.0957 0.137695,0 0.273438,0.042 z m 1.352539,1.13965 q -0.16211,0.11231 -0.375977,0.11231 -0.267578,0 -0.407226,-0.1836 -0.138672,-0.18359 -0.138672,-0.53125 0,-0.33593 0.134765,-0.52539 0.134766,-0.19043 0.411133,-0.19043 0.09961,0 0.197266,0.0254 0.09766,0.0254 0.157226,0.0674 l -0.05273,0.12597 q -0.137695,-0.0781 -0.301758,-0.0781 -0.190429,0 -0.283203,0.13867 -0.09277,0.1377 -0.09277,0.43652 0,0.57422 0.375976,0.57422 0.15918,0 0.326172,-0.0977 z M 85.769531,103 h -0.719726 v -1.37793 h 0.713867 v 0.13965 h -0.553711 v 0.42676 h 0.532226 v 0.13965 h -0.532226 v 0.53222 h 0.55957 z m 1.246094,0 H 86.837891 L 86.34375,101.91211 V 103 h -0.160156 v -1.37793 h 0.178711 l 0.496093,1.07813 v -1.07813 h 0.157227 z m 1.154297,0 h -0.719727 v -1.37793 h 0.713867 v 0.13965 h -0.55371 v 0.42676 h 0.532226 v 0.13965 h -0.532226 v 0.53222 h 0.55957 z m 1.124023,-1.22559 q -0.123047,-0.042 -0.233398,-0.042 -0.125,0 -0.204102,0.0576 -0.07813,0.0566 -0.07813,0.16211 0,0.125 0.206055,0.21973 0.152344,0.0703 0.201172,0.0977 0.04981,0.0273 0.100586,0.0752 0.05078,0.0478 0.08105,0.11328 0.03125,0.0644 0.03125,0.14551 0,0.20117 -0.135742,0.3125 -0.134765,0.11035 -0.318359,0.11035 -0.177734,0 -0.311524,-0.0703 l 0.0332,-0.13769 q 0.157226,0.0713 0.274414,0.0713 0.136718,0 0.21875,-0.0703 0.08301,-0.0713 0.08301,-0.19532 0,-0.0918 -0.05371,-0.15527 -0.05371,-0.0644 -0.198243,-0.13086 -0.148437,-0.0684 -0.192382,-0.0928 -0.04297,-0.0254 -0.08594,-0.0693 -0.04297,-0.0439 -0.06641,-0.0986 -0.02344,-0.0547 -0.02344,-0.11914 0,-0.1709 0.123047,-0.2666 0.123047,-0.0957 0.311524,-0.0957 0.137695,0 0.273437,0.042 z"
     id="text124"
     style="font-weight:bold;font-size:2px;font-family:monospace;text-anchor:middle;fill:#ff9900"
     aria-label="SCENES" />
  <!-- Scene buttons row 1 -->
  <circle
     cx="74"
     cy="110"
     r="2.5"
     fill="#00ffaa"
     opacity="0.8"
     id="circle124" />
  <circle
     cx="82"
     cy="110"
     r="2.5"
     fill="#4488ff"
     id="circle125" />
  <circle
     cx="90"
     cy="110"
     r="2.5"
     fill="#4488ff"
     id="circle126" />
  <circle
     cx="98"
     cy="110"
     r="2.5"
     fill="#4488ff"
     id="circle127" />
  <!-- Scene buttons row 2 -->
  <circle
     cx="74"
     cy="118"
     r="2.5"
     fill="#4488ff"
     id="circle128" />
  <circle
     cx="82"
     cy="118"
     r="2.5"
     fill="#4488ff"
     id="circle129" />
  <circle
     cx="90"
     cy="118"
     r="2.5"
     fill="#4488ff"
     id="circle130" />
  <circle
     cx="98"
     cy="118"
     r="2.5"
     fill="#4488ff"
     id="circle131" />
  <!-- OUTPUTS section -->
  <path
     d="m 118.19727,101.5957 q 0.23144,0 0.35253,0.1836 0.12208,0.18261 0.12208,0.53222 0,0.34766 -0.1211,0.53125 -0.12109,0.1836 -0.35351,0.1836 -0.23047,0 -0.35254,-0.18262 -0.1211,-0.18359 -0.1211,-0.53223 0,-0.34863 0.1211,-0.53222 0.12109,-0.1836 0.35254,-0.1836 z m 0,1.29004 q 0.30468,0 0.30468,-0.57422 0,-0.57519 -0.30468,-0.57519 -0.14844,0 -0.22657,0.14941 -0.0771,0.14844 -0.0771,0.42578 0,0.28028 0.0771,0.42774 0.0772,0.14648 0.22657,0.14648 z m 1.59863,-0.31933 q 0,0.23925 -0.0977,0.34961 -0.0967,0.11035 -0.29492,0.11035 -0.39941,0 -0.39941,-0.45606 v -0.94824 h 0.16015 v 0.93359 q 0,0.33008 0.23926,0.33008 0.12012,0 0.17578,-0.0781 0.0566,-0.0781 0.0566,-0.25391 v -0.93164 h 0.16016 z m 1.31055,-0.81446 h -0.42481 V 103 h -0.15918 v -1.24805 h -0.42676 v -0.12988 h 1.01075 z m 0.9873,0.0225 q -0.12305,-0.042 -0.2334,-0.042 -0.125,0 -0.2041,0.0576 -0.0781,0.0566 -0.0781,0.16211 0,0.125 0.20605,0.21973 0.15234,0.0703 0.20117,0.0977 0.0498,0.0273 0.10059,0.0752 0.0508,0.0478 0.0811,0.11328 0.0312,0.0644 0.0312,0.14551 0,0.20117 -0.13574,0.3125 -0.13477,0.11035 -0.31836,0.11035 -0.17773,0 -0.31152,-0.0703 l 0.0332,-0.13769 q 0.15723,0.0713 0.27441,0.0713 0.13672,0 0.21875,-0.0703 0.083,-0.0713 0.083,-0.19532 0,-0.0918 -0.0537,-0.15527 -0.0537,-0.0644 -0.19824,-0.13086 -0.14844,-0.0684 -0.19238,-0.0928 -0.043,-0.0254 -0.0859,-0.0693 -0.043,-0.0439 -0.0664,-0.0986 -0.0234,-0.0547 -0.0234,-0.11914 0,-0.1709 0.12304,-0.2666 0.12305,-0.0957 0.31153,-0.0957 0.13769,0 0.27343,0.042 z"
     id="text131"
     style="font-weight:bold;font-size:2px;font-family:monospace;text-anchor:middle;fill:#ff9900"
     aria-label="OUTS" />
  <!-- CLK OUT jack -->
  <circle
     cx="112"
     cy="111"
     r="4"
     fill="#1a1a1a"
     stroke="#888888"
     stroke-width="1"
     id="circle132" />
  <circle
     cx="112"
     cy="111"
     r="1.5"
     fill="#333333"
     id="circle133" />
  <path
     d="m 111.4342,118.93555 q -0.12158,0.0842 -0.28198,0.0842 -0.20068,0 -0.30542,-0.1377 -0.104,-0.1377 -0.104,-0.39844 0,-0.25195 0.10107,-0.39404 0.10108,-0.14282 0.30835,-0.14282 0.0747,0 0.14795,0.019 0.0732,0.019 0.11792,0.0505 l -0.0396,0.0945 q -0.10327,-0.0586 -0.22632,-0.0586 -0.14282,0 -0.2124,0.104 -0.0696,0.10327 -0.0696,0.32739 0,0.43067 0.28198,0.43067 0.11939,0 0.24463,-0.0733 z M 112.29993,119 h -0.5625 v -1.03345 h 0.12011 v 0.92871 h 0.44239 z m 1.03344,0 h -0.15161 l -0.34936,-0.50684 -0.10913,0.11866 V 119 h -0.12012 v -1.03345 h 0.12012 v 0.49512 l 0.45849,-0.49512 h 0.13843 l -0.40356,0.43653 z"
     id="text133"
     style="font-size:1.5px;font-family:monospace;text-anchor:middle;fill:#888888"
     aria-label="CLK" />
  <!-- RST OUT jack -->
  <circle
     cx="124"
     cy="111"
     r="4"
     fill="#1a1a1a"
     stroke="#888888"
     stroke-width="1"
     id="circle134" />
  <circle
     cx="124"
     cy="111"
     r="1.5"
     fill="#333333"
     id="circle135" />
  <path
     d="m 123.50964,119 h -0.15014 l -0.30323,-0.46948 h -0.1333 V 119 h -0.12011 v -1.03345 h 0.29223 q 0.14722,0 0.23218,0.0718 0.0857,0.071 0.0857,0.19849 0,0.0945 -0.0622,0.16845 -0.0623,0.0733 -0.17139,0.0996 z m -0.58667,-0.57422 h 0.15161 q 0.0952,0 0.15455,-0.0513 0.0593,-0.052 0.0593,-0.13037 0,-0.17285 -0.21094,-0.17285 h -0.15454 z m 1.29712,-0.34497 q -0.0923,-0.0315 -0.17505,-0.0315 -0.0937,0 -0.15307,0.0432 -0.0586,0.0425 -0.0586,0.12158 0,0.0937 0.15455,0.1648 0.11425,0.0527 0.15087,0.0732 0.0374,0.0205 0.0754,0.0564 0.0381,0.0359 0.0608,0.085 0.0234,0.0483 0.0234,0.10913 0,0.15088 -0.1018,0.23437 -0.10108,0.0828 -0.23877,0.0828 -0.13331,0 -0.23365,-0.0527 l 0.0249,-0.10327 q 0.11792,0.0535 0.20581,0.0535 0.10254,0 0.16406,-0.0527 0.0622,-0.0535 0.0622,-0.14648 0,-0.0688 -0.0403,-0.11646 -0.0403,-0.0483 -0.14868,-0.0981 -0.11133,-0.0513 -0.14429,-0.0696 -0.0322,-0.0191 -0.0645,-0.052 -0.0322,-0.033 -0.0498,-0.074 -0.0176,-0.041 -0.0176,-0.0894 0,-0.12818 0.0923,-0.19996 0.0923,-0.0718 0.23364,-0.0718 0.10328,0 0.20508,0.0315 z m 1.05982,-0.0169 H 124.9613 V 119 h -0.11938 v -0.93604 h -0.32007 v -0.0974 h 0.75806 z"
     id="text135"
     style="font-size:1.5px;font-family:monospace;text-anchor:middle;fill:#888888"
     aria-label="RST" />
  <!-- SCV OUT jack -->
  <circle
     cx="134"
     cy="111"
     r="4"
     fill="#1a1a1a"
     stroke="#888888"
     stroke-width="1"
     id="circle136" />
  <circle
     cx="134"
     cy="111"
     r="1.5"
     fill="#333333"
     id="circle137" />
  <path
     d="m 133.31995,118.08081 q -0.0923,-0.0315 -0.17505,-0.0315 -0.0937,0 -0.15308,0.0432 -0.0586,0.0425 -0.0586,0.12158 0,0.0937 0.15454,0.1648 0.11426,0.0527 0.15088,0.0732 0.0374,0.0205 0.0754,0.0564 0.0381,0.0359 0.0608,0.085 0.0234,0.0483 0.0234,0.10913 0,0.15088 -0.10181,0.23437 -0.10108,0.0828 -0.23877,0.0828 -0.1333,0 -0.23364,-0.0527 l 0.0249,-0.10327 q 0.11792,0.0535 0.20581,0.0535 0.10254,0 0.16406,-0.0527 0.0623,-0.0535 0.0623,-0.14648 0,-0.0688 -0.0403,-0.11646 -0.0403,-0.0483 -0.14868,-0.0981 -0.11133,-0.0513 -0.14428,-0.0696 -0.0322,-0.0191 -0.0645,-0.052 -0.0322,-0.033 -0.0498,-0.074 -0.0176,-0.041 -0.0176,-0.0894 0,-0.12818 0.0923,-0.19996 0.0923,-0.0718 0.23364,-0.0718 0.10327,0 0.20508,0.0315 z m 1.0144,0.85474 q -0.12158,0.0842 -0.28198,0.0842 -0.20069,0 -0.30542,-0.1377 -0.10401,-0.1377 -0.10401,-0.39844 0,-0.25195 0.10108,-0.39404 0.10107,-0.14282 0.30835,-0.14282 0.0747,0 0.14795,0.019 0.0732,0.019 0.11792,0.0505 l -0.0395,0.0945 q -0.10327,-0.0586 -0.22632,-0.0586 -0.14282,0 -0.2124,0.104 -0.0696,0.10327 -0.0696,0.32739 0,0.43067 0.28198,0.43067 0.11938,0 0.24463,-0.0733 z m 0.97339,-0.969 L 134.97083,119 h -0.14429 l -0.33765,-1.03345 h 0.12598 l 0.28345,0.89429 0.28491,-0.89429 z"
     id="text137"
     style="font-size:1.5px;font-family:monospace;text-anchor:middle;fill:#888888"
     aria-label="SCV" />
</svg>
