<?xml version="1.0" encoding="UTF-8" standalone="no"?>
<svg
   width="121.92mm"
   height="128.5mm"
   viewBox="0 0 121.92 128.5"
   version="1.1"
   id="svg46"
   xmlns="http://www.w3.org/2000/svg"
   xmlns:svg="http://www.w3.org/2000/svg">
  <defs
     id="defs46" />
  <!-- Panel background - 24 HP wide (121.92mm) -->
  <rect
     width="121.92"
     height="128.5"
     fill="#1a1a1a"
     id="rect1" />
  <!-- Title bar -->
  <rect
     x="30"
     y="2"
     width="62"
     height="7"
     fill="#333333"
     rx="1"
     id="rect2" />
  <path
     d="m 52.168739,3.7424316 q -0.276855,-0.094482 -0.525146,-0.094482 -0.28125,0 -0.459229,0.1296387 -0.175781,0.1274414 -0.175781,0.3647461 0,0.28125 0.463623,0.4943847 0.342774,0.1582032 0.452637,0.2197266 0.11206,0.061523 0.226318,0.1691895 0.114258,0.107666 0.182373,0.2548828 0.07031,0.1450195 0.07031,0.3273926 0,0.4526367 -0.30542,0.703125 -0.303223,0.248291 -0.716309,0.248291 -0.399902,0 -0.700928,-0.1582032 l 0.07471,-0.3098144 q 0.353759,0.1604004 0.617431,0.1604004 0.307617,0 0.492188,-0.1582031 0.186767,-0.1604004 0.186767,-0.4394532 0,-0.2065429 -0.120849,-0.3493652 Q 51.810585,5.159668 51.48539,5.0102539 51.151405,4.8564453 51.052528,4.8015137 50.955849,4.7443848 50.859169,4.6455078 50.762489,4.5466309 50.709755,4.423584 q -0.05273,-0.1230469 -0.05273,-0.2680664 0,-0.3845215 0.276855,-0.5998535 0.276856,-0.2153321 0.700928,-0.2153321 0.309814,0 0.615234,0.094482 z M 55.040565,6.5 H 53.421181 V 3.3996582 h 1.606201 v 0.314209 h -1.24585 v 0.9602051 h 1.19751 v 0.3142089 h -1.19751 V 6.185791 h 1.259033 z m 2.803711,0 H 57.444374 L 56.332558,4.0522461 V 6.5 H 55.972206 V 3.3996582 h 0.4021 l 1.116211,2.4257813 V 3.3996582 h 0.353759 z m 2.764161,-0.2197266 q -0.380127,0.2790528 -0.841553,0.2790528 -0.604248,0 -0.91626,-0.4086914 -0.312012,-0.4108887 -0.312012,-1.1997071 0,-0.7624511 0.301026,-1.1865234 0.303222,-0.4240723 0.927246,-0.4240723 0.224121,0 0.443848,0.057129 0.219726,0.057129 0.353759,0.1516114 l -0.118652,0.2834472 q -0.309815,-0.1757812 -0.678955,-0.1757812 -0.42627,0 -0.637207,0.3120117 -0.20874,0.3120117 -0.20874,0.9821777 0,1.2919922 0.845947,1.2919922 0.318603,0 0.481201,-0.1340332 V 5.3442383 H 59.68998 V 5.0322266 h 0.918457 z m 2.074218,-1.480957 q 0.309815,0.07251 0.485596,0.28125 0.175781,0.2087402 0.175781,0.496582 0,0.421875 -0.307617,0.6723633 Q 62.730995,6.5 62.300331,6.5 H 61.419228 V 3.3996582 h 0.85913 q 0.448243,0 0.700928,0.1977539 0.252686,0.1955567 0.252686,0.5537109 0,0.2197266 -0.147217,0.3911133 -0.14502,0.1713867 -0.4021,0.248291 z M 61.779579,4.6323242 h 0.421875 q 0.661377,0 0.661377,-0.4724121 0,-0.215332 -0.162598,-0.3295898 -0.162597,-0.1164551 -0.476806,-0.1164551 h -0.443848 z m 0,1.5534668 h 0.408692 q 0.358154,0 0.566894,-0.1625976 0.210938,-0.1625977 0.210938,-0.446045 0,-0.3010254 -0.206543,-0.4658203 Q 62.553017,4.9465332 62.161903,4.9465332 H 61.779579 Z M 66.244423,6.5 h -0.37793 L 65.52372,5.4145508 H 64.506386 L 64.159218,6.5 h -0.373535 l 1.012939,-3.1003418 h 0.432861 z M 65.420448,5.1003418 65.013954,3.8171387 64.609657,5.1003418 Z M 68.940468,6.5 h -0.45044 L 67.58036,5.0915527 H 67.180458 V 6.5 H 66.820107 V 3.3996582 h 0.876708 q 0.441651,0 0.696534,0.215332 0.25708,0.2131348 0.25708,0.595459 0,0.2834473 -0.186768,0.5053711 -0.186767,0.2197266 -0.51416,0.2988281 z m -1.76001,-1.7226563 h 0.454834 q 0.285645,0 0.463623,-0.1538085 0.177979,-0.1560059 0.177979,-0.3911133 0,-0.5185547 -0.632813,-0.5185547 h -0.463623 z m 2.340088,-1.3776855 h 0.61084 q 0.608642,0 0.975586,0.4152832 0.366943,0.4130859 0.366943,1.1359863 0,0.7382813 -0.373535,1.1447754 Q 70.729042,6.5 70.146767,6.5 h -0.626221 z m 0.360352,2.7861328 h 0.254882 q 0.441651,0 0.698731,-0.3273926 0.25708,-0.3273925 0.25708,-0.9074707 0,-0.5756836 -0.259277,-0.9052734 Q 70.575233,3.7138672 70.13578,3.7138672 h -0.254882 z"
     id="text2"
     style="font-weight:bold;font-size:4.5px;font-family:monospace;text-anchor:middle;fill:#ffffff"
     aria-label="SENGBARD" />
  <!-- ========== TRACK 1 ========== -->
  <rect
     x="3"
     y="11"
     width="116"
     height="27"
     fill="#222222"
     rx="2"
     id="rect3" />
  <path
     d="M 6.9362793,13.815918 H 6.1928711 V 16 H 5.9143066 V 13.815918 H 5.1674805 V 13.588623 H 6.9362793 Z M 9.1066895,16 H 8.7563477 L 8.0488281,14.904541 H 7.737793 V 16 H 7.4575195 v -2.411377 h 0.6818848 q 0.3435059,0 0.541748,0.167481 0.1999512,0.165771 0.1999512,0.463134 0,0.220459 -0.1452637,0.393067 -0.1452636,0.170898 -0.3999023,0.232422 z M 7.737793,14.660156 h 0.3537597 q 0.222168,0 0.3605957,-0.119629 0.1384278,-0.121338 0.1384278,-0.304199 0,-0.40332 -0.4921875,-0.40332 H 7.737793 Z M 11.261719,16 h -0.35376 L 10.092773,14.817383 9.8381348,15.094238 V 16 H 9.5578613 v -2.411377 h 0.2802735 v 1.155273 l 1.0698242,-1.155273 h 0.322998 l -0.94165,1.018555 z m 3.879394,0 h -1.268066 v -0.244385 h 0.510986 V 13.882568 L 13.9021,14.123535 v -0.280273 l 0.52124,-0.268311 h 0.240967 v 2.180664 h 0.476806 z"
     id="text3"
     style="font-weight:bold;font-size:3.5px;font-family:monospace;fill:#ff9900"
     aria-label="TRK 1" />
  <!-- Track 1 control labels - moved down -->
  <path
     d="m 8.8935547,35.274414 q -0.1230469,-0.04199 -0.2333984,-0.04199 -0.125,0 -0.2041016,0.05762 -0.078125,0.05664 -0.078125,0.162109 0,0.125 0.2060547,0.219727 0.1523437,0.07031 0.2011719,0.09766 0.049805,0.02734 0.1005859,0.0752 0.050781,0.04785 0.081055,0.113281 0.03125,0.06445 0.03125,0.145508 0,0.201171 -0.1357422,0.3125 -0.1347656,0.110351 -0.3183594,0.110351 -0.1777344,0 -0.3115234,-0.07031 l 0.033203,-0.137696 q 0.1572266,0.07129 0.2744141,0.07129 0.1367187,0 0.21875,-0.07031 0.083008,-0.07129 0.083008,-0.195313 0,-0.0918 -0.053711,-0.155273 -0.053711,-0.06445 -0.1982421,-0.130859 -0.1484375,-0.06836 -0.1923829,-0.09277 -0.042969,-0.02539 -0.085937,-0.06934 -0.042969,-0.04395 -0.066406,-0.09863 -0.023437,-0.05469 -0.023437,-0.11914 0,-0.170899 0.1230469,-0.266602 0.1230468,-0.0957 0.3115234,-0.0957 0.1376953,0 0.2734375,0.04199 z m 1.4130863,-0.02246 H 9.8818359 V 36.5 H 9.7226563 V 35.251953 H 9.2958984 V 35.12207 h 1.0107426 z m 0.34375,-0.129883 H 11 q 0.198242,0 0.317383,0.09961 0.11914,0.09961 0.11914,0.274414 0,0.175781 -0.11914,0.28125 -0.118164,0.104492 -0.310547,0.104492 H 10.810547 V 36.5 h -0.160156 z m 0.160156,0.620117 h 0.173828 q 0.282227,0 0.282227,-0.236328 0,-0.109375 -0.07715,-0.176757 -0.07617,-0.06738 -0.197265,-0.06738 h -0.181641 z"
     id="text4"
     style="font-size:2px;font-family:monospace;fill:#888888"
     aria-label="STP" />
  <path
     d="m 18.204102,35.12207 h 0.271484 q 0.270508,0 0.433594,0.184571 0.163086,0.183593 0.163086,0.504882 0,0.328125 -0.166016,0.508789 Q 18.741211,36.5 18.482422,36.5 h -0.27832 z m 0.160156,1.238282 h 0.113281 q 0.196289,0 0.310547,-0.145508 0.114258,-0.145508 0.114258,-0.403321 0,-0.255859 -0.115235,-0.402343 -0.114257,-0.147461 -0.30957,-0.147461 H 18.364258 Z M 20.106445,36.5 h -0.625976 v -0.139648 h 0.237304 V 35.261719 H 19.480469 V 35.12207 h 0.625976 v 0.139649 H 19.87793 v 1.098633 h 0.228515 z m 1.4375,-1.37793 L 21.094727,36.5 h -0.192383 l -0.450196,-1.37793 h 0.167969 l 0.37793,1.192383 0.379883,-1.192383 z"
     id="text5"
     style="font-size:2px;font-family:monospace;fill:#888888"
     aria-label="DIV" />
  <path
     d="m 28.204102,35.12207 h 0.271484 q 0.270508,0 0.433594,0.184571 0.163086,0.183593 0.163086,0.504882 0,0.328125 -0.166016,0.508789 Q 28.741211,36.5 28.482422,36.5 h -0.27832 z m 0.160156,1.238282 h 0.113281 q 0.196289,0 0.310547,-0.145508 0.114258,-0.145508 0.114258,-0.403321 0,-0.255859 -0.115235,-0.402343 -0.114257,-0.147461 -0.30957,-0.147461 H 28.364258 Z M 30.106445,36.5 h -0.625976 v -0.139648 h 0.237304 V 35.261719 H 29.480469 V 35.12207 h 0.625976 v 0.139649 H 29.87793 v 1.098633 h 0.228515 z m 1.44043,0 H 31.34668 L 30.942383,35.874023 H 30.764648 V 36.5 h -0.160156 v -1.37793 h 0.389649 q 0.196289,0 0.30957,0.0957 0.114258,0.09473 0.114258,0.264649 0,0.125976 -0.08301,0.224609 -0.08301,0.09766 -0.228516,0.132813 z m -0.782227,-0.765625 h 0.202149 q 0.126953,0 0.206055,-0.06836 0.0791,-0.06934 0.0791,-0.173829 0,-0.230468 -0.28125,-0.230468 h -0.206055 z"
     id="text6"
     style="font-size:2px;font-family:monospace;fill:#888888"
     aria-label="DIR" />
  <!-- Track 1 step numbers -->
  <path
     d="m 40.994141,14 h -0.72461 v -0.139648 h 0.291992 v -1.070313 l -0.27539,0.137695 v -0.160156 l 0.297851,-0.15332 h 0.137696 v 1.246094 h 0.272461 z"
     id="text7"
     style="font-size:2px;font-family:monospace;fill:#888888"
     aria-label="1" />
  <path
     d="m 48.958008,14 h -0.757813 v -0.116211 q 0.288086,-0.321289 0.374024,-0.430664 0.08594,-0.109375 0.139648,-0.229492 0.05371,-0.120117 0.05371,-0.239258 0,-0.115234 -0.07031,-0.181641 -0.06934,-0.06641 -0.195313,-0.06641 -0.09668,0 -0.259766,0.05957 l -0.02246,-0.137695 q 0.14746,-0.0625 0.308593,-0.0625 0.184571,0 0.296875,0.104492 0.113282,0.103516 0.113282,0.277344 0,0.124024 -0.05859,0.246094 -0.05762,0.12207 -0.148438,0.234375 -0.09082,0.112305 -0.353515,0.402344 h 0.580078 z"
     id="text8"
     style="font-size:2px;font-family:monospace;fill:#888888"
     aria-label="2" />
  <path
     d="m 56.685547,13.259766 q 0.125976,0.03516 0.202148,0.128906 0.07617,0.09277 0.07617,0.208984 0,0.181641 -0.141601,0.305664 -0.141602,0.123047 -0.333985,0.123047 -0.164062,0 -0.293945,-0.07226 l 0.03125,-0.131836 q 0.135742,0.06348 0.268555,0.06348 0.125,0 0.21289,-0.07715 0.08887,-0.07813 0.08887,-0.200196 0,-0.120117 -0.09473,-0.195312 -0.09473,-0.07519 -0.250977,-0.07519 h -0.04199 v -0.131836 h 0.01172 q 0.15039,0 0.248047,-0.07031 0.09766,-0.07129 0.09766,-0.191406 0,-0.09766 -0.07031,-0.152344 -0.07031,-0.05566 -0.193359,-0.05566 -0.106445,0 -0.238281,0.05762 l -0.02148,-0.137695 q 0.132813,-0.06055 0.267579,-0.06055 0.18457,0 0.303711,0.09766 0.120117,0.09668 0.120117,0.249024 0,0.105469 -0.07324,0.197265 -0.07227,0.09082 -0.174805,0.114258 z"
     id="text9"
     style="font-size:2px;font-family:monospace;fill:#888888"
     aria-label="3" />
  <path
     d="M 65.047852,13.681641 H 64.87793 V 14 H 64.717773 V 13.681641 H 64.118164 V 13.55957 l 0.543945,-0.9375 h 0.215821 v 0.919922 h 0.169922 z m -0.330079,-0.139649 v -0.761719 l -0.4375,0.761719 z"
     id="text10"
     style="font-size:2px;font-family:monospace;fill:#888888"
     aria-label="4" />
  <path
     d="m 72.423828,13.177734 q 0.06641,-0.01758 0.129883,-0.01758 0.195312,0 0.308594,0.120117 0.113281,0.119141 0.113281,0.297852 0,0.1875 -0.131836,0.318359 -0.131836,0.129883 -0.321289,0.129883 -0.180664,0 -0.302734,-0.06055 l 0.03223,-0.135742 q 0.132813,0.05566 0.274414,0.05566 0.125977,0 0.203125,-0.08105 0.07813,-0.08106 0.07813,-0.226563 0,-0.137695 -0.07324,-0.211914 -0.07324,-0.07422 -0.188477,-0.07422 -0.08398,0 -0.166015,0.03223 l -0.0957,-0.04395 V 12.62207 h 0.629882 v 0.139649 h -0.490234 z"
     id="text11"
     style="font-size:2px;font-family:monospace;fill:#888888"
     aria-label="5" />
  <path
     d="m 80.353516,13.282227 q 0.128906,-0.104493 0.280273,-0.104493 0.174805,0 0.291016,0.112305 0.117187,0.111328 0.117187,0.288086 0,0.194336 -0.103515,0.321289 -0.103516,0.126953 -0.276368,0.126953 -0.220703,0 -0.349609,-0.202148 -0.128906,-0.203125 -0.128906,-0.496094 0,-0.3125 0.133789,-0.522461 0.134765,-0.209961 0.368164,-0.209961 0.161133,0 0.27832,0.04785 l -0.02539,0.142578 q -0.135743,-0.0498 -0.248047,-0.0498 -0.15918,0 -0.248047,0.152344 -0.08887,0.152344 -0.08887,0.393555 z m 0.0049,0.137695 q 0,0.176758 0.08301,0.321289 0.08301,0.144531 0.208985,0.144531 0.106445,0 0.164062,-0.07813 0.05762,-0.07813 0.05762,-0.21582 0,-0.126953 -0.06348,-0.200195 -0.06348,-0.07324 -0.178711,-0.07324 -0.149414,0 -0.271485,0.101563 z"
     id="text12"
     style="font-size:2px;font-family:monospace;fill:#888888"
     aria-label="6" />
  <path
     d="M 89.011719,12.736328 88.46582,14 h -0.164062 l 0.538086,-1.238281 H 88.194336 V 12.62207 h 0.817383 z"
     id="text13"
     style="font-size:2px;font-family:monospace;fill:#888888"
     aria-label="7" />
  <path
     d="m 96.738281,13.244141 q 0.140625,0.04101 0.217774,0.139648 0.07813,0.09863 0.07813,0.230469 0,0.189453 -0.125977,0.300781 -0.125,0.111328 -0.308594,0.111328 -0.192382,0 -0.316406,-0.112304 -0.123047,-0.112305 -0.123047,-0.297852 0,-0.130859 0.08008,-0.230469 0.08008,-0.09961 0.223633,-0.141601 -0.114258,-0.0293 -0.183594,-0.112305 -0.06836,-0.08398 -0.06836,-0.1875 0,-0.132813 0.105469,-0.240234 0.105469,-0.108399 0.27832,-0.108399 0.170899,0 0.282227,0.107422 0.112304,0.107422 0.112304,0.241211 0,0.100586 -0.07031,0.185547 -0.07031,0.08398 -0.181641,0.114258 z m -0.142578,-0.06641 q 0.0049,0 0.04687,-0.01172 0.04199,-0.01172 0.07129,-0.02832 0.03027,-0.01758 0.05566,-0.04395 0.02539,-0.02637 0.04102,-0.06152 0.01563,-0.03613 0.01563,-0.08008 0,-0.09375 -0.06738,-0.155273 -0.06738,-0.0625 -0.163086,-0.0625 -0.09277,0 -0.15918,0.06348 -0.06641,0.06348 -0.06641,0.154296 0,0.05762 0.02344,0.100586 0.02441,0.04297 0.05957,0.06934 0.03613,0.02637 0.08203,0.04102 0.04687,0.01465 0.06055,0.01465 z m 0,0.136719 q -0.267578,0.07813 -0.267578,0.293945 0,0.125977 0.08106,0.202149 0.08105,0.0752 0.190429,0.0752 0.113282,0 0.19043,-0.07422 0.07813,-0.07519 0.07813,-0.203125 0,-0.09668 -0.05371,-0.172851 -0.05371,-0.07715 -0.21875,-0.121094 z"
     id="text14"
     style="font-size:2px;font-family:monospace;fill:#888888"
     aria-label="8" />
  <!-- Track 1 output labels - moved left -->
  <path
     d="m 102.25,15.62207 h 0.34961 q 0.19824,0 0.31738,0.09961 0.11914,0.09961 0.11914,0.274414 0,0.175781 -0.11914,0.28125 -0.11816,0.104492 -0.31054,0.104492 h -0.19629 V 17 H 102.25 Z m 0.16016,0.620117 h 0.17382 q 0.28223,0 0.28223,-0.236328 0,-0.109375 -0.0771,-0.176757 -0.0762,-0.06738 -0.19726,-0.06738 h -0.18164 z M 104.10645,17 h -0.62598 v -0.139648 h 0.2373 v -1.098633 h -0.2373 V 15.62207 h 0.62598 v 0.139649 h -0.22852 v 1.098633 h 0.22852 z m 1.40039,-1.248047 h -0.42481 V 17 h -0.15918 v -1.248047 h -0.42676 V 15.62207 h 1.01075 z"
     id="text15"
     style="font-size:2px;font-family:monospace;fill:#888888"
     aria-label="PIT" />
  <path
     d="m 103.04395,35.902344 q -0.16895,0.124023 -0.37403,0.124023 -0.26855,0 -0.40722,-0.18164 -0.13868,-0.182618 -0.13868,-0.533204 0,-0.338867 0.13379,-0.527343 0.13477,-0.188477 0.41211,-0.188477 0.0996,0 0.19727,0.02539 0.0977,0.02539 0.15722,0.06738 l -0.0527,0.125976 q -0.1377,-0.07813 -0.30176,-0.07813 -0.18945,0 -0.2832,0.138672 -0.0928,0.138672 -0.0928,0.436523 0,0.574219 0.37597,0.574219 0.1416,0 0.21387,-0.05957 v -0.339844 h -0.24805 v -0.138672 h 0.40821 z M 104.34863,36 h -0.16797 l -0.15234,-0.482422 h -0.45215 L 103.42188,36 h -0.16602 l 0.45019,-1.37793 h 0.19239 z m -0.36621,-0.62207 -0.18066,-0.570313 -0.17969,0.570313 z m 1.52442,-0.625977 h -0.42481 V 36 h -0.15918 v -1.248047 h -0.42676 V 34.62207 h 1.01075 z"
     id="text16"
     style="font-size:2px;font-family:monospace;fill:#888888"
     aria-label="GAT" />
  <!-- ========== TRACK 2 ========== -->
  <rect
     x="3"
     y="40"
     width="116"
     height="27"
     fill="#222222"
     rx="2"
     id="rect16" />
  <path
     d="M 6.9362793,42.815918 H 6.1928711 V 45 H 5.9143066 V 42.815918 H 5.1674805 V 42.588623 H 6.9362793 Z M 9.1066895,45 H 8.7563477 L 8.0488281,43.904541 H 7.737793 V 45 H 7.4575195 v -2.411377 h 0.6818848 q 0.3435059,0 0.541748,0.167481 0.1999512,0.165771 0.1999512,0.463134 0,0.220459 -0.1452637,0.393067 -0.1452636,0.170898 -0.3999023,0.232422 z M 7.737793,43.660156 h 0.3537597 q 0.222168,0 0.3605957,-0.119629 0.1384278,-0.121338 0.1384278,-0.304199 0,-0.40332 -0.4921875,-0.40332 H 7.737793 Z M 11.261719,45 h -0.35376 L 10.092773,43.817383 9.8381348,44.094238 V 45 H 9.5578613 v -2.411377 h 0.2802735 v 1.155273 l 1.0698242,-1.155273 h 0.322998 l -0.94165,1.018555 z m 3.816162,0 h -1.326172 v -0.203369 q 0.50415,-0.562256 0.654541,-0.753662 0.150391,-0.191407 0.244385,-0.401612 0.09399,-0.210205 0.09399,-0.418701 0,-0.20166 -0.123047,-0.317871 -0.121338,-0.116211 -0.341797,-0.116211 -0.169189,0 -0.45459,0.104248 l -0.03931,-0.240967 q 0.258056,-0.109375 0.540039,-0.109375 0.322998,0 0.519531,0.182862 0.198242,0.181152 0.198242,0.485351 0,0.217041 -0.102539,0.430664 -0.10083,0.213623 -0.259766,0.410157 -0.158935,0.196533 -0.618652,0.704101 h 1.015137 z"
     id="text17"
     style="font-weight:bold;font-size:3.5px;font-family:monospace;fill:#00ff99"
     aria-label="TRK 2" />
  <!-- Track 2 control labels -->
  <path
     d="m 8.8935547,64.274414 q -0.1230469,-0.04199 -0.2333984,-0.04199 -0.125,0 -0.2041016,0.05762 -0.078125,0.05664 -0.078125,0.162109 0,0.125 0.2060547,0.219727 0.1523437,0.07031 0.2011719,0.09766 0.049805,0.02734 0.1005859,0.0752 0.050781,0.04785 0.081055,0.113281 0.03125,0.06445 0.03125,0.145508 0,0.201171 -0.1357422,0.3125 -0.1347656,0.110351 -0.3183594,0.110351 -0.1777344,0 -0.3115234,-0.07031 l 0.033203,-0.137696 q 0.1572266,0.07129 0.2744141,0.07129 0.1367187,0 0.21875,-0.07031 0.083008,-0.07129 0.083008,-0.195313 0,-0.0918 -0.053711,-0.155273 -0.053711,-0.06445 -0.1982421,-0.130859 -0.1484375,-0.06836 -0.1923829,-0.09277 -0.042969,-0.02539 -0.085937,-0.06934 -0.042969,-0.04394 -0.066406,-0.09863 -0.023437,-0.05469 -0.023437,-0.11914 0,-0.170899 0.1230469,-0.266602 0.1230468,-0.0957 0.3115234,-0.0957 0.1376953,0 0.2734375,0.04199 z m 1.4130863,-0.02246 H 9.8818359 V 65.5 H 9.7226563 V 64.251953 H 9.2958984 V 64.12207 h 1.0107426 z m 0.34375,-0.129883 H 11 q 0.198242,0 0.317383,0.09961 0.11914,0.09961 0.11914,0.274414 0,0.175781 -0.11914,0.28125 -0.118164,0.104492 -0.310547,0.104492 H 10.810547 V 65.5 h -0.160156 z m 0.160156,0.620117 h 0.173828 q 0.282227,0 0.282227,-0.236328 0,-0.109375 -0.07715,-0.176757 -0.07617,-0.06738 -0.197265,-0.06738 h -0.181641 z"
     id="text18"
     style="font-size:2px;font-family:monospace;fill:#888888"
     aria-label="STP" />
  <path
     d="m 18.204102,64.12207 h 0.271484 q 0.270508,0 0.433594,0.184571 0.163086,0.183593 0.163086,0.504882 0,0.328125 -0.166016,0.508789 Q 18.741211,65.5 18.482422,65.5 h -0.27832 z m 0.160156,1.238282 h 0.113281 q 0.196289,0 0.310547,-0.145508 0.114258,-0.145508 0.114258,-0.403321 0,-0.255859 -0.115235,-0.402343 -0.114257,-0.147461 -0.30957,-0.147461 H 18.364258 Z M 20.106445,65.5 h -0.625976 v -0.139648 h 0.237304 V 64.261719 H 19.480469 V 64.12207 h 0.625976 v 0.139649 H 19.87793 v 1.098633 h 0.228515 z m 1.4375,-1.37793 L 21.094727,65.5 h -0.192383 l -0.450196,-1.37793 h 0.167969 l 0.37793,1.192383 0.379883,-1.192383 z"
     id="text19"
     style="font-size:2px;font-family:monospace;fill:#888888"
     aria-label="DIV" />
  <path
     d="m 28.204102,64.12207 h 0.271484 q 0.270508,0 0.433594,0.184571 0.163086,0.183593 0.163086,0.504882 0,0.328125 -0.166016,0.508789 Q 28.741211,65.5 28.482422,65.5 h -0.27832 z m 0.160156,1.238282 h 0.113281 q 0.196289,0 0.310547,-0.145508 0.114258,-0.145508 0.114258,-0.403321 0,-0.255859 -0.115235,-0.402343 -0.114257,-0.147461 -0.30957,-0.147461 H 28.364258 Z M 30.106445,65.5 h -0.625976 v -0.139648 h 0.237304 V 64.261719 H 29.480469 V 64.12207 h 0.625976 v 0.139649 H 29.87793 v 1.098633 h 0.228515 z m 1.44043,0 H 31.34668 L 30.942383,64.874023 H 30.764648 V 65.5 h -0.160156 v -1.37793 h 0.389649 q 0.196289,0 0.30957,0.0957 0.114258,0.09473 0.114258,0.264649 0,0.125976 -0.08301,0.224609 -0.08301,0.09766 -0.228516,0.132813 z m -0.782227,-0.765625 h 0.202149 q 0.126953,0 0.206055,-0.06836 0.0791,-0.06934 0.0791,-0.173829 0,-0.230468 -0.28125,-0.230468 h -0.206055 z"
     id="text20"
     style="font-size:2px;font-family:monospace;fill:#888888"
     aria-label="DIR" />
  <!-- Track 2 output labels -->
  <path
     d="m 102.25,44.62207 h 0.34961 q 0.19824,0 0.31738,0.09961 0.11914,0.09961 0.11914,0.274414 0,0.175781 -0.11914,0.28125 -0.11816,0.104492 -0.31054,0.104492 h -0.19629 V 46 H 102.25 Z m 0.16016,0.620117 h 0.17382 q 0.28223,0 0.28223,-0.236328 0,-0.109375 -0.0771,-0.176757 -0.0762,-0.06738 -0.19726,-0.06738 h -0.18164 z M 104.10645,46 h -0.62598 v -0.139648 h 0.2373 v -1.098633 h -0.2373 V 44.62207 h 0.62598 v 0.139649 h -0.22852 v 1.098633 h 0.22852 z m 1.40039,-1.248047 h -0.42481 V 46 h -0.15918 v -1.248047 h -0.42676 V 44.62207 h 1.01075 z"
     id="text21"
     style="font-size:2px;font-family:monospace;fill:#888888"
     aria-label="PIT" />
  <path
     d="m 103.04395,64.902344 q -0.16895,0.124023 -0.37403,0.124023 -0.26855,0 -0.40722,-0.18164 -0.13868,-0.182618 -0.13868,-0.533204 0,-0.338867 0.13379,-0.527343 0.13477,-0.188477 0.41211,-0.188477 0.0996,0 0.19727,0.02539 0.0977,0.02539 0.15722,0.06738 l -0.0527,0.125976 q -0.1377,-0.07813 -0.30176,-0.07813 -0.18945,0 -0.2832,0.138672 -0.0928,0.138672 -0.0928,0.436523 0,0.574219 0.37597,0.574219 0.1416,0 0.21387,-0.05957 v -0.339844 h -0.24805 v -0.138672 h 0.40821 z M 104.34863,65 h -0.16797 l -0.15234,-0.482422 h -0.45215 L 103.42188,65 h -0.16602 l 0.45019,-1.37793 h 0.19239 z m -0.36621,-0.62207 -0.18066,-0.570313 -0.17969,0.570313 z m 1.52442,-0.625977 h -0.42481 V 65 h -0.15918 v -1.248047 h -0.42676 V 63.62207 h 1.01075 z"
     id="text22"
     style="font-size:2px;font-family:monospace;fill:#888888"
     aria-label="GAT" />
  <!-- ========== TRACK 3 ========== -->
  <rect
     x="3"
     y="69"
     width="116"
     height="27"
     fill="#222222"
     rx="2"
     id="rect22" />
  <path
     d="M 6.9362793,71.815918 H 6.1928711 V 74 H 5.9143066 V 71.815918 H 5.1674805 V 71.588623 H 6.9362793 Z M 9.1066895,74 H 8.7563477 L 8.0488281,72.904541 H 7.737793 V 74 H 7.4575195 v -2.411377 h 0.6818848 q 0.3435059,0 0.541748,0.167481 0.1999512,0.165771 0.1999512,0.463134 0,0.220459 -0.1452637,0.393067 -0.1452636,0.170898 -0.3999023,0.232422 z M 7.737793,72.660156 h 0.3537597 q 0.222168,0 0.3605957,-0.119629 0.1384278,-0.121338 0.1384278,-0.304199 0,-0.40332 -0.4921875,-0.40332 H 7.737793 Z M 11.261719,74 h -0.35376 L 10.092773,72.817383 9.8381348,73.094238 V 74 H 9.5578613 v -2.411377 h 0.2802735 v 1.155273 l 1.0698242,-1.155273 h 0.322998 l -0.94165,1.018555 z m 3.339355,-1.29541 q 0.220459,0.06152 0.35376,0.225586 0.133301,0.162353 0.133301,0.365722 0,0.317872 -0.247803,0.534913 -0.247803,0.215332 -0.584473,0.215332 -0.287109,0 -0.514404,-0.126465 l 0.05469,-0.230713 q 0.237548,0.111084 0.46997,0.111084 0.21875,0 0.372559,-0.13501 0.155517,-0.136719 0.155517,-0.350342 0,-0.210205 -0.165771,-0.341797 -0.165772,-0.131591 -0.439209,-0.131591 h -0.07349 v -0.230713 h 0.02051 q 0.263184,0 0.434083,-0.123047 0.170898,-0.124756 0.170898,-0.334961 0,-0.170899 -0.123047,-0.266602 -0.123047,-0.09741 -0.338379,-0.09741 -0.186279,0 -0.416992,0.10083 l -0.0376,-0.240967 q 0.232422,-0.105957 0.468262,-0.105957 0.322998,0 0.531494,0.170899 0.210205,0.169189 0.210205,0.435791 0,0.18457 -0.128174,0.345215 -0.126464,0.158935 -0.305908,0.199951 z"
     id="text23"
     style="font-weight:bold;font-size:3.5px;font-family:monospace;fill:#9999ff"
     aria-label="TRK 3" />
  <!-- Track 3 control labels -->
  <path
     d="m 8.8935547,93.274414 q -0.1230469,-0.04199 -0.2333984,-0.04199 -0.125,0 -0.2041016,0.05762 -0.078125,0.05664 -0.078125,0.162109 0,0.125 0.2060547,0.219727 0.1523437,0.07031 0.2011719,0.09766 0.049805,0.02734 0.1005859,0.0752 0.050781,0.04785 0.081055,0.113281 0.03125,0.06445 0.03125,0.145508 0,0.201171 -0.1357422,0.3125 -0.1347656,0.110351 -0.3183594,0.110351 -0.1777344,0 -0.3115234,-0.07031 l 0.033203,-0.137696 q 0.1572266,0.07129 0.2744141,0.07129 0.1367187,0 0.21875,-0.07031 0.083008,-0.07129 0.083008,-0.195313 0,-0.0918 -0.053711,-0.155273 -0.053711,-0.06445 -0.1982421,-0.130859 -0.1484375,-0.06836 -0.1923829,-0.09277 -0.042969,-0.02539 -0.085937,-0.06934 -0.042969,-0.04394 -0.066406,-0.09863 -0.023437,-0.05469 -0.023437,-0.11914 0,-0.170899 0.1230469,-0.266602 0.1230468,-0.0957 0.3115234,-0.0957 0.1376953,0 0.2734375,0.04199 z m 1.4130863,-0.02246 H 9.8818359 V 94.5 H 9.7226563 V 93.251953 H 9.2958984 V 93.12207 h 1.0107426 z m 0.34375,-0.129883 H 11 q 0.198242,0 0.317383,0.09961 0.11914,0.09961 0.11914,0.274414 0,0.175781 -0.11914,0.28125 -0.118164,0.104492 -0.310547,0.104492 H 10.810547 V 94.5 h -0.160156 z m 0.160156,0.620117 h 0.173828 q 0.282227,0 0.282227,-0.236328 0,-0.109375 -0.07715,-0.176757 -0.07617,-0.06738 -0.197265,-0.06738 h -0.181641 z"
     id="text24"
     style="font-size:2px;font-family:monospace;fill:#888888"
     aria-label="STP" />
  <path
     d="m 18.204102,93.12207 h 0.271484 q 0.270508,0 0.433594,0.184571 0.163086,0.183593 0.163086,0.504882 0,0.328125 -0.166016,0.508789 Q 18.741211,94.5 18.482422,94.5 h -0.27832 z m 0.160156,1.238282 h 0.113281 q 0.196289,0 0.310547,-0.145508 0.114258,-0.145508 0.114258,-0.403321 0,-0.255859 -0.115235,-0.402343 -0.114257,-0.147461 -0.30957,-0.147461 H 18.364258 Z M 20.106445,94.5 h -0.625976 v -0.139648 h 0.237304 V 93.261719 H 19.480469 V 93.12207 h 0.625976 v 0.139649 H 19.87793 v 1.098633 h 0.228515 z m 1.4375,-1.37793 L 21.094727,94.5 h -0.192383 l -0.450196,-1.37793 h 0.167969 l 0.37793,1.192383 0.379883,-1.192383 z"
     id="text25"
     style="font-size:2px;font-family:monospace;fill:#888888"
     aria-label="DIV" />
  <path
     d="m 28.204102,93.12207 h 0.271484 q 0.270508,0 0.433594,0.184571 0.163086,0.183593 0.163086,0.504882 0,0.328125 -0.166016,0.508789 Q 28.741211,94.5 28.482422,94.5 h -0.27832 z m 0.160156,1.238282 h 0.113281 q 0.196289,0 0.310547,-0.145508 0.114258,-0.145508 0.114258,-0.403321 0,-0.255859 -0.115235,-0.402343 -0.114257,-0.147461 -0.30957,-0.147461 H 28.364258 Z M 30.106445,94.5 h -0.625976 v -0.139648 h 0.237304 V 93.261719 H 29.480469 V 93.12207 h 0.625976 v 0.139649 H 29.87793 v 1.098633 h 0.228515 z m 1.44043,0 H 31.34668 L 30.942383,93.874023 H 30.764648 V 94.5 h -0.160156 v -1.37793 h 0.389649 q 0.196289,0 0.30957,0.0957 0.114258,0.09473 0.114258,0.264649 0,0.125976 -0.08301,0.224609 -0.08301,0.09766 -0.228516,0.132813 z m -0.782227,-0.765625 h 0.202149 q 0.126953,0 0.206055,-0.06836 0.0791,-0.06934 0.0791,-0.173829 0,-0.230468 -0.28125,-0.230468 h -0.206055 z"
     id="text26"
     style="font-size:2px;font-family:monospace;fill:#888888"
     aria-label="DIR" />
  <!-- Track 3 output labels -->
  <path
     d="m 102.25,73.62207 h 0.34961 q 0.19824,0 0.31738,0.09961 0.11914,0.09961 0.11914,0.274414 0,0.175781 -0.11914,0.28125 -0.11816,0.104492 -0.31054,0.104492 h -0.19629 V 75 H 102.25 Z m 0.16016,0.620117 h 0.17382 q 0.28223,0 0.28223,-0.236328 0,-0.109375 -0.0771,-0.176757 -0.0762,-0.06738 -0.19726,-0.06738 h -0.18164 z M 104.10645,75 h -0.62598 v -0.139648 h 0.2373 v -1.098633 h -0.2373 V 73.62207 h 0.62598 v 0.139649 h -0.22852 v 1.098633 h 0.22852 z m 1.40039,-1.248047 h -0.42481 V 75 h -0.15918 v -1.248047 h -0.42676 V 73.62207 h 1.01075 z"
     id="text27"
     style="font-size:2px;font-family:monospace;fill:#888888"
     aria-label="PIT" />
  <path
     d="m 103.04395,93.902344 q -0.16895,0.124023 -0.37403,0.124023 -0.26855,0 -0.40722,-0.18164 -0.13868,-0.182618 -0.13868,-0.533204 0,-0.338867 0.13379,-0.527343 0.13477,-0.188477 0.41211,-0.188477 0.0996,0 0.19727,0.02539 0.0977,0.02539 0.15722,0.06738 l -0.0527,0.125976 q -0.1377,-0.07813 -0.30176,-0.07813 -0.18945,0 -0.2832,0.138672 -0.0928,0.138672 -0.0928,0.436523 0,0.574219 0.37597,0.574219 0.1416,0 0.21387,-0.05957 v -0.339844 h -0.24805 v -0.138672 h 0.40821 z M 104.34863,94 h -0.16797 l -0.15234,-0.482422 h -0.45215 L 103.42188,94 h -0.16602 l 0.45019,-1.37793 h 0.19239 z m -0.36621,-0.62207 -0.18066,-0.570313 -0.17969,0.570313 z m 1.52442,-0.625977 h -0.42481 V 94 h -0.15918 v -1.248047 h -0.42676 V 92.62207 h 1.01075 z"
     id="text28"
     style="font-size:2px;font-family:monospace;fill:#888888"
     aria-label="GAT" />
  <!-- ========== BOTTOM SECTION ========== -->
  <rect
     x="3"
     y="98"
     width="116"
     height="28"
     fill="#222222"
     rx="2"
     id="rect28" />
  <!-- Clock section -->
  <path
     d="m 10.263574,101.87969 q -0.226953,0.15722 -0.5263669,0.15722 -0.3746094,0 -0.5701172,-0.25703 -0.1941406,-0.25703 -0.1941406,-0.74375 0,-0.47031 0.1886719,-0.73554 0.1886718,-0.26661 0.5755859,-0.26661 0.1394531,0 0.2761719,0.0356 0.136719,0.0356 0.220117,0.0943 l -0.07383,0.17636 q -0.1927734,-0.10937 -0.4224609,-0.10937 -0.2666016,0 -0.3964844,0.19414 -0.1298828,0.19277 -0.1298828,0.61113 0,0.80391 0.5263672,0.80391 0.2228515,0 0.4566409,-0.13672 z M 11.87959,102 h -1.05 v -1.9291 h 0.224219 v 1.73359 h 0.825781 z m 1.116992,-1.96602 q 0.324023,0 0.493555,0.25704 0.170898,0.25566 0.170898,0.74511 0,0.48672 -0.169531,0.74375 -0.169531,0.25703 -0.494922,0.25703 -0.322656,0 -0.493555,-0.25566 -0.169531,-0.25703 -0.169531,-0.74512 0,-0.48808 0.169531,-0.74511 0.169532,-0.25704 0.493555,-0.25704 z m 0,1.80606 q 0.426563,0 0.426563,-0.80391 0,-0.80527 -0.426563,-0.80527 -0.207812,0 -0.317187,0.20918 -0.108008,0.20781 -0.108008,0.59609 0,0.39239 0.108008,0.59883 0.108007,0.20508 0.317187,0.20508 z m 2.307812,0.0396 q -0.226953,0.15722 -0.526367,0.15722 -0.374609,0 -0.570117,-0.25703 -0.194141,-0.25703 -0.194141,-0.74375 0,-0.47031 0.188672,-0.73554 0.188672,-0.26661 0.575586,-0.26661 0.139453,0 0.276172,0.0356 0.136719,0.0356 0.220117,0.0943 l -0.07383,0.17636 q -0.192773,-0.10937 -0.422461,-0.10937 -0.266601,0 -0.396484,0.19414 -0.129883,0.19277 -0.129883,0.61113 0,0.80391 0.526367,0.80391 0.222852,0 0.456641,-0.13672 z M 17.169238,102 H 16.88623 l -0.652148,-0.94609 -0.203711,0.22148 V 102 h -0.224219 v -1.9291 h 0.224219 v 0.92422 l 0.855859,-0.92422 h 0.258399 l -0.75332,0.81484 z"
     id="text29"
     style="font-size:2.8px;font-family:monospace;text-anchor:middle;fill:#ffffff"
     aria-label="CLOCK" />
  <path
     d="m 9.0458984,124.41406 q -0.1621093,0.11231 -0.3759765,0.11231 -0.2675781,0 -0.4072266,-0.1836 -0.1386719,-0.18359 -0.1386719,-0.53125 0,-0.33593 0.1347657,-0.52539 0.1347656,-0.19043 0.4111328,-0.19043 0.099609,0 0.1972656,0.0254 0.097656,0.0254 0.1572266,0.0674 l -0.052734,0.12597 q -0.1376953,-0.0781 -0.3017578,-0.0781 -0.1904297,0 -0.2832031,0.13867 -0.092773,0.1377 -0.092773,0.43652 0,0.57422 0.3759766,0.57422 0.1591797,0 0.3261719,-0.0977 z M 10.200195,124.5 H 9.4501953 v -1.37793 h 0.1601563 v 1.23828 h 0.5898434 z m 1.37793,0 h -0.202148 l -0.465821,-0.67578 -0.145508,0.1582 V 124.5 h -0.160156 v -1.37793 h 0.160156 v 0.66016 l 0.611329,-0.66016 h 0.18457 l -0.538086,0.58203 z"
     id="text30"
     style="font-size:2px;font-family:monospace;fill:#888888"
     aria-label="CLK" />
  <path
     d="m 19.146484,124.5 h -0.200195 l -0.404297,-0.62598 H 18.364258 V 124.5 h -0.160156 v -1.37793 h 0.389648 q 0.196289,0 0.30957,0.0957 0.114258,0.0947 0.114258,0.26465 0,0.12598 -0.08301,0.22461 -0.08301,0.0977 -0.228515,0.13281 z m -0.782226,-0.76562 h 0.202148 q 0.126953,0 0.206055,-0.0684 0.0791,-0.0693 0.0791,-0.17383 0,-0.23047 -0.28125,-0.23047 h -0.206054 z m 1.729492,-0.45997 q -0.123047,-0.042 -0.233398,-0.042 -0.125,0 -0.204102,0.0576 -0.07813,0.0566 -0.07813,0.16211 0,0.125 0.206055,0.21973 0.152343,0.0703 0.201172,0.0977 0.0498,0.0273 0.100585,0.0752 0.05078,0.0478 0.08105,0.11328 0.03125,0.0644 0.03125,0.14551 0,0.20117 -0.135742,0.3125 -0.134766,0.11035 -0.318359,0.11035 -0.177735,0 -0.311524,-0.0703 l 0.0332,-0.13769 q 0.157227,0.0713 0.274414,0.0713 0.136719,0 0.21875,-0.0703 0.08301,-0.0713 0.08301,-0.19532 0,-0.0918 -0.05371,-0.15527 -0.05371,-0.0644 -0.198242,-0.13086 -0.148437,-0.0684 -0.192383,-0.0928 -0.04297,-0.0254 -0.08594,-0.0693 -0.04297,-0.0439 -0.06641,-0.0986 -0.02344,-0.0547 -0.02344,-0.11914 0,-0.1709 0.123047,-0.2666 0.123047,-0.0957 0.311523,-0.0957 0.137696,0 0.273438,0.042 z m 1.413086,-0.0225 H 21.082031 V 124.5 h -0.159179 v -1.24805 h -0.426758 v -0.12988 h 1.010742 z"
     id="text31"
     style="font-size:2px;font-family:monospace;fill:#888888"
     aria-label="RST" />
  <!-- Scenes section -->
  <path
     d="m 48.210156,100.28418 q -0.172265,-0.0588 -0.326757,-0.0588 -0.175,0 -0.285743,0.0807 -0.109375,0.0793 -0.109375,0.22696 0,0.175 0.288477,0.30762 0.213281,0.0984 0.281641,0.13671 0.06973,0.0383 0.14082,0.10528 0.07109,0.067 0.113476,0.15859 0.04375,0.0902 0.04375,0.20371 0,0.28164 -0.190039,0.4375 -0.188672,0.15449 -0.445703,0.15449 -0.248828,0 -0.436133,-0.0984 l 0.04648,-0.19278 q 0.220117,0.0998 0.384179,0.0998 0.191407,0 0.30625,-0.0984 0.116211,-0.0998 0.116211,-0.27344 0,-0.12851 -0.0752,-0.21738 -0.0752,-0.0902 -0.277539,-0.1832 -0.207812,-0.0957 -0.269336,-0.12989 -0.06016,-0.0355 -0.120312,-0.0971 -0.06016,-0.0615 -0.09297,-0.13808 -0.03281,-0.0766 -0.03281,-0.1668 0,-0.23926 0.172266,-0.37324 0.172266,-0.13399 0.436133,-0.13399 0.192773,0 0.382812,0.0588 z m 1.893555,1.59551 q -0.226953,0.15722 -0.526367,0.15722 -0.37461,0 -0.570117,-0.25703 -0.194141,-0.25703 -0.194141,-0.74375 0,-0.47031 0.188672,-0.73554 0.188672,-0.26661 0.575586,-0.26661 0.139453,0 0.276172,0.0356 0.136718,0.0356 0.220117,0.0943 l -0.07383,0.17636 q -0.192774,-0.10937 -0.422461,-0.10937 -0.266602,0 -0.396485,0.19414 -0.129882,0.19277 -0.129882,0.61113 0,0.80391 0.526367,0.80391 0.222851,0 0.45664,-0.13672 z M 51.677344,102 h -1.007617 v -1.9291 h 0.999414 v 0.19551 h -0.775196 v 0.59746 h 0.745118 v 0.19551 h -0.745118 v 0.74511 h 0.783399 z m 1.744531,0 H 53.173047 L 52.48125,100.47695 V 102 h -0.224219 v -1.9291 h 0.250195 l 0.694532,1.50937 v -1.50937 h 0.220117 z m 1.616016,0 h -1.007618 v -1.9291 h 0.999414 v 0.19551 h -0.775195 v 0.59746 h 0.745117 v 0.19551 h -0.745117 v 0.74511 h 0.783399 z m 1.573633,-1.71582 q -0.172266,-0.0588 -0.326758,-0.0588 -0.175,0 -0.285742,0.0807 -0.109375,0.0793 -0.109375,0.22696 0,0.175 0.288476,0.30762 0.213281,0.0984 0.281641,0.13671 0.06973,0.0383 0.14082,0.10528 0.07109,0.067 0.113477,0.15859 0.04375,0.0902 0.04375,0.20371 0,0.28164 -0.190039,0.4375 -0.188672,0.15449 -0.445704,0.15449 -0.248828,0 -0.436132,-0.0984 l 0.04648,-0.19278 q 0.220117,0.0998 0.38418,0.0998 0.191406,0 0.30625,-0.0984 0.116211,-0.0998 0.116211,-0.27344 0,-0.12851 -0.0752,-0.21738 -0.0752,-0.0902 -0.277539,-0.1832 -0.207812,-0.0957 -0.269336,-0.12989 -0.06016,-0.0355 -0.120312,-0.0971 -0.06016,-0.0615 -0.09297,-0.13808 -0.03281,-0.0766 -0.03281,-0.1668 0,-0.23926 0.172265,-0.37324 0.172266,-0.13399 0.436133,-0.13399 0.192773,0 0.382812,0.0588 z"
     id="text32"
     style="font-size:2.8px;font-family:monospace;text-anchor:middle;fill:#ffffff"
     aria-label="SCENES" />
  <path
     d="m 33.894727,106 h -0.652149 v -0.12568 h 0.262793 v -0.96328 l -0.247851,0.12392 v -0.14414 l 0.268066,-0.13799 h 0.123926 v 1.12149 h 0.245215 z"
     id="text33"
     style="font-size:1.8px;font-family:monospace;fill:#888888"
     aria-label="1" />
  <path
     d="m 43.862207,106 h -0.682031 v -0.10459 q 0.259277,-0.28916 0.336621,-0.3876 0.07734,-0.0984 0.125683,-0.20654 0.04834,-0.10811 0.04834,-0.21533 0,-0.10371 -0.06328,-0.16348 -0.0624,-0.0598 -0.175781,-0.0598 -0.08701,0 -0.233789,0.0536 l -0.02021,-0.12393 q 0.132715,-0.0562 0.277734,-0.0562 0.166114,0 0.267188,0.094 0.101953,0.0932 0.101953,0.24961 0,0.11162 -0.05273,0.22148 -0.05186,0.10986 -0.133594,0.21094 -0.08174,0.10107 -0.318164,0.36211 h 0.52207 z"
     id="text34"
     style="font-size:1.8px;font-family:monospace;fill:#888888"
     aria-label="2" />
  <path
     d="m 53.616992,105.33379 q 0.113379,0.0316 0.181934,0.11601 0.06855,0.0835 0.06855,0.18809 0,0.16348 -0.127441,0.2751 -0.127441,0.11074 -0.300586,0.11074 -0.147656,0 -0.264551,-0.065 l 0.02812,-0.11865 q 0.122168,0.0571 0.2417,0.0571 0.1125,0 0.191601,-0.0694 0.07998,-0.0703 0.07998,-0.18017 0,-0.10811 -0.08525,-0.17578 -0.08525,-0.0677 -0.225879,-0.0677 h -0.03779 v -0.11865 h 0.01055 q 0.135351,0 0.223242,-0.0633 0.08789,-0.0642 0.08789,-0.17227 0,-0.0879 -0.06328,-0.13711 -0.06328,-0.0501 -0.174023,-0.0501 -0.0958,0 -0.214453,0.0519 l -0.01934,-0.12392 q 0.119531,-0.0545 0.24082,-0.0545 0.166113,0 0.27334,0.0879 0.108105,0.087 0.108105,0.22412 0,0.0949 -0.06592,0.17754 -0.06504,0.0817 -0.157324,0.10284 z"
     id="text35"
     style="font-size:1.8px;font-family:monospace;fill:#888888"
     aria-label="3" />
  <path
     d="M 63.943066,105.71348 H 63.790137 V 106 h -0.144141 v -0.28652 h -0.539648 v -0.10987 l 0.48955,-0.84375 h 0.194239 v 0.82793 h 0.152929 z m -0.29707,-0.12569 v -0.68554 l -0.39375,0.68554 z"
     id="text36"
     style="font-size:1.8px;font-family:monospace;fill:#888888"
     aria-label="4" />
  <path
     d="m 33.381445,115.25996 q 0.05977,-0.0158 0.116895,-0.0158 0.175781,0 0.277734,0.10811 0.101953,0.10722 0.101953,0.26806 0,0.16875 -0.118652,0.28653 -0.118652,0.11689 -0.28916,0.11689 -0.162598,0 -0.272461,-0.0545 l 0.029,-0.12217 q 0.119531,0.0501 0.246972,0.0501 0.113379,0 0.182813,-0.073 0.07031,-0.0729 0.07031,-0.20391 0,-0.12392 -0.06592,-0.19072 -0.06592,-0.0668 -0.169628,-0.0668 -0.07559,0 -0.149414,0.029 l -0.08613,-0.0396 v -0.59239 h 0.566894 v 0.12569 h -0.441211 z"
     id="text37"
     style="font-size:1.8px;font-family:monospace;fill:#888888"
     aria-label="5" />
  <path
     d="m 43.318164,115.354 q 0.116016,-0.094 0.252246,-0.094 0.157324,0 0.261914,0.10108 0.105469,0.10019 0.105469,0.25927 0,0.1749 -0.09316,0.28916 -0.09316,0.11426 -0.248731,0.11426 -0.198632,0 -0.314648,-0.18193 -0.116016,-0.18282 -0.116016,-0.44649 0,-0.28125 0.120411,-0.47021 0.121289,-0.18897 0.331347,-0.18897 0.14502,0 0.250488,0.0431 l -0.02285,0.12832 q -0.122168,-0.0448 -0.223242,-0.0448 -0.143262,0 -0.223242,0.1371 -0.07998,0.13711 -0.07998,0.3542 z m 0.0044,0.12393 q 0,0.15908 0.07471,0.28916 0.07471,0.13008 0.188086,0.13008 0.0958,0 0.147656,-0.0703 0.05186,-0.0703 0.05186,-0.19424 0,-0.11426 -0.05713,-0.18018 -0.05713,-0.0659 -0.160839,-0.0659 -0.134473,0 -0.244336,0.0914 z"
     id="text38"
     style="font-size:1.8px;font-family:monospace;fill:#888888"
     aria-label="6" />
  <path
     d="M 53.910547,114.8627 53.419238,116 h -0.147656 l 0.484277,-1.11445 h -0.580957 v -0.12569 h 0.735645 z"
     id="text39"
     style="font-size:1.8px;font-family:monospace;fill:#888888"
     aria-label="7" />
  <path
     d="m 63.664453,115.31973 q 0.126563,0.0369 0.195996,0.12568 0.07031,0.0888 0.07031,0.20742 0,0.17051 -0.113379,0.27071 -0.1125,0.10019 -0.277735,0.10019 -0.173144,0 -0.284765,-0.10107 -0.110742,-0.10108 -0.110742,-0.26807 0,-0.11777 0.07207,-0.20742 0.07207,-0.0897 0.201269,-0.12744 -0.102832,-0.0264 -0.165234,-0.10108 -0.06152,-0.0756 -0.06152,-0.16875 0,-0.11953 0.09492,-0.21621 0.09492,-0.0976 0.250488,-0.0976 0.153808,0 0.254004,0.0967 0.101074,0.0967 0.101074,0.21709 0,0.0905 -0.06328,0.16699 -0.06328,0.0756 -0.163477,0.10284 z m -0.12832,-0.0598 q 0.0044,0 0.04219,-0.0106 0.03779,-0.0105 0.06416,-0.0255 0.02725,-0.0158 0.0501,-0.0395 0.02285,-0.0237 0.03691,-0.0554 0.01406,-0.0325 0.01406,-0.0721 0,-0.0844 -0.06065,-0.13974 -0.06064,-0.0563 -0.146777,-0.0563 -0.0835,0 -0.143262,0.0571 -0.05977,0.0571 -0.05977,0.13886 0,0.0519 0.02109,0.0905 0.02197,0.0387 0.05361,0.0624 0.03252,0.0237 0.07383,0.0369 0.04219,0.0132 0.05449,0.0132 z m 0,0.12305 q -0.240821,0.0703 -0.240821,0.26455 0,0.11338 0.07295,0.18193 0.07295,0.0677 0.171386,0.0677 0.101954,0 0.171387,-0.0668 0.07031,-0.0677 0.07031,-0.18281 0,-0.087 -0.04834,-0.15557 -0.04834,-0.0694 -0.196875,-0.10898 z"
     id="text40"
     style="font-size:1.8px;font-family:monospace;fill:#888888"
     aria-label="8" />
  <!-- Modifier section -->
  <path
     d="m 76.941113,102 h -0.216015 v -1.6543 l -0.291211,0.7916 h -0.211914 l -0.291211,-0.7916 V 102 h -0.216016 v -1.9291 h 0.291211 l 0.322656,0.8791 0.321289,-0.8791 h 0.291211 z m 1.055469,-1.96602 q 0.324023,0 0.493555,0.25704 0.170898,0.25566 0.170898,0.74511 0,0.48672 -0.169531,0.74375 -0.169531,0.25703 -0.494922,0.25703 -0.322656,0 -0.493555,-0.25566 -0.169531,-0.25703 -0.169531,-0.74512 0,-0.48808 0.169531,-0.74511 0.169532,-0.25704 0.493555,-0.25704 z m 0,1.80606 q 0.426563,0 0.426563,-0.80391 0,-0.80527 -0.426563,-0.80527 -0.207812,0 -0.317187,0.20918 -0.108008,0.20781 -0.108008,0.59609 0,0.39239 0.108008,0.59883 0.108007,0.20508 0.317187,0.20508 z m 1.129297,-1.76914 h 0.380078 q 0.378711,0 0.607031,0.2584 0.228321,0.25703 0.228321,0.70683 0,0.45938 -0.232422,0.71231 Q 79.877832,102 79.515527,102 h -0.389648 z m 0.224219,1.73359 h 0.158593 q 0.274805,0 0.434766,-0.20371 0.159961,-0.20371 0.159961,-0.56465 0,-0.3582 -0.161328,-0.56328 -0.159961,-0.20644 -0.433399,-0.20644 h -0.158593 z"
     id="text41"
     style="font-size:2.8px;font-family:monospace;text-anchor:middle;fill:#ffffff"
     aria-label="MOD" />
  <path
     d="m 75.941309,106.92266 q -0.145899,0.10107 -0.338379,0.10107 -0.240821,0 -0.366504,-0.16523 -0.124805,-0.16524 -0.124805,-0.47813 0,-0.30234 0.121289,-0.47285 0.121289,-0.17139 0.37002,-0.17139 0.08965,0 0.177539,0.0228 0.08789,0.0229 0.141504,0.0607 l -0.04746,0.11338 q -0.123926,-0.0703 -0.271582,-0.0703 -0.171387,0 -0.254883,0.1248 -0.0835,0.12393 -0.0835,0.39287 0,0.5168 0.338379,0.5168 0.143261,0 0.293554,-0.0879 z m 0.363867,-1.1628 h 0.314648 q 0.178418,0 0.285645,0.0896 0.107226,0.0897 0.107226,0.24697 0,0.15821 -0.107226,0.25313 -0.106348,0.094 -0.279492,0.094 H 76.449316 V 107 h -0.14414 z m 0.14414,0.55811 h 0.156446 q 0.254004,0 0.254004,-0.2127 0,-0.0984 -0.06943,-0.15908 -0.06856,-0.0606 -0.177539,-0.0606 h -0.163477 z m 1.71211,-0.55811 -0.387598,0.70928 V 107 h -0.143262 v -0.53086 l -0.387597,-0.70928 h 0.162597 l 0.296192,0.55811 0.29707,-0.55811 z"
     id="text42"
     style="font-size:1.8px;font-family:monospace;fill:#ff6666"
     aria-label="CPY" />
  <path
     d="m 75.183691,117.75986 h 0.244336 q 0.243457,0 0.390235,0.16612 0.146777,0.16523 0.146777,0.45439 0,0.29531 -0.149414,0.45791 Q 75.66709,119 75.43418,119 h -0.250489 z m 0.144141,1.11446 h 0.101953 q 0.17666,0 0.279492,-0.13096 0.102832,-0.13096 0.102832,-0.36299 0,-0.23027 -0.103711,-0.36211 -0.102832,-0.13271 -0.278613,-0.13271 H 75.327832 Z M 76.95293,119 h -0.647754 v -1.24014 h 0.64248 v 0.12569 h -0.49834 v 0.38408 h 0.479004 v 0.12568 h -0.479004 v 0.47901 h 0.503614 z m 1.107421,0 h -0.674999 v -1.24014 h 0.14414 v 1.11446 h 0.530859 z"
     id="text43"
     style="font-size:1.8px;font-family:monospace;fill:#ff6666"
     aria-label="DEL" />
  <!-- Scene CV section -->
  <path
     d="m 101.73057,100.28418 q -0.17227,-0.0588 -0.32676,-0.0588 -0.175,0 -0.28574,0.0807 -0.10938,0.0793 -0.10938,0.22696 0,0.175 0.28848,0.30762 0.21328,0.0984 0.28164,0.13671 0.0697,0.0383 0.14082,0.10528 0.0711,0.067 0.11348,0.15859 0.0437,0.0902 0.0437,0.20371 0,0.28164 -0.19004,0.4375 -0.18868,0.15449 -0.44571,0.15449 -0.24882,0 -0.43613,-0.0984 l 0.0465,-0.19278 q 0.22012,0.0998 0.38418,0.0998 0.19141,0 0.30625,-0.0984 0.11622,-0.0998 0.11622,-0.27344 0,-0.12851 -0.0752,-0.21738 -0.0752,-0.0902 -0.27754,-0.1832 -0.20781,-0.0957 -0.26933,-0.12989 -0.0602,-0.0355 -0.12032,-0.0971 -0.0601,-0.0615 -0.093,-0.13808 -0.0328,-0.0766 -0.0328,-0.1668 0,-0.23926 0.17227,-0.37324 0.17226,-0.13399 0.43613,-0.13399 0.19277,0 0.38281,0.0588 z m 1.89355,1.59551 q -0.22695,0.15722 -0.52637,0.15722 -0.37461,0 -0.57011,-0.25703 -0.19414,-0.25703 -0.19414,-0.74375 0,-0.47031 0.18867,-0.73554 0.18867,-0.26661 0.57558,-0.26661 0.13946,0 0.27618,0.0356 0.13671,0.0356 0.22011,0.0943 l -0.0738,0.17636 q -0.19277,-0.10937 -0.42246,-0.10937 -0.2666,0 -0.39648,0.19414 -0.12988,0.19277 -0.12988,0.61113 0,0.80391 0.52636,0.80391 0.22286,0 0.45664,-0.13672 z m 1.81699,-1.80879 -0.6289,1.9291 h -0.26934 l -0.63027,-1.9291 h 0.23515 l 0.52911,1.66933 0.53183,-1.66933 z"
     id="text44"
     style="font-size:2.8px;font-family:monospace;text-anchor:middle;fill:#ffffff"
     aria-label="SCV" />
  <path
     d="m 94.90625,124.5 h -0.625977 v -0.13965 h 0.237305 v -1.09863 h -0.237305 v -0.13965 h 0.625977 v 0.13965 h -0.228516 v 1.09863 h 0.228516 z m 1.30957,0 h -0.177734 l -0.494141,-1.08789 V 124.5 h -0.160156 v -1.37793 H 95.5625 l 0.496094,1.07813 v -1.07813 h 0.157226 z"
     id="text45"
     style="font-size:2px;font-family:monospace;fill:#888888"
     aria-label="IN" />
  <path
     d="m 106.59766,123.0957 q 0.23144,0 0.35254,0.1836 0.12207,0.18261 0.12207,0.53222 0,0.34766 -0.1211,0.53125 -0.12109,0.1836 -0.35351,0.1836 -0.23047,0 -0.35254,-0.18262 -0.1211,-0.18359 -0.1211,-0.53223 0,-0.34863 0.1211,-0.53222 0.12109,-0.1836 0.35254,-0.1836 z m 0,1.29004 q 0.30468,0 0.30468,-0.57422 0,-0.57519 -0.30468,-0.57519 -0.14844,0 -0.22657,0.14941 -0.0771,0.14844 -0.0771,0.42578 0,0.28028 0.0771,0.42774 0.0772,0.14648 0.22657,0.14648 z m 1.59863,-0.31933 q 0,0.23925 -0.0977,0.34961 -0.0967,0.11035 -0.29492,0.11035 -0.39941,0 -0.39941,-0.45606 v -0.94824 h 0.16015 v 0.93359 q 0,0.33008 0.23926,0.33008 0.12012,0 0.17578,-0.0781 0.0566,-0.0781 0.0566,-0.25391 v -0.93164 h 0.16016 z m 1.31055,-0.81446 h -0.42481 V 124.5 h -0.15918 v -1.24805 h -0.42676 v -0.12988 h 1.01075 z"
     id="text46"
     style="font-size:2px;font-family:monospace;fill:#888888"
     aria-label="OUT" />
</svg>
