<?xml version="1.0" encoding="UTF-8" standalone="no"?>
<svg
   width="101.6mm"
   height="128.5mm"
   viewBox="0 0 101.6 128.5"
   version="1.1"
   id="svg49"
   sodipodi:docname="Sequencer.svg"
   xmlns:inkscape="http://www.inkscape.org/namespaces/inkscape"
   xmlns:sodipodi="http://sodipodi.sourceforge.net/DTD/sodipodi-0.dtd"
   xmlns="http://www.w3.org/2000/svg"
   xmlns:svg="http://www.w3.org/2000/svg">
  <defs
     id="defs49" />
  <sodipodi:namedview
     id="namedview49"
     pagecolor="#505050"
     bordercolor="#ffffff"
     borderopacity="1"
     inkscape:showpageshadow="0"
     inkscape:pageopacity="0"
     inkscape:pagecheckerboard="1"
     inkscape:deskcolor="#505050"
     inkscape:document-units="mm" />
  <!-- Panel background - 20 HP wide (101.6mm) -->
  <path
     id="rect1"
     style="fill:#1a1a1a"
     d="M 0,0 H 101.6 V 128.5 H 0 Z" />
  <!-- Title -->
  <path
     d="m 42.23872,6.1616211 q -0.18457,-0.062988 -0.350098,-0.062988 -0.1875,0 -0.306152,0.086426 -0.117188,0.084961 -0.117188,0.2431641 0,0.1875 0.309082,0.3295898 0.228516,0.1054687 0.301758,0.1464844 0.07471,0.041016 0.150879,0.1127929 0.07617,0.071777 0.121582,0.1699219 0.04687,0.09668 0.04687,0.2182617 0,0.3017578 -0.203613,0.46875 -0.202148,0.1655274 -0.477539,0.1655274 -0.266602,0 -0.467285,-0.1054688 l 0.0498,-0.2065429 q 0.23584,0.1069336 0.411622,0.1069336 0.205078,0 0.328125,-0.1054688 0.124511,-0.1069336 0.124511,-0.2929687 0,-0.1376954 -0.08057,-0.2329102 -0.08057,-0.09668 -0.297363,-0.1962891 -0.222657,-0.102539 -0.288575,-0.1391601 -0.06445,-0.038086 -0.128906,-0.1040039 -0.06445,-0.065918 -0.09961,-0.1479492 -0.03516,-0.082031 -0.03516,-0.178711 0,-0.2563476 0.184571,-0.3999023 0.18457,-0.1435547 0.467285,-0.1435547 0.206543,0 0.410156,0.062988 z M 44.153271,8 h -1.07959 V 5.9331055 h 1.070801 v 0.2094726 h -0.830567 v 0.6401367 h 0.79834 v 0.2094727 h -0.79834 v 0.7983398 h 0.839356 z m 1.86914,0 H 45.75581 L 45.014599,6.3681641 V 8 H 44.774364 V 5.9331055 h 0.268067 L 45.786572,7.550293 V 5.9331055 h 0.235839 z m 1.842774,-0.1464844 q -0.253418,0.1860352 -0.561035,0.1860352 -0.402832,0 -0.61084,-0.272461 -0.208008,-0.2739257 -0.208008,-0.7998046 0,-0.5083008 0.200684,-0.7910157 0.202148,-0.2827148 0.618164,-0.2827148 0.149414,0 0.295898,0.038086 0.146484,0.038086 0.23584,0.1010742 l -0.0791,0.1889649 Q 47.550243,6.1044922 47.30415,6.1044922 q -0.28418,0 -0.424805,0.2080078 -0.13916,0.2080078 -0.13916,0.6547852 0,0.8613281 0.563965,0.8613281 0.212402,0 0.3208,-0.089355 V 7.2294922 H 47.25288 V 7.0214844 h 0.612305 z m 1.382812,-0.9873047 q 0.206543,0.04834 0.323731,0.1875 0.117187,0.1391602 0.117187,0.3310547 0,0.28125 -0.205078,0.4482422 Q 49.280224,8 48.993114,8 H 48.405712 V 5.9331055 h 0.572754 q 0.298828,0 0.467285,0.1318359 0.168457,0.1303711 0.168457,0.3691406 0,0.1464844 -0.09814,0.2607422 -0.09668,0.1142578 -0.268067,0.1655274 z m -0.60205,-0.1113281 h 0.28125 q 0.440917,0 0.440917,-0.3149414 0,-0.1435547 -0.108398,-0.2197266 -0.108398,-0.077637 -0.317871,-0.077637 h -0.295898 z m 0,1.0356445 h 0.27246 q 0.23877,0 0.37793,-0.1083984 0.140625,-0.1083984 0.140625,-0.2973633 0,-0.2006836 -0.137695,-0.3105469 Q 49.161572,6.9643555 48.900829,6.9643555 H 48.645947 Z M 51.622509,8 H 51.370556 L 51.14204,7.2763672 H 50.463818 L 50.232372,8 h -0.249023 l 0.675293,-2.0668945 h 0.288574 z M 51.073193,7.0668945 50.802197,6.2114258 50.532665,7.0668945 Z M 53.419872,8 H 53.119579 L 52.513134,7.0610352 H 52.246532 V 8 H 52.006298 V 5.9331055 h 0.584473 q 0.294433,0 0.464355,0.1435547 0.171387,0.1420898 0.171387,0.3969726 0,0.1889649 -0.124512,0.3369141 -0.124512,0.1464843 -0.342773,0.1992187 z m -1.17334,-1.1484375 h 0.303223 q 0.19043,0 0.309082,-0.1025391 0.118652,-0.1040039 0.118652,-0.2607422 0,-0.3457031 -0.421875,-0.3457031 h -0.309082 z m 1.560059,-0.918457 h 0.407227 q 0.405761,0 0.65039,0.2768554 0.244629,0.2753907 0.244629,0.7573243 0,0.4921875 -0.249023,0.7631835 Q 54.612255,8 54.224072,8 h -0.417481 z m 0.240234,1.8574218 h 0.169922 q 0.294434,0 0.465821,-0.2182617 0.171386,-0.2182617 0.171386,-0.6049804 0,-0.3837891 -0.172851,-0.6035157 Q 54.509716,6.1425781 54.216747,6.1425781 H 54.046825 Z M 58.661083,6.4736328 58.08247,8 H 57.874462 L 57.298779,6.4736328 h 0.249023 L 57.979931,7.6879883 58.41206,6.4736328 Z M 60.338329,8 H 59.201611 V 7.8256836 Q 59.633739,7.34375 59.762646,7.1796875 59.891552,7.015625 59.972118,6.8354492 q 0.08057,-0.1801758 0.08057,-0.3588867 0,-0.1728516 -0.105469,-0.2724609 -0.104004,-0.099609 -0.292969,-0.099609 -0.145019,0 -0.389648,0.089355 l -0.03369,-0.206543 q 0.221192,-0.09375 0.462891,-0.09375 0.276856,0 0.445313,0.1567383 0.169921,0.1552734 0.169921,0.4160156 0,0.1860351 -0.08789,0.3691406 -0.08643,0.1831055 -0.222656,0.3515625 -0.136231,0.168457 -0.530274,0.6035156 h 0.870117 z"
     id="text1"
     style="font-weight:bold;font-size:3px;font-family:monospace;text-anchor:middle;fill:#ff9900"
     aria-label="SENGBARD v2" />
  <!-- ========== LEFT COLUMN: CLOCK (x=10) ========== -->
  <!-- Widgets: display y=16-26, knob y=32, btn y=42, jack y=52, btn y=62, jack y=72, jack y=82 -->
  <path
     id="rect2"
     style="fill:#222222"
     d="m 4,12 h 12 c 1.108,0 2,0.892 2,2 v 72 c 0,1.108 -0.892,2 -2,2 H 4 C 2.892,88 2,87.108 2,86 V 14 c 0,-1.108 0.892,-2 2,-2 z" />
  <path
     d="m 9.2456055,14.914063 q -0.1621094,0.112304 -0.3759766,0.112304 -0.2675781,0 -0.4072266,-0.183594 -0.1386718,-0.183593 -0.1386718,-0.53125 0,-0.335937 0.1347656,-0.52539 0.1347656,-0.19043 0.4111328,-0.19043 0.099609,0 0.1972656,0.02539 0.097656,0.02539 0.1572266,0.06738 l -0.052734,0.125976 q -0.1376953,-0.07813 -0.3017578,-0.07813 -0.1904297,0 -0.2832031,0.138672 -0.092773,0.137695 -0.092773,0.436523 0,0.574219 0.3759766,0.574219 0.1591797,0 0.3261719,-0.09766 z M 10.399902,15 H 9.6499023 v -1.37793 h 0.1601563 v 1.238282 h 0.5898434 z m 1.37793,0 h -0.202148 l -0.465821,-0.675781 -0.145508,0.158203 V 15 h -0.160156 v -1.37793 h 0.160156 v 0.660157 l 0.611329,-0.660157 h 0.18457 l -0.538086,0.582032 z"
     id="text2"
     style="font-weight:bold;font-size:2px;font-family:monospace;text-anchor:middle;fill:#ff9900"
     aria-label="CLK" />
  <!-- BPM display (y=16-26) -->
  <path
     id="rect3"
     style="stroke:#333333;stroke-width:0.3"
     d="m 4,16 h 12 c 0.554,0 1,0.446 1,1 v 8 c 0,0.554 -0.446,1 -1,1 H 4 C 3.446,26 3,25.554 3,25 v -8 c 0,-0.554 0.446,-1 1,-1 z" />
  <!-- Labels positioned precisely in gaps between widgets -->
  <!-- Gap: display ends y=26, knob starts y=28 → label at y=27.5 -->
  <path
     d="m 9.223999,27.433105 q 0.1032715,0.02417 0.1618653,0.09375 0.058594,0.06958 0.058594,0.165528 0,0.140625 -0.1025391,0.224121 Q 9.2401123,28 9.0965576,28 H 8.8028564 v -1.033447 h 0.286377 q 0.1494141,0 0.2336426,0.06592 0.084229,0.06518 0.084229,0.18457 0,0.07324 -0.049072,0.130371 -0.04834,0.05713 -0.1340332,0.08276 z m -0.3010254,-0.05566 h 0.140625 q 0.220459,0 0.220459,-0.15747 0,-0.07178 -0.054199,-0.109864 -0.054199,-0.03882 -0.1589355,-0.03882 H 8.9229736 Z m 0,0.517823 h 0.1362305 q 0.1193848,0 0.1889648,-0.0542 0.070312,-0.0542 0.070312,-0.148681 0,-0.100342 -0.068848,-0.155274 -0.068848,-0.05493 -0.1992188,-0.05493 H 8.9229736 Z m 0.8144532,-0.928711 h 0.262207 q 0.1486812,0 0.2380372,0.07471 0.08935,0.07471 0.08935,0.20581 0,0.131836 -0.08935,0.210938 -0.08862,0.07837 -0.23291,0.07837 H 9.8575439 V 28 H 9.7374268 Z m 0.1201171,0.465088 H 9.987915 q 0.21167,0 0.21167,-0.177246 0,-0.08203 -0.05786,-0.132569 -0.05713,-0.05054 -0.1479496,-0.05054 H 9.8575439 Z M 11.233032,28 H 11.11731 v -0.88623 l -0.156006,0.424072 H 10.847778 L 10.691772,27.11377 V 28 H 10.57605 v -1.033447 h 0.156006 l 0.172851,0.470947 0.172119,-0.470947 h 0.156006 z"
     id="text3"
     style="font-size:1.5px;font-family:monospace;text-anchor:middle;fill:#666666"
     aria-label="BPM" />
  <!-- knob at y=32 -->
  <!-- Gap: knob ends y=36, button starts y=39 → label at y=38 -->
  <path
     d="M 9.4115723,38 H 9.2313965 L 8.8675293,37.436621 H 8.7075684 V 38 H 8.5634278 v -1.240137 h 0.3506836 q 0.1766601,0 0.2786132,0.08613 0.1028321,0.08525 0.1028321,0.238184 0,0.113379 -0.074707,0.202148 -0.074707,0.08789 -0.205664,0.119531 z M 8.7075684,37.310938 H 8.889502 q 0.1142578,0 0.1854492,-0.06152 0.071191,-0.0624 0.071191,-0.156445 0,-0.207422 -0.253125,-0.207422 H 8.7075684 Z m 1.6488276,0.298828 q 0,0.215332 -0.08789,0.314648 -0.08701,0.09932 -0.26543,0.09932 -0.3594725,0 -0.3594725,-0.410449 v -0.853418 h 0.1441407 v 0.840235 q 0,0.29707 0.2153318,0.29707 0.108106,0 0.158203,-0.07031 0.05098,-0.07031 0.05098,-0.228515 v -0.838477 h 0.14414 z M 11.45415,38 H 11.294189 L 10.849463,37.020898 V 38 h -0.144141 v -1.240137 h 0.16084 l 0.446484,0.970313 v -0.970313 h 0.141504 z"
     id="text4"
     style="font-size:1.8px;font-family:monospace;text-anchor:middle;fill:#888888"
     aria-label="RUN" />
  <!-- RUN button at y=42 -->
  <!-- Gap: button ends y=45, jack starts y=48 → label at y=47 -->
  <path
     d="M 9.3210449,46.922656 Q 9.1751465,47.02373 8.982666,47.02373 q -0.2408203,0 -0.3665039,-0.165234 -0.1248046,-0.165234 -0.1248046,-0.478125 0,-0.302344 0.121289,-0.472851 0.1212891,-0.171387 0.3700195,-0.171387 0.089648,0 0.1775391,0.02285 0.087891,0.02285 0.1415039,0.06065 l -0.047461,0.113379 q -0.1239258,-0.07031 -0.2715821,-0.07031 -0.1713867,0 -0.2548828,0.124805 -0.083496,0.123926 -0.083496,0.392871 0,0.516797 0.3383789,0.516797 0.1432618,0 0.2935547,-0.08789 z M 10.359912,47 H 9.6849121 v -1.240137 h 0.1441406 v 1.114453 h 0.5308593 z m 1.240137,0 H 11.418115 L 10.998877,46.391797 10.86792,46.53418 V 47 h -0.144141 v -1.240137 h 0.144141 v 0.594141 l 0.550195,-0.594141 h 0.166113 l -0.484277,0.523828 z"
     id="text5"
     style="font-size:1.8px;font-family:monospace;text-anchor:middle;fill:#888888"
     aria-label="CLK" />
  <!-- CLK jack at y=52 -->
  <!-- Gap: jack ends y=56, button starts y=59 → label at y=58 -->
  <path
     d="M 9.4115723,58 H 9.2313965 L 8.8675293,57.436621 H 8.7075684 V 58 H 8.5634278 v -1.240137 h 0.3506836 q 0.1766601,0 0.2786132,0.08613 0.1028321,0.08525 0.1028321,0.238184 0,0.113379 -0.074707,0.202148 -0.074707,0.08789 -0.205664,0.119531 z M 8.7075684,57.310938 H 8.889502 q 0.1142578,0 0.1854492,-0.06152 0.071191,-0.0624 0.071191,-0.156445 0,-0.207422 -0.253125,-0.207422 H 8.7075684 Z m 1.5565426,-0.413965 q -0.110742,-0.03779 -0.210058,-0.03779 -0.1125003,0 -0.1836917,0.05185 -0.070312,0.05098 -0.070312,0.145899 0,0.1125 0.1854493,0.197754 0.1371089,0.06328 0.1810549,0.08789 0.04482,0.02461 0.09053,0.06768 0.0457,0.04307 0.07295,0.101953 0.02813,0.05801 0.02813,0.130957 0,0.181055 -0.122168,0.28125 -0.121289,0.09932 -0.2865231,0.09932 -0.1599609,0 -0.2803711,-0.06328 l 0.029883,-0.123926 q 0.1415039,0.06416 0.2469727,0.06416 0.1230467,0 0.1968747,-0.06328 0.07471,-0.06416 0.07471,-0.175781 0,-0.08262 -0.04834,-0.139746 -0.04834,-0.05801 -0.1784175,-0.117773 -0.1335938,-0.06152 -0.1731445,-0.0835 -0.038672,-0.02285 -0.077344,-0.0624 -0.038672,-0.03955 -0.059766,-0.08877 -0.021094,-0.04922 -0.021094,-0.107227 0,-0.153809 0.1107422,-0.239941 0.1107422,-0.08613 0.280371,-0.08613 0.123926,0 0.246094,0.03779 z m 1.271778,-0.02022 H 11.153564 V 58 h -0.143261 v -1.123242 h -0.384082 v -0.116895 h 0.909668 z"
     id="text6"
     style="font-size:1.8px;font-family:monospace;text-anchor:middle;fill:#888888"
     aria-label="RST" />
  <!-- RST button at y=62 -->
  <!-- Gap: button ends y=65, jack starts y=68 → label at y=67 -->
  <path
     d="M 9.7354492,67 H 9.1720703 V 66.874316 H 9.3856445 V 65.885547 H 9.1720703 v -0.125684 h 0.5633789 v 0.125684 h -0.205664 v 0.988769 h 0.205664 z m 1.1786128,0 h -0.15996 L 10.309375,66.020898 V 67 h -0.144141 v -1.240137 h 0.16084 l 0.446485,0.970313 v -0.970313 h 0.141503 z"
     id="text7"
     style="font-size:1.8px;font-family:monospace;text-anchor:middle;fill:#888888"
     aria-label="IN" />
  <!-- RST IN jack at y=72 -->
  <!-- Gap: jack ends y=76, jack starts y=78 → label at y=77 -->
  <path
     d="M 9.1839356,75.896973 Q 9.0731934,75.85918 8.973877,75.85918 q -0.1125,0 -0.1836914,0.05186 -0.070312,0.05098 -0.070312,0.145899 0,0.1125 0.1854492,0.197754 0.1371094,0.06328 0.1810547,0.08789 0.044824,0.02461 0.090527,0.06768 0.045703,0.04307 0.072949,0.101953 0.028125,0.05801 0.028125,0.130957 0,0.181055 -0.1221679,0.28125 -0.1212891,0.09932 -0.2865235,0.09932 -0.1599609,0 -0.280371,-0.06328 l 0.029883,-0.123926 q 0.1415039,0.06416 0.2469726,0.06416 0.1230469,0 0.196875,-0.06328 0.074707,-0.06416 0.074707,-0.175781 0,-0.08262 -0.04834,-0.139746 -0.04834,-0.05801 -0.178418,-0.117773 -0.1335937,-0.06152 -0.1731445,-0.0835 -0.038672,-0.02285 -0.077344,-0.0624 -0.038672,-0.03955 -0.059766,-0.08877 -0.021094,-0.04922 -0.021094,-0.107227 0,-0.153809 0.1107422,-0.239941 0.1107422,-0.08613 0.2803711,-0.08613 0.1239257,0 0.2460937,0.03779 z m 1.2172854,1.025683 q -0.145899,0.101074 -0.338379,0.101074 -0.2408205,0 -0.3665041,-0.165234 -0.1248047,-0.165234 -0.1248047,-0.478125 0,-0.302344 0.1212891,-0.472851 0.121289,-0.171387 0.3700197,-0.171387 0.08965,0 0.177539,0.02285 0.08789,0.02285 0.141504,0.06065 l -0.04746,0.113379 q -0.123926,-0.07031 -0.271582,-0.07031 -0.1713869,0 -0.254883,0.124805 -0.083496,0.123926 -0.083496,0.392871 0,0.516797 0.3383791,0.516797 0.143262,0 0.293554,-0.08789 z M 11.569287,75.759863 11.16499,77 H 10.991846 L 10.58667,75.759863 h 0.151172 l 0.340136,1.073145 0.341895,-1.073145 z"
     id="text8"
     style="font-size:1.8px;font-family:monospace;text-anchor:middle;fill:#888888"
     aria-label="SCV" />
  <!-- SCV IN jack at y=82 -->
  <!-- ========== TOP ROW: TRACK SELECT + CONTROLS (y=14) ========== -->
  <path
     d="M 27.90625,9.7519531 H 27.481445 V 11 H 27.322266 V 9.7519531 H 26.895508 V 9.6220703 H 27.90625 Z M 28.994141,11 h -0.72461 v -0.139648 h 0.291992 V 9.7900391 l -0.27539,0.1376953 V 9.7675781 l 0.297851,-0.1533203 h 0.137696 v 1.2460942 h 0.272461 z"
     id="text9"
     style="font-weight:bold;font-size:2px;font-family:monospace;text-anchor:middle;fill:#00ff66"
     aria-label="T1" />
  <path
     d="M 37.90625,9.7519531 H 37.481445 V 11 H 37.322266 V 9.7519531 H 36.895508 V 9.6220703 H 37.90625 Z M 38.958008,11 h -0.757813 v -0.116211 q 0.288086,-0.321289 0.374024,-0.430664 0.08594,-0.109375 0.139648,-0.229492 0.05371,-0.120117 0.05371,-0.239258 0,-0.1152344 -0.07031,-0.1816406 -0.06934,-0.066406 -0.195313,-0.066406 -0.09668,0 -0.259766,0.05957 l -0.02246,-0.1376953 q 0.14746,-0.0625 0.308593,-0.0625 0.184571,0 0.296875,0.1044922 0.113282,0.1035156 0.113282,0.2773438 0,0.1240239 -0.05859,0.2460939 -0.05762,0.12207 -0.148438,0.234375 -0.09082,0.112305 -0.353515,0.402344 h 0.580078 z"
     id="text10"
     style="font-weight:bold;font-size:2px;font-family:monospace;text-anchor:middle;fill:#00ff66"
     aria-label="T2" />
  <path
     d="M 47.90625,9.7519531 H 47.481445 V 11 H 47.322266 V 9.7519531 H 46.895508 V 9.6220703 h 1.010742 z m 0.779297,0.5078129 q 0.125976,0.03516 0.202148,0.128906 0.07617,0.09277 0.07617,0.208984 0,0.181641 -0.141601,0.305664 -0.141602,0.123047 -0.333985,0.123047 -0.164062,0 -0.293945,-0.07226 l 0.03125,-0.131836 q 0.135742,0.06348 0.268555,0.06348 0.125,0 0.21289,-0.07715 0.08887,-0.07813 0.08887,-0.200196 0,-0.120117 -0.09473,-0.195312 -0.09473,-0.07519 -0.250977,-0.07519 h -0.04199 v -0.131836 h 0.01172 q 0.15039,0 0.248047,-0.07031 0.09766,-0.07129 0.09766,-0.1914061 0,-0.097656 -0.07031,-0.1523437 -0.07031,-0.055664 -0.193359,-0.055664 -0.106445,0 -0.238281,0.057617 L 48.242187,9.65625 q 0.132813,-0.060547 0.267579,-0.060547 0.18457,0 0.303711,0.097656 0.120117,0.09668 0.120117,0.2490234 0,0.1054692 -0.07324,0.1972652 -0.07227,0.09082 -0.174805,0.114258 z"
     id="text11"
     style="font-weight:bold;font-size:2px;font-family:monospace;text-anchor:middle;fill:#00ff66"
     aria-label="T3" />
  <path
     d="m 61.093262,9.7744141 q -0.123047,-0.041992 -0.233399,-0.041992 -0.125,0 -0.204101,0.057617 -0.07813,0.056641 -0.07813,0.1621093 0,0.1249996 0.206054,0.2197266 0.152344,0.07031 0.201172,0.09766 0.04981,0.02734 0.100586,0.0752 0.05078,0.04785 0.08106,0.113281 0.03125,0.06445 0.03125,0.145508 0,0.201172 -0.135742,0.3125 -0.134766,0.110351 -0.31836,0.110351 -0.177734,0 -0.311523,-0.07031 l 0.0332,-0.137696 q 0.157227,0.07129 0.274414,0.07129 0.136719,0 0.21875,-0.07031 0.08301,-0.07129 0.08301,-0.195313 0,-0.0918 -0.05371,-0.155273 -0.05371,-0.06445 -0.198242,-0.130859 -0.148438,-0.06836 -0.192383,-0.09277 -0.04297,-0.02539 -0.08594,-0.06934 -0.04297,-0.04395 -0.06641,-0.09863 -0.02344,-0.05469 -0.02344,-0.1191402 0,-0.1708984 0.123047,-0.2666015 0.123046,-0.095703 0.311523,-0.095703 0.137695,0 0.273438,0.041992 z m 1.413086,-0.022461 H 62.081543 V 11 h -0.15918 V 9.7519531 H 61.495605 V 9.6220703 h 1.010743 z m 0.34375,-0.1298828 h 0.349609 q 0.198242,0 0.317383,0.099609 0.11914,0.099609 0.11914,0.2744141 0,0.1757812 -0.11914,0.2812502 -0.118164,0.104492 -0.310547,0.104492 H 63.010254 V 11 h -0.160156 z m 0.160156,0.6201177 h 0.173828 q 0.282227,0 0.282227,-0.236329 0,-0.1093746 -0.07715,-0.1767574 -0.07617,-0.067383 -0.197265,-0.067383 h -0.181641 z"
     id="text12"
     style="font-size:2px;font-family:monospace;text-anchor:middle;fill:#888888"
     aria-label="STP" />
  <path
     d="m 70.403809,9.6220703 h 0.271484 q 0.270508,0 0.433594,0.1845703 0.163086,0.1835938 0.163086,0.5048824 0,0.328125 -0.166016,0.50879 Q 70.940918,11 70.682129,11 h -0.27832 z m 0.160156,1.2382817 h 0.113281 q 0.196289,0 0.310547,-0.145508 0.114258,-0.145508 0.114258,-0.403321 0,-0.255859 -0.115235,-0.4023433 -0.114257,-0.1474609 -0.30957,-0.1474609 H 70.563965 Z M 72.306152,11 H 71.680176 V 10.860352 H 71.91748 V 9.7617188 H 71.680176 V 9.6220703 h 0.625976 v 0.1396485 h -0.228515 v 1.0986332 h 0.228515 z M 73.743652,9.6220703 73.294434,11 H 73.102051 L 72.651855,9.6220703 h 0.167969 l 0.37793,1.1923827 0.379883,-1.1923827 z"
     id="text13"
     style="font-size:2px;font-family:monospace;text-anchor:middle;fill:#888888"
     aria-label="DIV" />
  <path
     d="m 80.403809,9.6220703 h 0.271484 q 0.270508,0 0.433594,0.1845703 0.163086,0.1835938 0.163086,0.5048824 0,0.328125 -0.166016,0.50879 Q 80.940918,11 80.682129,11 h -0.27832 z m 0.160156,1.2382817 h 0.113281 q 0.196289,0 0.310547,-0.145508 0.114258,-0.145508 0.114258,-0.403321 0,-0.255859 -0.115235,-0.4023433 -0.114257,-0.1474609 -0.30957,-0.1474609 H 80.563965 Z M 82.306152,11 H 81.680176 V 10.860352 H 81.91748 V 9.7617188 H 81.680176 V 9.6220703 h 0.625976 v 0.1396485 h -0.228515 v 1.0986332 h 0.228515 z m 1.44043,0 H 83.546387 L 83.14209,10.374023 H 82.964355 V 11 H 82.804199 V 9.6220703 h 0.389649 q 0.196289,0 0.30957,0.095703 0.114258,0.094727 0.114258,0.2646485 0,0.1259761 -0.08301,0.2246091 -0.08301,0.09766 -0.228516,0.132813 z m -0.782227,-0.765625 h 0.202149 q 0.126953,0 0.206055,-0.06836 0.0791,-0.06934 0.0791,-0.1738285 0,-0.2304687 -0.28125,-0.2304687 h -0.206055 z"
     id="text14"
     style="font-size:2px;font-family:monospace;text-anchor:middle;fill:#888888"
     aria-label="DIR" />
  <!-- ========== STEP GRID ========== -->
  <path
     d="m 26.449707,18.62207 h 0.349609 q 0.198243,0 0.317383,0.09961 0.119141,0.09961 0.119141,0.274414 0,0.175781 -0.119141,0.28125 -0.118164,0.104492 -0.310547,0.104492 H 26.609863 V 20 h -0.160156 z m 0.160156,0.620117 h 0.173828 q 0.282227,0 0.282227,-0.236328 0,-0.109375 -0.07715,-0.176757 -0.07617,-0.06738 -0.197266,-0.06738 H 26.609863 Z M 28.306152,20 H 27.680176 V 19.860352 H 27.91748 V 18.761719 H 27.680176 V 18.62207 h 0.625976 v 0.139649 h -0.228515 v 1.098633 h 0.228515 z m 1.400391,-1.248047 H 29.281738 V 20 H 29.122559 V 18.751953 H 28.695801 V 18.62207 h 1.010742 z"
     id="text15"
     style="font-size:2px;font-family:monospace;text-anchor:middle;fill:#555555"
     aria-label="PIT" />
  <path
     d="M 39.90625,18.751953 H 39.481445 V 20 H 39.322266 V 18.751953 H 38.895508 V 18.62207 H 39.90625 Z M 40.994141,20 h -0.72461 v -0.139648 h 0.291992 v -1.070313 l -0.27539,0.137695 v -0.160156 l 0.297851,-0.15332 h 0.137696 v 1.246094 h 0.272461 z"
     id="text16"
     style="font-size:2px;font-family:monospace;text-anchor:middle;fill:#555555"
     aria-label="T1" />
  <path
     d="M 49.90625,18.751953 H 49.481445 V 20 H 49.322266 V 18.751953 H 48.895508 V 18.62207 H 49.90625 Z M 50.958008,20 h -0.757813 v -0.116211 q 0.288086,-0.321289 0.374024,-0.430664 0.08594,-0.109375 0.139648,-0.229492 0.05371,-0.120117 0.05371,-0.239258 0,-0.115234 -0.07031,-0.181641 -0.06934,-0.06641 -0.195313,-0.06641 -0.09668,0 -0.259766,0.05957 l -0.02246,-0.137695 q 0.14746,-0.0625 0.308593,-0.0625 0.184571,0 0.296875,0.104492 0.113282,0.103516 0.113282,0.277344 0,0.124023 -0.05859,0.246094 -0.05762,0.12207 -0.148438,0.234375 -0.09082,0.112304 -0.353515,0.402344 h 0.580078 z"
     id="text17"
     style="font-size:2px;font-family:monospace;text-anchor:middle;fill:#555555"
     aria-label="T2" />
  <path
     d="M 59.90625,18.751953 H 59.481445 V 20 H 59.322266 V 18.751953 H 58.895508 V 18.62207 h 1.010742 z m 0.779297,0.507813 q 0.125976,0.03516 0.202148,0.128906 0.07617,0.09277 0.07617,0.208984 0,0.181641 -0.141601,0.305664 -0.141602,0.123047 -0.333985,0.123047 -0.164062,0 -0.293945,-0.07227 l 0.03125,-0.131836 q 0.135742,0.06348 0.268555,0.06348 0.125,0 0.21289,-0.07715 0.08887,-0.07813 0.08887,-0.200196 0,-0.120117 -0.09473,-0.195312 -0.09473,-0.0752 -0.250977,-0.0752 h -0.04199 v -0.131836 h 0.01172 q 0.15039,0 0.248047,-0.07031 0.09766,-0.07129 0.09766,-0.191406 0,-0.09766 -0.07031,-0.152344 -0.07031,-0.05566 -0.193359,-0.05566 -0.106445,0 -0.238281,0.05762 l -0.02148,-0.137695 q 0.132813,-0.06055 0.267579,-0.06055 0.18457,0 0.303711,0.09766 0.120117,0.09668 0.120117,0.249024 0,0.105469 -0.07324,0.197265 -0.07227,0.09082 -0.174805,0.114258 z"
     id="text18"
     style="font-size:2px;font-family:monospace;text-anchor:middle;fill:#555555"
     aria-label="T3" />
  <path
     d="m 75.493164,18.774414 q -0.123047,-0.04199 -0.233398,-0.04199 -0.125,0 -0.204102,0.05762 -0.07813,0.05664 -0.07813,0.162109 0,0.125 0.206055,0.219727 0.152343,0.07031 0.201172,0.09766 0.0498,0.02734 0.100586,0.0752 0.05078,0.04785 0.08105,0.113281 0.03125,0.06445 0.03125,0.145508 0,0.201171 -0.135742,0.3125 -0.134766,0.110351 -0.318359,0.110351 -0.177735,0 -0.311524,-0.07031 l 0.0332,-0.137696 q 0.157227,0.07129 0.274414,0.07129 0.136719,0 0.21875,-0.07031 0.08301,-0.07129 0.08301,-0.195313 0,-0.0918 -0.05371,-0.155273 -0.05371,-0.06445 -0.198242,-0.130859 -0.148437,-0.06836 -0.192383,-0.09277 -0.04297,-0.02539 -0.08594,-0.06934 -0.04297,-0.04395 -0.06641,-0.09863 -0.02344,-0.05469 -0.02344,-0.11914 0,-0.170899 0.123047,-0.266602 0.123047,-0.0957 0.311523,-0.0957 0.137696,0 0.273438,0.04199 z m 1.413086,-0.02246 H 76.481445 V 20 H 76.322266 V 18.751953 H 75.895508 V 18.62207 H 76.90625 Z M 77.969727,20 H 77.25 v -1.37793 h 0.713867 v 0.139649 h -0.553711 v 0.426758 h 0.532227 v 0.139648 h -0.532227 v 0.532227 h 0.559571 z m 0.480468,-1.37793 h 0.34961 q 0.198242,0 0.317382,0.09961 0.119141,0.09961 0.119141,0.274414 0,0.175781 -0.119141,0.28125 -0.118164,0.104492 -0.310546,0.104492 H 78.610352 V 20 h -0.160157 z m 0.160157,0.620117 h 0.173828 q 0.282226,0 0.282226,-0.236328 0,-0.109375 -0.07715,-0.176757 -0.07617,-0.06738 -0.197266,-0.06738 h -0.18164 z"
     id="text19"
     style="font-size:2px;font-family:monospace;text-anchor:middle;fill:#555555"
     aria-label="STEP" />
  <!-- Step row backgrounds -->
  <path
     id="rect19"
     style="fill:#1f1f1f"
     d="m 20,22 h 66 v 9 H 20 Z" />
  <path
     id="rect20"
     style="fill:#1c1c1c"
     d="m 20,31 h 66 v 9 H 20 Z" />
  <path
     id="rect21"
     style="fill:#1f1f1f"
     d="m 20,40 h 66 v 9 H 20 Z" />
  <path
     id="rect22"
     style="fill:#1c1c1c"
     d="m 20,49 h 66 v 9 H 20 Z" />
  <path
     id="rect23"
     style="fill:#1f1f1f"
     d="m 20,58 h 66 v 9 H 20 Z" />
  <path
     id="rect24"
     style="fill:#1c1c1c"
     d="m 20,67 h 66 v 9 H 20 Z" />
  <path
     id="rect25"
     style="fill:#1f1f1f"
     d="m 20,76 h 66 v 9 H 20 Z" />
  <path
     id="rect26"
     style="fill:#1c1c1c"
     d="m 20,85 h 66 v 9 H 20 Z" />
  <!-- Step numbers -->
  <path
     d="m 22.394043,26 h -0.724609 v -0.139648 h 0.291992 v -1.070313 l -0.275391,0.137695 v -0.160156 l 0.297852,-0.15332 h 0.137695 v 1.246094 h 0.272461 z"
     id="text26"
     style="font-size:2px;font-family:monospace;text-anchor:middle;fill:#444444"
     aria-label="1" />
  <path
     d="m 22.35791,35 h -0.757812 v -0.116211 q 0.288086,-0.321289 0.374023,-0.430664 0.08594,-0.109375 0.139649,-0.229492 0.05371,-0.120117 0.05371,-0.239258 0,-0.115234 -0.07031,-0.181641 -0.06934,-0.06641 -0.195313,-0.06641 -0.09668,0 -0.259765,0.05957 l -0.02246,-0.137695 q 0.147461,-0.0625 0.308594,-0.0625 0.18457,0 0.296875,0.104492 0.113281,0.103516 0.113281,0.277344 0,0.124023 -0.05859,0.246094 -0.05762,0.12207 -0.148437,0.234375 -0.09082,0.112304 -0.353516,0.402344 h 0.580078 z"
     id="text27"
     style="font-size:2px;font-family:monospace;text-anchor:middle;fill:#444444"
     aria-label="2" />
  <path
     d="m 22.085449,43.259766 q 0.125977,0.03516 0.202149,0.128906 0.07617,0.09277 0.07617,0.208984 0,0.181641 -0.141602,0.305664 -0.141602,0.123047 -0.333984,0.123047 -0.164063,0 -0.293946,-0.07227 l 0.03125,-0.131836 q 0.135742,0.06348 0.268555,0.06348 0.125,0 0.212891,-0.07715 0.08887,-0.07813 0.08887,-0.200196 0,-0.120117 -0.09473,-0.195312 -0.09473,-0.0752 -0.250976,-0.0752 h -0.04199 v -0.131836 h 0.01172 q 0.150391,0 0.248047,-0.07031 0.09766,-0.07129 0.09766,-0.191406 0,-0.09766 -0.07031,-0.152344 -0.07031,-0.05566 -0.19336,-0.05566 -0.106445,0 -0.238281,0.05762 L 21.64209,42.65625 q 0.132812,-0.06055 0.267578,-0.06055 0.18457,0 0.303711,0.09766 0.120117,0.09668 0.120117,0.249024 0,0.105469 -0.07324,0.197265 -0.07227,0.09082 -0.174805,0.114258 z"
     id="text28"
     style="font-size:2px;font-family:monospace;text-anchor:middle;fill:#444444"
     aria-label="3" />
  <path
     d="M 22.447754,52.681641 H 22.277832 V 53 h -0.160156 v -0.318359 h -0.59961 V 52.55957 l 0.543946,-0.9375 h 0.21582 v 0.919922 h 0.169922 z m -0.330078,-0.139649 v -0.761719 l -0.4375,0.761719 z"
     id="text29"
     style="font-size:2px;font-family:monospace;text-anchor:middle;fill:#444444"
     aria-label="4" />
  <path
     d="m 21.82373,61.177734 q 0.06641,-0.01758 0.129883,-0.01758 0.195313,0 0.308594,0.120117 0.113281,0.119141 0.113281,0.297852 0,0.1875 -0.131836,0.318359 -0.131836,0.129883 -0.321289,0.129883 -0.180664,0 -0.302734,-0.06055 l 0.03223,-0.135742 q 0.132813,0.05566 0.274415,0.05566 0.125976,0 0.203125,-0.08105 0.07813,-0.08105 0.07813,-0.226562 0,-0.137695 -0.07324,-0.211914 -0.07324,-0.07422 -0.188476,-0.07422 -0.08398,0 -0.166016,0.03223 l -0.0957,-0.04395 V 60.62207 h 0.629883 v 0.139649 H 21.82373 Z"
     id="text30"
     style="font-size:2px;font-family:monospace;text-anchor:middle;fill:#444444"
     aria-label="5" />
  <path
     d="m 21.753418,70.282227 q 0.128906,-0.104493 0.280273,-0.104493 0.174805,0 0.291016,0.112305 0.117188,0.111328 0.117188,0.288086 0,0.194336 -0.103516,0.321289 -0.103516,0.126953 -0.276367,0.126953 -0.220703,0 -0.34961,-0.202148 -0.128906,-0.203125 -0.128906,-0.496094 0,-0.3125 0.133789,-0.522461 0.134766,-0.209961 0.368164,-0.209961 0.161133,0 0.278321,0.04785 l -0.02539,0.142578 q -0.135742,-0.04981 -0.248047,-0.04981 -0.15918,0 -0.248047,0.152344 -0.08887,0.152344 -0.08887,0.393555 z m 0.0049,0.137695 q 0,0.176758 0.08301,0.321289 0.08301,0.144531 0.208984,0.144531 0.106445,0 0.164062,-0.07813 0.05762,-0.07813 0.05762,-0.21582 0,-0.126953 -0.06348,-0.200195 -0.06348,-0.07324 -0.178711,-0.07324 -0.149414,0 -0.271484,0.101563 z"
     id="text31"
     style="font-size:2px;font-family:monospace;text-anchor:middle;fill:#444444"
     aria-label="6" />
  <path
     d="M 22.411621,78.736328 21.865723,80 H 21.70166 l 0.538086,-1.238281 H 21.594238 V 78.62207 h 0.817383 z"
     id="text32"
     style="font-size:2px;font-family:monospace;text-anchor:middle;fill:#444444"
     aria-label="7" />
  <path
     d="m 22.138184,88.244141 q 0.140625,0.04102 0.217773,0.139648 0.07813,0.09863 0.07813,0.230469 0,0.189453 -0.125977,0.300781 -0.125,0.111328 -0.308593,0.111328 -0.192383,0 -0.316407,-0.112305 -0.123046,-0.112304 -0.123046,-0.297851 0,-0.130859 0.08008,-0.230469 0.08008,-0.09961 0.223633,-0.141601 -0.114258,-0.0293 -0.183594,-0.112305 -0.06836,-0.08398 -0.06836,-0.1875 0,-0.132813 0.105469,-0.240234 0.105469,-0.108399 0.27832,-0.108399 0.170899,0 0.282227,0.107422 0.112305,0.107422 0.112305,0.241211 0,0.100586 -0.07031,0.185547 -0.07031,0.08398 -0.18164,0.114258 z m -0.142579,-0.06641 q 0.0049,0 0.04687,-0.01172 0.04199,-0.01172 0.07129,-0.02832 0.03027,-0.01758 0.05566,-0.04394 0.02539,-0.02637 0.04102,-0.06152 0.01563,-0.03613 0.01563,-0.08008 0,-0.09375 -0.06738,-0.155273 -0.06738,-0.0625 -0.163086,-0.0625 -0.09277,0 -0.159179,0.06348 -0.06641,0.06348 -0.06641,0.154296 0,0.05762 0.02344,0.100586 0.02441,0.04297 0.05957,0.06934 0.03613,0.02637 0.08203,0.04102 0.04687,0.01465 0.06055,0.01465 z m 0,0.136719 q -0.267578,0.07813 -0.267578,0.293945 0,0.125977 0.08105,0.202149 0.08105,0.07519 0.19043,0.07519 0.113281,0 0.190429,-0.07422 0.07813,-0.07519 0.07813,-0.203125 0,-0.09668 -0.05371,-0.172851 -0.05371,-0.07715 -0.21875,-0.121094 z"
     id="text33"
     style="font-size:2px;font-family:monospace;text-anchor:middle;fill:#444444"
     aria-label="8" />
  <!-- ========== RIGHT COLUMN: OUTPUTS (x=93) ========== -->
  <path
     id="rect33"
     style="fill:#222222"
     d="m 89,12 h 9 c 1.108,0 2,0.892 2,2 v 80 c 0,1.108 -0.892,2 -2,2 h -9 c -1.108,0 -2,-0.892 -2,-2 V 14 c 0,-1.108 0.892,-2 2,-2 z" />
  <path
     d="m 91.797363,13.595703 q 0.231446,0 0.352539,0.183594 0.122071,0.182617 0.122071,0.532226 0,0.347657 -0.121094,0.53125 -0.121094,0.183594 -0.353516,0.183594 -0.230468,0 -0.352539,-0.182617 -0.121094,-0.183594 -0.121094,-0.532227 0,-0.348632 0.121094,-0.532226 0.121094,-0.183594 0.352539,-0.183594 z m 0,1.290039 q 0.304688,0 0.304688,-0.574219 0,-0.575195 -0.304688,-0.575195 -0.148437,0 -0.226562,0.149414 -0.07715,0.148438 -0.07715,0.425781 0,0.280274 0.07715,0.427735 0.07715,0.146484 0.226562,0.146484 z m 1.598633,-0.319336 q 0,0.239258 -0.09766,0.34961 -0.09668,0.110351 -0.294922,0.110351 -0.399414,0 -0.399414,-0.456054 V 13.62207 h 0.160156 v 0.933594 q 0,0.330078 0.239258,0.330078 0.120117,0 0.175781,-0.07813 0.05664,-0.07813 0.05664,-0.253906 V 13.62207 h 0.160156 z m 1.310547,-0.814453 H 94.281738 V 15 H 94.122559 V 13.751953 H 93.695801 V 13.62207 h 1.010742 z"
     id="text34"
     style="font-weight:bold;font-size:2px;font-family:monospace;text-anchor:middle;fill:#ff9900"
     aria-label="OUT" />
  <!-- Output labels - positioned in gaps -->
  <path
     d="M 92.479614,17.063965 H 92.161011 V 18 h -0.119385 v -0.936035 h -0.320068 v -0.09741 h 0.758056 z M 93.295532,18 h -0.543457 v -0.104736 h 0.218994 v -0.802735 l -0.206543,0.103272 v -0.120117 l 0.223389,-0.114991 h 0.103272 v 0.934571 h 0.204345 z m 0.342041,-1.033447 h 0.262207 q 0.148682,0 0.238037,0.07471 0.08936,0.07471 0.08936,0.20581 0,0.131836 -0.08936,0.210938 -0.08862,0.07837 -0.23291,0.07837 H 93.75769 V 18 h -0.120117 z m 0.120117,0.465088 h 0.130372 q 0.211669,0 0.211669,-0.177246 0,-0.08203 -0.05786,-0.132569 -0.05713,-0.05054 -0.147949,-0.05054 H 93.75769 Z"
     id="text35"
     style="font-size:1.5px;font-family:monospace;text-anchor:middle;fill:#888888"
     aria-label="T1P" />
  <path
     d="M 92.479614,27.063965 H 92.161011 V 28 h -0.119385 v -0.936035 h -0.320068 v -0.09741 h 0.758056 z M 93.295532,28 h -0.543457 v -0.104736 h 0.218994 v -0.802735 l -0.206543,0.103272 v -0.120117 l 0.223389,-0.114991 h 0.103272 v 0.934571 h 0.204345 z m 0.9375,-0.07324 q -0.126709,0.09302 -0.280517,0.09302 -0.201416,0 -0.30542,-0.13623 -0.104004,-0.136963 -0.104004,-0.399902 0,-0.254151 0.100342,-0.395508 0.101074,-0.141358 0.309082,-0.141358 0.07471,0 0.147949,0.01904 0.07324,0.01904 0.11792,0.05054 l -0.03955,0.09448 q -0.103271,-0.05859 -0.226318,-0.05859 -0.14209,0 -0.212403,0.104004 -0.06958,0.104004 -0.06958,0.327393 0,0.430664 0.281983,0.430664 0.106201,0 0.1604,-0.04468 V 27.614746 H 93.92688 v -0.104004 h 0.306152 z"
     id="text36"
     style="font-size:1.5px;font-family:monospace;text-anchor:middle;fill:#888888"
     aria-label="T1G" />
  <path
     d="M 92.479614,37.063965 H 92.161011 V 38 h -0.119385 v -0.936035 h -0.320068 v -0.09741 h 0.758056 z M 93.268433,38 h -0.56836 v -0.08716 q 0.216065,-0.240967 0.280518,-0.322998 0.06445,-0.08203 0.104736,-0.172119 0.04028,-0.09009 0.04028,-0.179444 0,-0.08643 -0.05273,-0.13623 -0.052,-0.04981 -0.146484,-0.04981 -0.07251,0 -0.194825,0.04468 l -0.01685,-0.103272 q 0.110595,-0.04687 0.231445,-0.04687 0.138428,0 0.222656,0.07837 0.08496,0.07764 0.08496,0.208008 0,0.09302 -0.04394,0.184571 -0.04321,0.09155 -0.111328,0.175781 -0.06812,0.08423 -0.265137,0.301758 h 0.435059 z m 0.36914,-1.033447 h 0.262207 q 0.148682,0 0.238037,0.07471 0.08936,0.07471 0.08936,0.20581 0,0.131836 -0.08936,0.210938 -0.08862,0.07837 -0.23291,0.07837 H 93.75769 V 38 h -0.120117 z m 0.120117,0.465088 h 0.130372 q 0.211669,0 0.211669,-0.177246 0,-0.08203 -0.05786,-0.132569 -0.05713,-0.05054 -0.147949,-0.05054 H 93.75769 Z"
     id="text37"
     style="font-size:1.5px;font-family:monospace;text-anchor:middle;fill:#888888"
     aria-label="T2P" />
  <path
     d="M 92.479614,47.063965 H 92.161011 V 48 h -0.119385 v -0.936035 h -0.320068 v -0.09741 h 0.758056 z M 93.268433,48 h -0.56836 v -0.08716 q 0.216065,-0.240967 0.280518,-0.322998 0.06445,-0.08203 0.104736,-0.172119 0.04028,-0.09009 0.04028,-0.179444 0,-0.08643 -0.05273,-0.13623 -0.052,-0.04981 -0.146484,-0.04981 -0.07251,0 -0.194825,0.04468 l -0.01685,-0.103272 q 0.110595,-0.04687 0.231445,-0.04687 0.138428,0 0.222656,0.07837 0.08496,0.07764 0.08496,0.208008 0,0.09302 -0.04394,0.184571 -0.04321,0.09155 -0.111328,0.175781 -0.06812,0.08423 -0.265137,0.301758 h 0.435059 z m 0.964599,-0.07324 q -0.126709,0.09302 -0.280517,0.09302 -0.201416,0 -0.30542,-0.13623 -0.104004,-0.136963 -0.104004,-0.399902 0,-0.254151 0.100342,-0.395508 0.101074,-0.141358 0.309082,-0.141358 0.07471,0 0.147949,0.01904 0.07324,0.01904 0.11792,0.05054 l -0.03955,0.09448 q -0.103271,-0.05859 -0.226318,-0.05859 -0.14209,0 -0.212403,0.104004 -0.06958,0.104004 -0.06958,0.327393 0,0.430664 0.281983,0.430664 0.106201,0 0.1604,-0.04468 V 47.614746 H 93.92688 v -0.104004 h 0.306152 z"
     id="text38"
     style="font-size:1.5px;font-family:monospace;text-anchor:middle;fill:#888888"
     aria-label="T2G" />
  <path
     d="M 92.479614,57.063965 H 92.161011 V 58 h -0.119385 v -0.936035 h -0.320068 v -0.09741 h 0.758056 z m 0.584473,0.380859 q 0.09448,0.02637 0.151611,0.09668 0.05713,0.06958 0.05713,0.156738 0,0.136231 -0.106201,0.229248 -0.106201,0.09229 -0.250488,0.09229 -0.123047,0 -0.220459,-0.0542 l 0.02344,-0.09888 q 0.101807,0.04761 0.201416,0.04761 0.09375,0 0.159668,-0.05786 0.06665,-0.05859 0.06665,-0.150146 0,-0.09009 -0.07104,-0.146485 -0.07104,-0.0564 -0.188233,-0.0564 h -0.03149 v -0.09888 h 0.0088 q 0.112793,0 0.186035,-0.05273 0.07324,-0.05347 0.07324,-0.143555 0,-0.07324 -0.05273,-0.114258 -0.05273,-0.04175 -0.145019,-0.04175 -0.07983,0 -0.178711,0.04321 l -0.01611,-0.103272 q 0.09961,-0.04541 0.200684,-0.04541 0.138428,0 0.227783,0.07324 0.09009,0.07251 0.09009,0.186767 0,0.0791 -0.05493,0.147949 -0.0542,0.06812 -0.131103,0.08569 z m 0.573486,-0.478271 h 0.262207 q 0.148682,0 0.238037,0.07471 0.08936,0.07471 0.08936,0.20581 0,0.131836 -0.08936,0.210938 -0.08862,0.07837 -0.23291,0.07837 H 93.75769 V 58 h -0.120117 z m 0.120117,0.465088 h 0.130372 q 0.211669,0 0.211669,-0.177246 0,-0.08203 -0.05786,-0.132569 -0.05713,-0.05054 -0.147949,-0.05054 H 93.75769 Z"
     id="text39"
     style="font-size:1.5px;font-family:monospace;text-anchor:middle;fill:#888888"
     aria-label="T3P" />
  <path
     d="M 92.479614,67.063965 H 92.161011 V 68 h -0.119385 v -0.936035 h -0.320068 v -0.09741 h 0.758056 z m 0.584473,0.380859 q 0.09448,0.02637 0.151611,0.09668 0.05713,0.06958 0.05713,0.156738 0,0.136231 -0.106201,0.229248 -0.106201,0.09228 -0.250488,0.09228 -0.123047,0 -0.220459,-0.0542 l 0.02344,-0.09888 q 0.101807,0.04761 0.201416,0.04761 0.09375,0 0.159668,-0.05786 0.06665,-0.05859 0.06665,-0.150146 0,-0.09009 -0.07104,-0.146485 -0.07104,-0.0564 -0.188233,-0.0564 h -0.03149 v -0.09888 h 0.0088 q 0.112793,0 0.186035,-0.05273 0.07324,-0.05347 0.07324,-0.143555 0,-0.07324 -0.05273,-0.114258 -0.05273,-0.04175 -0.145019,-0.04175 -0.07983,0 -0.178711,0.04321 l -0.01611,-0.103272 q 0.09961,-0.04541 0.200684,-0.04541 0.138428,0 0.227783,0.07324 0.09009,0.07251 0.09009,0.186767 0,0.0791 -0.05493,0.147949 -0.0542,0.06812 -0.131103,0.08569 z m 1.168945,0.481934 q -0.126709,0.09302 -0.280517,0.09302 -0.201416,0 -0.30542,-0.13623 -0.104004,-0.136963 -0.104004,-0.399902 0,-0.254151 0.100342,-0.395508 0.101074,-0.141358 0.309082,-0.141358 0.07471,0 0.147949,0.01904 0.07324,0.01904 0.11792,0.05054 l -0.03955,0.09448 q -0.103271,-0.05859 -0.226318,-0.05859 -0.14209,0 -0.212403,0.104004 -0.06958,0.104004 -0.06958,0.327393 0,0.430664 0.281983,0.430664 0.106201,0 0.1604,-0.04468 V 67.614746 H 93.92688 v -0.104004 h 0.306152 z"
     id="text40"
     style="font-size:1.5px;font-family:monospace;text-anchor:middle;fill:#888888"
     aria-label="T3G" />
  <path
     d="m 92.434204,77.935547 q -0.121582,0.08423 -0.281982,0.08423 -0.200684,0 -0.30542,-0.137695 -0.104004,-0.137695 -0.104004,-0.398437 0,-0.251954 0.101074,-0.394043 0.101074,-0.142823 0.30835,-0.142823 0.07471,0 0.147949,0.01904 0.07324,0.01904 0.11792,0.05054 l -0.03955,0.09448 q -0.103271,-0.05859 -0.226318,-0.05859 -0.142823,0 -0.212403,0.104004 -0.06958,0.103271 -0.06958,0.327393 0,0.430664 0.281983,0.430664 0.119384,0 0.244629,-0.07324 z M 93.299927,78 h -0.5625 v -1.033447 h 0.120117 v 0.928711 h 0.442383 z m 1.033447,0 h -0.151611 l -0.349366,-0.506836 -0.10913,0.118652 V 78 h -0.120118 v -1.033447 h 0.120118 v 0.495117 l 0.458496,-0.495117 h 0.138427 l -0.403564,0.436523 z"
     id="text41"
     style="font-size:1.5px;font-family:monospace;text-anchor:middle;fill:#888888"
     aria-label="CLK" />
  <path
     d="m 92.509644,88 h -0.150147 l -0.303223,-0.469482 h -0.1333 V 88 h -0.120118 v -1.033447 h 0.292237 q 0.147217,0 0.232178,0.07178 0.08569,0.07104 0.08569,0.198486 0,0.09448 -0.06226,0.168457 -0.06226,0.07324 -0.171387,0.09961 z m -0.58667,-0.574219 h 0.151611 q 0.09521,0 0.154541,-0.05127 0.05933,-0.052 0.05933,-0.130371 0,-0.172852 -0.210937,-0.172852 h -0.154541 z m 1.297119,-0.34497 q -0.09229,-0.03149 -0.175049,-0.03149 -0.09375,0 -0.153076,0.04321 -0.05859,0.04248 -0.05859,0.121582 0,0.09375 0.154541,0.164795 0.114258,0.05273 0.150879,0.07324 0.03735,0.02051 0.07544,0.0564 0.03809,0.03589 0.06079,0.08496 0.02344,0.04834 0.02344,0.109131 0,0.150879 -0.101807,0.234375 -0.101074,0.08276 -0.238769,0.08276 -0.133301,0 -0.233643,-0.05273 l 0.0249,-0.103271 q 0.117919,0.05347 0.20581,0.05347 0.102539,0 0.164063,-0.05273 0.06226,-0.05347 0.06226,-0.146484 0,-0.06885 -0.04028,-0.116456 -0.04028,-0.04834 -0.148681,-0.09814 -0.111329,-0.05127 -0.144288,-0.06958 -0.03223,-0.01904 -0.06445,-0.052 -0.03223,-0.03296 -0.0498,-0.07398 -0.01758,-0.04102 -0.01758,-0.08935 0,-0.128174 0.09228,-0.199951 0.09229,-0.07178 0.233642,-0.07178 0.103272,0 0.205078,0.03149 z m 1.059814,-0.01685 H 93.961304 V 88 h -0.119385 v -0.936035 h -0.320068 v -0.09741 h 0.758056 z"
     id="text42"
     style="font-size:1.5px;font-family:monospace;text-anchor:middle;fill:#888888"
     aria-label="RST" />
  <!-- ========== BOTTOM SECTION (y=96-118) ========== -->
  <path
     id="rect42"
     style="fill:#222222"
     d="m 4,96 h 93 c 1.108,0 2,0.892 2,2 v 18 c 0,1.108 -0.892,2 -2,2 H 4 c -1.108,0 -2,-0.892 -2,-2 V 98 c 0,-1.108 0.892,-2 2,-2 z" />
  <path
     d="m 28.443359,98.902344 q -0.168945,0.124023 -0.374023,0.124023 -0.268555,0 -0.407227,-0.18164 -0.138672,-0.182618 -0.138672,-0.533204 0,-0.338867 0.13379,-0.527343 0.134765,-0.188477 0.412109,-0.188477 0.09961,0 0.197266,0.02539 0.09766,0.02539 0.157226,0.06738 l -0.05273,0.125976 q -0.137696,-0.07813 -0.301758,-0.07813 -0.189453,0 -0.283203,0.138672 -0.09277,0.138672 -0.09277,0.436523 0,0.574219 0.375977,0.574219 0.141601,0 0.213867,-0.05957 v -0.339844 h -0.248047 v -0.138672 h 0.408203 z M 29.746094,99 H 29.545898 L 29.141602,98.374023 H 28.963867 V 99 h -0.160156 v -1.37793 h 0.389648 q 0.196289,0 0.309571,0.0957 0.114257,0.09473 0.114257,0.264649 0,0.125976 -0.08301,0.224609 -0.08301,0.09766 -0.228516,0.132813 z m -0.782227,-0.765625 h 0.202149 q 0.126953,0 0.206054,-0.06836 0.0791,-0.06934 0.0791,-0.173829 0,-0.230468 -0.28125,-0.230468 h -0.206055 z m 1.433594,-0.638672 q 0.231445,0 0.352539,0.183594 0.12207,0.182617 0.12207,0.532226 0,0.347657 -0.121093,0.53125 -0.121094,0.183594 -0.353516,0.183594 -0.230469,0 -0.352539,-0.182617 -0.121094,-0.183594 -0.121094,-0.532227 0,-0.348632 0.121094,-0.532226 0.121094,-0.183594 0.352539,-0.183594 z m 0,1.290039 q 0.304687,0 0.304687,-0.574219 0,-0.575195 -0.304687,-0.575195 -0.148438,0 -0.226563,0.149414 -0.07715,0.148438 -0.07715,0.425781 0,0.280274 0.07715,0.427735 0.07715,0.146484 0.226563,0.146484 z m 1.200195,-1.290039 q 0.231446,0 0.352539,0.183594 0.122071,0.182617 0.122071,0.532226 0,0.347657 -0.121094,0.53125 -0.121094,0.183594 -0.353516,0.183594 -0.230469,0 -0.352539,-0.182617 -0.121094,-0.183594 -0.121094,-0.532227 0,-0.348632 0.121094,-0.532226 0.121094,-0.183594 0.352539,-0.183594 z m 0,1.290039 q 0.304688,0 0.304688,-0.574219 0,-0.575195 -0.304688,-0.575195 -0.148437,0 -0.226562,0.149414 -0.07715,0.148438 -0.07715,0.425781 0,0.280274 0.07715,0.427735 0.07715,0.146484 0.226562,0.146484 z M 33.34375,97.62207 32.894531,99 h -0.192383 l -0.450195,-1.37793 h 0.167969 l 0.37793,1.192383 0.379882,-1.192383 z M 34.370117,99 h -0.719726 v -1.37793 h 0.713867 v 0.139649 h -0.553711 v 0.426758 h 0.532226 v 0.139648 h -0.532226 v 0.532227 h 0.55957 z"
     id="text43"
     style="font-size:2px;font-family:monospace;text-anchor:middle;fill:#ff9900"
     aria-label="GROOVE" />
  <path
     d="m 54.292969,97.774414 q -0.123047,-0.04199 -0.233399,-0.04199 -0.125,0 -0.204101,0.05762 -0.07813,0.05664 -0.07813,0.162109 0,0.125 0.206054,0.219727 0.152344,0.07031 0.201172,0.09766 0.0498,0.02734 0.100586,0.0752 0.05078,0.04785 0.08105,0.113281 0.03125,0.06445 0.03125,0.145508 0,0.201171 -0.135742,0.3125 -0.134766,0.110351 -0.31836,0.110351 -0.177734,0 -0.311523,-0.07031 l 0.0332,-0.137696 q 0.157227,0.07129 0.274414,0.07129 0.136719,0 0.21875,-0.07031 0.08301,-0.07129 0.08301,-0.195313 0,-0.0918 -0.05371,-0.155273 -0.05371,-0.06445 -0.198242,-0.130859 -0.148438,-0.06836 -0.192383,-0.09277 -0.04297,-0.02539 -0.08594,-0.06934 -0.04297,-0.04394 -0.06641,-0.09863 -0.02344,-0.05469 -0.02344,-0.11914 0,-0.170899 0.123047,-0.266602 0.123046,-0.0957 0.311523,-0.0957 0.137695,0 0.273438,0.04199 z m 1.352539,1.139648 q -0.16211,0.112305 -0.375977,0.112305 -0.267578,0 -0.407226,-0.183594 -0.138672,-0.183593 -0.138672,-0.53125 0,-0.335937 0.134765,-0.52539 0.134766,-0.19043 0.411133,-0.19043 0.09961,0 0.197266,0.02539 0.09766,0.02539 0.157226,0.06738 l -0.05273,0.125976 q -0.137695,-0.07813 -0.301758,-0.07813 -0.190429,0 -0.283203,0.138672 -0.09277,0.137695 -0.09277,0.436523 0,0.574219 0.375976,0.574219 0.15918,0 0.326172,-0.09766 z M 56.769531,99 h -0.719726 v -1.37793 h 0.713867 v 0.139649 h -0.553711 v 0.426758 h 0.532226 v 0.139648 h -0.532226 v 0.532227 h 0.55957 z m 1.246094,0 H 57.837891 L 57.34375,97.912109 V 99 h -0.160156 v -1.37793 h 0.178711 l 0.496093,1.078125 V 97.62207 h 0.157227 z m 1.154297,0 h -0.719727 v -1.37793 h 0.713867 v 0.139649 h -0.55371 v 0.426758 h 0.532226 v 0.139648 h -0.532226 v 0.532227 h 0.55957 z m 1.124023,-1.225586 q -0.123047,-0.04199 -0.233398,-0.04199 -0.125,0 -0.204102,0.05762 -0.07813,0.05664 -0.07813,0.162109 0,0.125 0.206055,0.219727 0.152344,0.07031 0.201172,0.09766 0.0498,0.02734 0.100586,0.0752 0.05078,0.04785 0.08105,0.113281 0.03125,0.06445 0.03125,0.145508 0,0.201171 -0.135742,0.3125 -0.134765,0.110351 -0.318359,0.110351 -0.177734,0 -0.311524,-0.07031 l 0.0332,-0.137696 q 0.157226,0.07129 0.274414,0.07129 0.136718,0 0.21875,-0.07031 0.08301,-0.07129 0.08301,-0.195313 0,-0.0918 -0.05371,-0.155273 -0.05371,-0.06445 -0.198243,-0.130859 -0.148437,-0.06836 -0.192382,-0.09277 -0.04297,-0.02539 -0.08594,-0.06934 -0.04297,-0.04394 -0.06641,-0.09863 -0.02344,-0.05469 -0.02344,-0.11914 0,-0.170899 0.123047,-0.266602 0.123047,-0.0957 0.311524,-0.0957 0.137695,0 0.273437,0.04199 z"
     id="text44"
     style="font-size:2px;font-family:monospace;text-anchor:middle;fill:#ff9900"
     aria-label="SCENES" />
  <path
     d="m 77.243652,99 h -0.154297 v -1.181641 l -0.208007,0.56543 H 76.72998 l -0.208007,-0.56543 V 99 h -0.154297 v -1.37793 h 0.208008 l 0.230468,0.62793 0.229493,-0.62793 h 0.208007 z m 0.753907,-1.404297 q 0.231445,0 0.352539,0.183594 0.12207,0.182617 0.12207,0.532226 0,0.347657 -0.121094,0.53125 -0.121094,0.183594 -0.353515,0.183594 -0.230469,0 -0.352539,-0.182617 -0.121094,-0.183594 -0.121094,-0.532227 0,-0.348632 0.121094,-0.532226 0.121093,-0.183594 0.352539,-0.183594 z m 0,1.290039 q 0.304687,0 0.304687,-0.574219 0,-0.575195 -0.304687,-0.575195 -0.148438,0 -0.226563,0.149414 -0.07715,0.148438 -0.07715,0.425781 0,0.280274 0.07715,0.427735 0.07715,0.146484 0.226563,0.146484 z m 0.80664,-1.263672 h 0.271485 q 0.270507,0 0.433593,0.184571 0.163086,0.183593 0.163086,0.504882 0,0.328125 -0.166015,0.508789 Q 79.341309,99 79.08252,99 h -0.278321 z m 0.160156,1.238282 h 0.113282 q 0.196289,0 0.310547,-0.145508 0.114257,-0.145508 0.114257,-0.403321 0,-0.255859 -0.115234,-0.402343 -0.114258,-0.147461 -0.30957,-0.147461 h -0.113282 z"
     id="text45"
     style="font-size:2px;font-family:monospace;text-anchor:middle;fill:#ff9900"
     aria-label="MOD" />
  <path
     d="m 91.797363,97.595703 q 0.231446,0 0.352539,0.183594 0.122071,0.182617 0.122071,0.532226 0,0.347657 -0.121094,0.53125 -0.121094,0.183594 -0.353516,0.183594 -0.230468,0 -0.352539,-0.182617 -0.121094,-0.183594 -0.121094,-0.532227 0,-0.348632 0.121094,-0.532226 0.121094,-0.183594 0.352539,-0.183594 z m 0,1.290039 q 0.304688,0 0.304688,-0.574219 0,-0.575195 -0.304688,-0.575195 -0.148437,0 -0.226562,0.149414 -0.07715,0.148438 -0.07715,0.425781 0,0.280274 0.07715,0.427735 0.07715,0.146484 0.226562,0.146484 z m 1.598633,-0.319336 q 0,0.239258 -0.09766,0.34961 -0.09668,0.110351 -0.294922,0.110351 -0.399414,0 -0.399414,-0.456055 V 97.62207 h 0.160156 v 0.933594 q 0,0.330078 0.239258,0.330078 0.120117,0 0.175781,-0.07813 0.05664,-0.07813 0.05664,-0.253906 V 97.62207 h 0.160156 z m 1.310547,-0.814453 H 94.281738 V 99 H 94.122559 V 97.751953 H 93.695801 V 97.62207 h 1.010742 z"
     id="text46"
     style="font-size:2px;font-family:monospace;text-anchor:middle;fill:#ff9900"
     aria-label="OUT" />
  <path
     d="m 25.183936,112.89697 q -0.110743,-0.0378 -0.210059,-0.0378 -0.1125,0 -0.183691,0.0519 -0.07031,0.051 -0.07031,0.14589 0,0.1125 0.185449,0.19776 0.13711,0.0633 0.181055,0.0879 0.04482,0.0246 0.09053,0.0677 0.0457,0.0431 0.07295,0.10196 0.02812,0.058 0.02812,0.13095 0,0.18106 -0.122168,0.28125 -0.121289,0.0993 -0.286524,0.0993 -0.159961,0 -0.280371,-0.0633 l 0.02988,-0.12393 q 0.141504,0.0642 0.246973,0.0642 0.123046,0 0.196875,-0.0633 0.07471,-0.0642 0.07471,-0.17578 0,-0.0826 -0.04834,-0.13974 -0.04834,-0.058 -0.178418,-0.11778 -0.133594,-0.0615 -0.173145,-0.0835 -0.03867,-0.0229 -0.07734,-0.0624 -0.03867,-0.0396 -0.05976,-0.0888 -0.02109,-0.0492 -0.02109,-0.10722 0,-0.15381 0.110742,-0.23994 0.110742,-0.0861 0.280371,-0.0861 0.123926,0 0.246094,0.0378 z M 26.502295,112.75986 26.344092,114 H 26.210498 L 25.999561,113.30127 25.789502,114 h -0.137109 l -0.154688,-1.24014 h 0.142383 l 0.10459,1.00811 0.182812,-0.60996 h 0.144141 l 0.183691,0.61172 0.106348,-1.00987 z m 0.977344,1.15225 q -0.152051,0.11162 -0.336621,0.11162 -0.2417,0 -0.366504,-0.16348 -0.124805,-0.16435 -0.124805,-0.47988 0,-0.30498 0.12041,-0.47461 0.121289,-0.16963 0.370899,-0.16963 0.08965,0 0.177539,0.0228 0.08789,0.0229 0.141504,0.0607 l -0.04746,0.11338 q -0.123926,-0.0703 -0.271582,-0.0703 -0.170508,0 -0.254883,0.1248 -0.0835,0.1248 -0.0835,0.39287 0,0.5168 0.338379,0.5168 0.127441,0 0.19248,-0.0536 v -0.30585 h -0.223242 v -0.12481 h 0.367383 z"
     id="text47"
     style="font-size:1.8px;font-family:monospace;text-anchor:middle;fill:#888888"
     aria-label="SWG" />
  <path
     d="m 35.144824,112.75986 h 0.314649 q 0.178418,0 0.285644,0.0896 0.107227,0.0897 0.107227,0.24697 0,0.15821 -0.107227,0.25313 -0.106347,0.094 -0.279492,0.094 h -0.17666 V 114 h -0.144141 z m 0.144141,0.55811 h 0.156445 q 0.254004,0 0.254004,-0.2127 0,-0.0984 -0.06943,-0.15908 -0.06855,-0.0606 -0.177539,-0.0606 H 35.288965 Z M 37.042383,112.75986 36.88418,114 H 36.750586 L 36.539648,113.30127 36.32959,114 h -0.13711 l -0.154687,-1.24014 h 0.142383 l 0.10459,1.00811 0.182812,-0.60996 h 0.144141 l 0.183691,0.61172 0.106348,-1.00987 z"
     id="text48"
     style="font-size:1.8px;font-family:monospace;text-anchor:middle;fill:#888888"
     aria-label="PW" />
  <path
     d="m 92.183936,112.89697 q -0.110743,-0.0378 -0.210059,-0.0378 -0.1125,0 -0.183691,0.0519 -0.07031,0.051 -0.07031,0.14589 0,0.1125 0.185449,0.19776 0.13711,0.0633 0.181055,0.0879 0.04482,0.0246 0.09053,0.0677 0.0457,0.0431 0.07295,0.10196 0.02813,0.058 0.02813,0.13095 0,0.18106 -0.122168,0.28125 -0.121289,0.0993 -0.286524,0.0993 -0.159961,0 -0.280371,-0.0633 l 0.02988,-0.12393 q 0.141504,0.0642 0.246973,0.0642 0.123046,0 0.196875,-0.0633 0.07471,-0.0642 0.07471,-0.17578 0,-0.0826 -0.04834,-0.13974 -0.04834,-0.058 -0.178418,-0.11778 -0.133594,-0.0615 -0.173145,-0.0835 -0.03867,-0.0229 -0.07734,-0.0624 -0.03867,-0.0396 -0.05976,-0.0888 -0.02109,-0.0492 -0.02109,-0.10722 0,-0.15381 0.110742,-0.23994 0.110742,-0.0861 0.280371,-0.0861 0.123926,0 0.246094,0.0378 z m 1.217285,1.02569 q -0.145899,0.10107 -0.338379,0.10107 -0.240821,0 -0.366504,-0.16523 -0.124805,-0.16524 -0.124805,-0.47813 0,-0.30234 0.121289,-0.47285 0.121289,-0.17139 0.37002,-0.17139 0.08965,0 0.177539,0.0228 0.08789,0.0229 0.141504,0.0607 l -0.04746,0.11338 q -0.123926,-0.0703 -0.271582,-0.0703 -0.171387,0 -0.254883,0.1248 -0.0835,0.12393 -0.0835,0.39287 0,0.5168 0.338379,0.5168 0.143262,0 0.293554,-0.0879 z m 1.168066,-1.1628 L 94.16499,114 h -0.173144 l -0.405176,-1.24014 h 0.151172 l 0.340136,1.07315 0.341895,-1.07315 z"
     id="text49"
     style="font-size:1.8px;font-family:monospace;text-anchor:middle;fill:#888888"
     aria-label="SCV" />
</svg>
